G04 Layer_Color=255*
%FSLAX44Y44*%
%MOMM*%
G71*
G01*
G75*
%ADD10O,0.3000X1.7000*%
%ADD11R,1.1000X1.0000*%
%ADD12R,2.2000X2.6000*%
%ADD13R,1.0000X1.1000*%
%ADD14R,1.5000X1.3000*%
%ADD15O,0.3000X1.8000*%
%ADD16O,1.8000X0.3000*%
%ADD17R,2.4000X2.6000*%
%ADD18R,1.9000X2.4000*%
%ADD19R,1.4000X1.6000*%
%ADD20O,1.0500X0.5500*%
%ADD21O,0.5500X1.0500*%
%ADD22O,1.9000X0.6000*%
%ADD23R,1.0389X0.3404*%
%ADD24R,1.3000X2.0000*%
%ADD25R,2.0000X2.0000*%
%ADD26R,2.1844X1.2700*%
%ADD27R,0.8000X0.8000*%
%ADD28R,1.6000X1.8000*%
%ADD29R,1.8000X1.6000*%
%ADD30R,0.5500X1.4500*%
%ADD31R,0.5500X1.4500*%
%ADD32R,2.0000X2.2000*%
%ADD33O,1.7000X0.6000*%
%ADD34R,2.2000X2.0000*%
%ADD35R,0.8000X0.9000*%
%ADD36R,1.4000X1.5000*%
%ADD37O,2.3000X0.7000*%
%ADD38R,5.5000X2.0000*%
%ADD39R,2.4000X2.3000*%
%ADD40R,1.1000X2.1500*%
%ADD41R,1.1000X2.1500*%
%ADD42R,3.5000X2.1500*%
%ADD43R,5.4000X6.2000*%
%ADD44R,1.0000X2.1000*%
%ADD47C,0.1000*%
%ADD48C,1.0000*%
%ADD49R,1.5000X1.5000*%
%ADD50C,1.5000*%
%ADD51R,1.5000X1.5000*%
%ADD52C,1.3000*%
%ADD53C,0.9000*%
%ADD54O,2.2860X2.0320*%
%ADD55O,2.0320X2.2860*%
%ADD56C,2.5000*%
%ADD57C,2.9500*%
%ADD58C,2.6500*%
%ADD59C,1.5000*%
%ADD60R,1.5000X1.5000*%
%ADD61C,1.5240*%
%ADD62C,3.8000*%
%ADD63C,1.6000*%
%ADD64R,1.6000X1.6000*%
%ADD65O,2.0000X4.0000*%
%ADD66O,4.0000X2.0000*%
%ADD67O,4.5000X2.0000*%
D10*
X541940Y282460D02*
D03*
X546940D02*
D03*
X551940D02*
D03*
X556940D02*
D03*
X561940D02*
D03*
X566940D02*
D03*
X571940D02*
D03*
X576940D02*
D03*
X581940D02*
D03*
X586940D02*
D03*
X591940D02*
D03*
X596940D02*
D03*
X601940D02*
D03*
X606940D02*
D03*
X611940D02*
D03*
X616940D02*
D03*
X621940D02*
D03*
X626940D02*
D03*
X631940D02*
D03*
X636940D02*
D03*
X641940D02*
D03*
X646940D02*
D03*
X651940D02*
D03*
X656940D02*
D03*
X541940Y474460D02*
D03*
X546940D02*
D03*
X551940D02*
D03*
X556940D02*
D03*
X561940D02*
D03*
X566940D02*
D03*
X571940D02*
D03*
X576940D02*
D03*
X581940D02*
D03*
X586940D02*
D03*
X591940D02*
D03*
X596940D02*
D03*
X601940D02*
D03*
X606940D02*
D03*
X611940D02*
D03*
X616940D02*
D03*
X621940D02*
D03*
X626940D02*
D03*
X631940D02*
D03*
X636940D02*
D03*
X641940D02*
D03*
X646940D02*
D03*
X651940D02*
D03*
X656940D02*
D03*
X865220Y474459D02*
D03*
X860220D02*
D03*
X855220D02*
D03*
X850220D02*
D03*
X845220D02*
D03*
X840220D02*
D03*
X835220D02*
D03*
X830220D02*
D03*
X825220D02*
D03*
X820220D02*
D03*
X815220D02*
D03*
X810220D02*
D03*
X805220D02*
D03*
X800220D02*
D03*
X795220D02*
D03*
X790220D02*
D03*
X785220D02*
D03*
X780220D02*
D03*
X775220D02*
D03*
X770220D02*
D03*
X765220D02*
D03*
X760220D02*
D03*
X755220D02*
D03*
X750220D02*
D03*
X865220Y282460D02*
D03*
X860220D02*
D03*
X855220D02*
D03*
X850220D02*
D03*
X845220D02*
D03*
X840220D02*
D03*
X835220D02*
D03*
X830220D02*
D03*
X825220D02*
D03*
X820220D02*
D03*
X815220D02*
D03*
X810220D02*
D03*
X805220D02*
D03*
X800220D02*
D03*
X795220D02*
D03*
X790220D02*
D03*
X785220D02*
D03*
X780220D02*
D03*
X775220D02*
D03*
X770220D02*
D03*
X765220D02*
D03*
X760220D02*
D03*
X755220D02*
D03*
X750220D02*
D03*
D11*
X778900Y538480D02*
D03*
X795900D02*
D03*
X667300Y15080D02*
D03*
X684300D02*
D03*
X679220Y139540D02*
D03*
X662220D02*
D03*
X679220Y106520D02*
D03*
X662220D02*
D03*
X875580Y589120D02*
D03*
X892580D02*
D03*
X938300D02*
D03*
X921300D02*
D03*
X938300Y553560D02*
D03*
X921300D02*
D03*
X983860Y589280D02*
D03*
X966860D02*
D03*
D12*
X1251660Y732680D02*
D03*
Y782680D02*
D03*
X1208640Y782520D02*
D03*
Y732520D02*
D03*
D13*
X807720Y590160D02*
D03*
Y573160D02*
D03*
X693580Y750800D02*
D03*
Y767800D02*
D03*
X845980Y705080D02*
D03*
Y722080D02*
D03*
Y663660D02*
D03*
Y646660D02*
D03*
X589440Y743180D02*
D03*
Y760180D02*
D03*
X596900Y557920D02*
D03*
Y574920D02*
D03*
X718980Y765260D02*
D03*
Y748260D02*
D03*
X589440Y628880D02*
D03*
Y645880D02*
D03*
Y684760D02*
D03*
Y701760D02*
D03*
X655480Y765260D02*
D03*
Y748260D02*
D03*
X812960Y623800D02*
D03*
Y640800D02*
D03*
X1027460Y824480D02*
D03*
Y807480D02*
D03*
X845980Y595860D02*
D03*
Y612860D02*
D03*
X990760Y656040D02*
D03*
Y639040D02*
D03*
X1176000Y820855D02*
D03*
Y803856D02*
D03*
X1094720D02*
D03*
Y820855D02*
D03*
X1059180Y823840D02*
D03*
Y806840D02*
D03*
X1132840Y823840D02*
D03*
Y806840D02*
D03*
X1165860Y743340D02*
D03*
Y760340D02*
D03*
D14*
X749300Y835000D02*
D03*
Y816000D02*
D03*
X1176020Y547980D02*
D03*
Y528980D02*
D03*
X820580Y757420D02*
D03*
Y776420D02*
D03*
X853600D02*
D03*
Y757420D02*
D03*
X1140818Y527814D02*
D03*
Y546814D02*
D03*
D15*
X648820Y712880D02*
D03*
X653820D02*
D03*
X658820D02*
D03*
X663820D02*
D03*
X668820D02*
D03*
X673820D02*
D03*
X678820D02*
D03*
X683820D02*
D03*
X688820D02*
D03*
X693820D02*
D03*
X698820D02*
D03*
X703820D02*
D03*
X708820D02*
D03*
X713820D02*
D03*
X718820D02*
D03*
X723820D02*
D03*
X728820D02*
D03*
X733820D02*
D03*
X738820D02*
D03*
X743820D02*
D03*
X748820D02*
D03*
X753820D02*
D03*
X758820D02*
D03*
X763820D02*
D03*
X768820D02*
D03*
Y561880D02*
D03*
X763820D02*
D03*
X758820D02*
D03*
X753820D02*
D03*
X748820D02*
D03*
X743820D02*
D03*
X738820D02*
D03*
X733820D02*
D03*
X728820D02*
D03*
X723820D02*
D03*
X718820D02*
D03*
X713820D02*
D03*
X708820D02*
D03*
X703820D02*
D03*
X698820D02*
D03*
X693820D02*
D03*
X688820D02*
D03*
X683820D02*
D03*
X678820D02*
D03*
X673820D02*
D03*
X668820D02*
D03*
X663820D02*
D03*
X658820D02*
D03*
X653820D02*
D03*
X648820D02*
D03*
X1004700Y268060D02*
D03*
X1009700D02*
D03*
X1014700D02*
D03*
X1019700D02*
D03*
X1024700D02*
D03*
X1029700D02*
D03*
X1034700D02*
D03*
X1039700D02*
D03*
X1044700D02*
D03*
X1049700D02*
D03*
X1054700D02*
D03*
X1059700D02*
D03*
X1064700D02*
D03*
X1069700D02*
D03*
X1074700D02*
D03*
X1079700D02*
D03*
X1084700D02*
D03*
X1089700D02*
D03*
X1094700D02*
D03*
X1099700D02*
D03*
X1104700D02*
D03*
X1109700D02*
D03*
X1114700D02*
D03*
X1119700D02*
D03*
X1124700D02*
D03*
X1129700D02*
D03*
X1134700D02*
D03*
X1139700D02*
D03*
X1144700D02*
D03*
X1149700D02*
D03*
X1154700D02*
D03*
X1159700D02*
D03*
X1164700D02*
D03*
X1169700D02*
D03*
X1174700D02*
D03*
X1179700D02*
D03*
Y57060D02*
D03*
X1174700D02*
D03*
X1169700D02*
D03*
X1164700D02*
D03*
X1159700D02*
D03*
X1154700D02*
D03*
X1149700D02*
D03*
X1144700D02*
D03*
X1139700D02*
D03*
X1134700D02*
D03*
X1129700D02*
D03*
X1124700D02*
D03*
X1119700D02*
D03*
X1114700D02*
D03*
X1109700D02*
D03*
X1104700D02*
D03*
X1099700D02*
D03*
X1094700D02*
D03*
X1089700D02*
D03*
X1084700D02*
D03*
X1079700D02*
D03*
X1074700D02*
D03*
X1069700D02*
D03*
X1064700D02*
D03*
X1059700D02*
D03*
X1054700D02*
D03*
X1049700D02*
D03*
X1044700D02*
D03*
X1039700D02*
D03*
X1034700D02*
D03*
X1029700D02*
D03*
X1024700D02*
D03*
X1019700D02*
D03*
X1014700D02*
D03*
X1009700D02*
D03*
X1004700D02*
D03*
X897220Y629900D02*
D03*
X902220D02*
D03*
X907220D02*
D03*
X912220D02*
D03*
X917220D02*
D03*
X922220D02*
D03*
X927220D02*
D03*
X932220D02*
D03*
X937220D02*
D03*
X942220D02*
D03*
X947220D02*
D03*
X952220D02*
D03*
Y710900D02*
D03*
X947220D02*
D03*
X942220D02*
D03*
X937220D02*
D03*
X932220D02*
D03*
X927220D02*
D03*
X922220D02*
D03*
X917220D02*
D03*
X912220D02*
D03*
X907220D02*
D03*
X902220D02*
D03*
X897220D02*
D03*
D16*
X784320Y697380D02*
D03*
Y692380D02*
D03*
Y687380D02*
D03*
Y682380D02*
D03*
Y677380D02*
D03*
Y672380D02*
D03*
Y667380D02*
D03*
Y662380D02*
D03*
Y657380D02*
D03*
Y652380D02*
D03*
Y647380D02*
D03*
Y642380D02*
D03*
Y637380D02*
D03*
Y632380D02*
D03*
Y627380D02*
D03*
Y622380D02*
D03*
Y617380D02*
D03*
Y612380D02*
D03*
Y607380D02*
D03*
Y602380D02*
D03*
Y597380D02*
D03*
Y592380D02*
D03*
Y587380D02*
D03*
Y582380D02*
D03*
Y577380D02*
D03*
X633320D02*
D03*
Y582380D02*
D03*
Y587380D02*
D03*
Y592380D02*
D03*
Y597380D02*
D03*
Y602380D02*
D03*
Y607380D02*
D03*
Y612380D02*
D03*
Y617380D02*
D03*
Y622380D02*
D03*
Y627380D02*
D03*
Y632380D02*
D03*
Y637380D02*
D03*
Y642380D02*
D03*
Y647380D02*
D03*
Y652380D02*
D03*
Y657380D02*
D03*
Y662380D02*
D03*
Y667380D02*
D03*
Y672380D02*
D03*
Y677380D02*
D03*
Y682380D02*
D03*
Y687380D02*
D03*
Y692380D02*
D03*
Y697380D02*
D03*
X1197700Y250060D02*
D03*
Y245060D02*
D03*
Y240060D02*
D03*
Y235060D02*
D03*
Y230060D02*
D03*
Y225060D02*
D03*
Y220060D02*
D03*
Y215060D02*
D03*
Y210060D02*
D03*
Y205060D02*
D03*
Y200060D02*
D03*
Y195060D02*
D03*
Y190060D02*
D03*
Y185060D02*
D03*
Y180060D02*
D03*
Y175060D02*
D03*
Y170060D02*
D03*
Y165060D02*
D03*
Y160060D02*
D03*
Y155060D02*
D03*
Y150060D02*
D03*
Y145060D02*
D03*
Y140060D02*
D03*
Y135060D02*
D03*
Y130060D02*
D03*
Y125060D02*
D03*
Y120060D02*
D03*
Y115060D02*
D03*
Y110060D02*
D03*
Y105060D02*
D03*
Y100060D02*
D03*
Y95060D02*
D03*
Y90060D02*
D03*
Y85060D02*
D03*
Y80060D02*
D03*
Y75060D02*
D03*
X986700D02*
D03*
Y80060D02*
D03*
Y85060D02*
D03*
Y90060D02*
D03*
Y95060D02*
D03*
Y100060D02*
D03*
Y105060D02*
D03*
Y110060D02*
D03*
Y115060D02*
D03*
Y120060D02*
D03*
Y125060D02*
D03*
Y130060D02*
D03*
Y135060D02*
D03*
Y140060D02*
D03*
Y145060D02*
D03*
Y150060D02*
D03*
Y155060D02*
D03*
Y160060D02*
D03*
Y165060D02*
D03*
Y170060D02*
D03*
Y175060D02*
D03*
Y180060D02*
D03*
Y185060D02*
D03*
Y190060D02*
D03*
Y195060D02*
D03*
Y200060D02*
D03*
Y205060D02*
D03*
Y210060D02*
D03*
Y215060D02*
D03*
Y220060D02*
D03*
Y225060D02*
D03*
Y230060D02*
D03*
Y235060D02*
D03*
Y240060D02*
D03*
Y245060D02*
D03*
Y250060D02*
D03*
X884220Y697900D02*
D03*
Y692900D02*
D03*
Y687900D02*
D03*
Y682900D02*
D03*
Y677900D02*
D03*
Y672900D02*
D03*
Y667900D02*
D03*
Y662900D02*
D03*
Y657900D02*
D03*
Y652900D02*
D03*
Y647900D02*
D03*
Y642900D02*
D03*
X965220D02*
D03*
Y647900D02*
D03*
Y652900D02*
D03*
Y657900D02*
D03*
Y662900D02*
D03*
Y667900D02*
D03*
Y672900D02*
D03*
Y677900D02*
D03*
Y682900D02*
D03*
Y687900D02*
D03*
Y692900D02*
D03*
Y697900D02*
D03*
D17*
X1150978Y653134D02*
D03*
Y589134D02*
D03*
X1097638Y653134D02*
D03*
Y589134D02*
D03*
D18*
X987520Y338940D02*
D03*
X1032520D02*
D03*
D19*
X-23960Y90560D02*
D03*
Y45560D02*
D03*
X56040D02*
D03*
Y90560D02*
D03*
X500540D02*
D03*
Y45560D02*
D03*
X420540D02*
D03*
Y90560D02*
D03*
D20*
X1264574Y-12074D02*
D03*
Y-2074D02*
D03*
X1335075D02*
D03*
Y-12074D02*
D03*
D21*
X1274824Y12676D02*
D03*
X1284824D02*
D03*
X1294824D02*
D03*
X1304825D02*
D03*
X1314825D02*
D03*
X1324825D02*
D03*
Y-26824D02*
D03*
X1314825D02*
D03*
X1304825D02*
D03*
X1294824D02*
D03*
X1284824D02*
D03*
X1274824D02*
D03*
D22*
X1193798Y670584D02*
D03*
Y657884D02*
D03*
Y645184D02*
D03*
Y632484D02*
D03*
X1240798Y670584D02*
D03*
Y657884D02*
D03*
Y645184D02*
D03*
Y632484D02*
D03*
D23*
X1204498Y591214D02*
D03*
Y586210D02*
D03*
Y581206D02*
D03*
Y576203D02*
D03*
Y571199D02*
D03*
X1248491D02*
D03*
Y576203D02*
D03*
Y581206D02*
D03*
Y586210D02*
D03*
Y591214D02*
D03*
D24*
X1238320Y530540D02*
D03*
X1215320D02*
D03*
D25*
X1226820Y490540D02*
D03*
D26*
X1292460Y777840D02*
D03*
Y725770D02*
D03*
X1381360D02*
D03*
Y777840D02*
D03*
D27*
X955200Y931900D02*
D03*
Y916900D02*
D03*
X749780Y916160D02*
D03*
Y931160D02*
D03*
X132240Y929600D02*
D03*
Y944600D02*
D03*
X345600D02*
D03*
Y929600D02*
D03*
X271940Y944600D02*
D03*
Y929600D02*
D03*
X203360Y944600D02*
D03*
Y929600D02*
D03*
D28*
X1172240Y419100D02*
D03*
X1144240D02*
D03*
X1250980Y388620D02*
D03*
X1222980D02*
D03*
X392620Y78580D02*
D03*
X364620D02*
D03*
X161480Y37940D02*
D03*
X133480D02*
D03*
X110680D02*
D03*
X82680D02*
D03*
X313820Y78580D02*
D03*
X341820D02*
D03*
X161480Y78580D02*
D03*
X133480D02*
D03*
X392620Y37940D02*
D03*
X364620D02*
D03*
X82680Y78580D02*
D03*
X110680D02*
D03*
X392620Y-5239D02*
D03*
X364620D02*
D03*
X341820Y37940D02*
D03*
X313820D02*
D03*
D29*
X1137920Y486440D02*
D03*
Y458440D02*
D03*
X1170940Y486440D02*
D03*
Y458440D02*
D03*
X1198880Y450880D02*
D03*
Y422880D02*
D03*
D30*
X1251560Y450170D02*
D03*
D31*
X1242060D02*
D03*
X1232560D02*
D03*
Y428670D02*
D03*
X1251560D02*
D03*
D32*
X1087718Y537314D02*
D03*
X1117718D02*
D03*
X1023540Y705960D02*
D03*
X993540D02*
D03*
D33*
X579340Y535750D02*
D03*
Y548450D02*
D03*
Y561150D02*
D03*
Y573850D02*
D03*
X530340Y535750D02*
D03*
Y548450D02*
D03*
Y561150D02*
D03*
Y573850D02*
D03*
D34*
X764700Y741760D02*
D03*
Y771760D02*
D03*
X556260Y759220D02*
D03*
Y729220D02*
D03*
X818040Y713340D02*
D03*
Y683340D02*
D03*
X1056640Y749060D02*
D03*
Y719060D02*
D03*
X1231899Y4840D02*
D03*
Y-25160D02*
D03*
D35*
X792640Y734520D02*
D03*
Y748520D02*
D03*
X1046640Y640540D02*
D03*
Y654540D02*
D03*
X1023780Y640540D02*
D03*
Y654540D02*
D03*
D36*
X290120Y39040D02*
D03*
Y76040D02*
D03*
Y11040D02*
D03*
X188120Y39040D02*
D03*
Y11040D02*
D03*
Y76040D02*
D03*
D37*
X1004700Y809630D02*
D03*
Y822330D02*
D03*
Y835030D02*
D03*
Y847730D02*
D03*
X953700Y809630D02*
D03*
Y822330D02*
D03*
Y835030D02*
D03*
Y847730D02*
D03*
D38*
X1000160Y769460D02*
D03*
X905160D02*
D03*
D39*
X559380Y631820D02*
D03*
Y684820D02*
D03*
D40*
X1097140Y703060D02*
D03*
X1143140D02*
D03*
D41*
X1120140D02*
D03*
D42*
Y765060D02*
D03*
D43*
X1163980Y931450D02*
D03*
X1077620D02*
D03*
D44*
X1186830Y863950D02*
D03*
X1141130D02*
D03*
X1054770D02*
D03*
X1100470D02*
D03*
D47*
X76900Y106520D02*
X80900D01*
X78900Y104520D02*
Y108520D01*
X953200Y924400D02*
X957200D01*
X955200Y922400D02*
Y926400D01*
X749780Y921660D02*
Y925660D01*
X747780Y923660D02*
X751780D01*
X132240Y935100D02*
Y939100D01*
X130240Y937100D02*
X134240D01*
X343600D02*
X347600D01*
X345600Y935100D02*
Y939100D01*
X269940Y937100D02*
X273940D01*
X271940Y935100D02*
Y939100D01*
X201360Y937100D02*
X205360D01*
X203360Y935100D02*
Y939100D01*
D48*
X1265280Y843280D02*
X1290280D01*
X1227780Y865281D02*
Y885280D01*
X1267780Y905280D02*
X1287780D01*
D49*
X1315720Y99060D02*
D03*
X1371600Y866140D02*
D03*
X396240Y932180D02*
D03*
X55880Y929640D02*
D03*
X119380Y-5080D02*
D03*
D50*
X1290040Y217960D02*
D03*
Y243360D02*
D03*
X1384568Y50024D02*
D03*
Y75424D02*
D03*
Y100824D02*
D03*
Y126224D02*
D03*
Y151624D02*
D03*
Y177024D02*
D03*
Y202424D02*
D03*
Y227824D02*
D03*
Y253224D02*
D03*
Y278624D02*
D03*
Y304024D02*
D03*
X1320520Y243360D02*
D03*
Y217960D02*
D03*
X1003460Y942179D02*
D03*
Y916779D02*
D03*
X1227780Y885280D02*
D03*
Y865281D02*
D03*
X1287780Y905280D02*
D03*
X1267780D02*
D03*
X853600Y-17940D02*
D03*
X879000D02*
D03*
X904400D02*
D03*
X929800D02*
D03*
X955200D02*
D03*
X980600D02*
D03*
X1006000D02*
D03*
D51*
X1290040Y268760D02*
D03*
X1384568Y329424D02*
D03*
X1320520Y268760D02*
D03*
X1003460Y891379D02*
D03*
D52*
X317200Y10910D02*
D03*
D53*
X565200D02*
D03*
D54*
X1313428Y396970D02*
D03*
X1359678Y493220D02*
D03*
X1327428Y420970D02*
D03*
X1313778Y550314D02*
D03*
X1360028Y646564D02*
D03*
X1327778Y574314D02*
D03*
D55*
X1391928Y447470D02*
D03*
X1281428Y487470D02*
D03*
X1392278Y600814D02*
D03*
X1281778Y640814D02*
D03*
D56*
X1370000Y0D02*
D03*
X0D02*
D03*
Y940000D02*
D03*
X1370000D02*
D03*
D57*
X584360Y899000D02*
D03*
X698660D02*
D03*
D58*
X564040Y868520D02*
D03*
X718980D02*
D03*
D59*
X660560Y835500D02*
D03*
X635160D02*
D03*
X647860Y810100D02*
D03*
X622460D02*
D03*
X609760Y835500D02*
D03*
X685960D02*
D03*
X673260Y810100D02*
D03*
X597060D02*
D03*
X584360Y835500D02*
D03*
X1265280Y843280D02*
D03*
X1290280D02*
D03*
D60*
X698660Y810100D02*
D03*
X828200Y-17940D02*
D03*
D61*
X709328Y924400D02*
D03*
Y944720D02*
D03*
X573692D02*
D03*
Y924400D02*
D03*
X1830Y542290D02*
D03*
X481830D02*
D03*
X381830D02*
D03*
X101830D02*
D03*
D62*
X916180Y877840D02*
D03*
X795780D02*
D03*
D63*
X868480Y850740D02*
D03*
X843480D02*
D03*
X868480Y830740D02*
D03*
D64*
X843480D02*
D03*
D65*
X1227780Y875281D02*
D03*
D66*
X1277780Y905280D02*
D03*
D67*
Y843280D02*
D03*
M02*
