G04 Layer_Color=65535*
%FSLAX44Y44*%
%MOMM*%
G71*
G01*
G75*
%ADD45C,0.2540*%
%ADD46C,0.2000*%
%ADD47C,0.1000*%
%ADD48C,1.0000*%
%ADD108C,0.2500*%
%ADD109C,0.6000*%
%ADD110C,0.2032*%
%ADD111C,0.5080*%
G36*
X756839Y208014D02*
X755351Y172000D01*
X737691D01*
X740271Y200176D01*
X730746Y172000D01*
X713682D01*
X736004Y237778D01*
X753069D01*
X744338Y212181D01*
X760807Y237778D01*
X776781D01*
X756839Y208014D01*
D02*
G37*
G36*
X828074Y226765D02*
X828867Y226666D01*
X830653Y226468D01*
X832538Y226170D01*
X834423Y225575D01*
X836209Y224880D01*
X836904Y224384D01*
X837598Y223888D01*
X837697Y223789D01*
X838094Y223392D01*
X838590Y222698D01*
X839185Y221904D01*
X839681Y220812D01*
X840078Y219622D01*
X840376Y218233D01*
X840277Y216646D01*
Y216447D01*
X840178Y216150D01*
X840078Y215753D01*
X839979Y215257D01*
X839880Y214562D01*
X839681Y213768D01*
X839384Y212875D01*
X839086Y211685D01*
X838789Y210494D01*
X838292Y209006D01*
X837896Y207419D01*
X837300Y205633D01*
X836606Y203550D01*
X835911Y201367D01*
X835118Y198986D01*
X825990Y172000D01*
X810017D01*
X811604Y176762D01*
X811505Y176663D01*
X811207Y176266D01*
X810711Y175770D01*
X810017Y175175D01*
X809223Y174480D01*
X808330Y173687D01*
X807338Y172992D01*
X806247Y172397D01*
X806148Y172298D01*
X805751Y172198D01*
X805155Y172000D01*
X804362Y171702D01*
X803469Y171405D01*
X802377Y171206D01*
X801286Y171107D01*
X799996Y171008D01*
X799302D01*
X798508Y171107D01*
X797516Y171306D01*
X796425Y171603D01*
X795234Y172000D01*
X794044Y172595D01*
X792952Y173389D01*
X792853Y173488D01*
X792555Y173885D01*
X792258Y174580D01*
X791960Y175572D01*
X791762Y176266D01*
Y177060D01*
Y177854D01*
Y178846D01*
X791960Y179937D01*
X792159Y181227D01*
X792456Y182516D01*
X792952Y184005D01*
X794441Y188370D01*
Y188469D01*
X794540Y188668D01*
X794639Y188965D01*
X794837Y189362D01*
X795234Y190354D01*
X795829Y191644D01*
X796524Y193033D01*
X797318Y194422D01*
X798211Y195613D01*
X799103Y196605D01*
X799203Y196704D01*
X799699Y197001D01*
X800393Y197498D01*
X800889Y197795D01*
X801485Y198093D01*
X802278Y198490D01*
X803072Y198887D01*
X803965Y199283D01*
X805056Y199779D01*
X806148Y200176D01*
X807437Y200672D01*
X808826Y201268D01*
X810414Y201764D01*
X810513D01*
X810811Y201863D01*
X811307Y202061D01*
X811902Y202260D01*
X812596Y202557D01*
X813390Y202855D01*
X815077Y203450D01*
X816863Y204244D01*
X818450Y204939D01*
X819144Y205236D01*
X819740Y205534D01*
X820137Y205831D01*
X820434Y206030D01*
Y206129D01*
X820633Y206228D01*
X820831Y206526D01*
X821129Y207022D01*
X821426Y207617D01*
X821823Y208411D01*
X822220Y209304D01*
X822617Y210494D01*
Y210594D01*
X822716Y210693D01*
X822815Y211189D01*
X823014Y211883D01*
X823311Y212776D01*
X823510Y213768D01*
X823708Y214661D01*
X823807Y215455D01*
Y216050D01*
Y216150D01*
X823708Y216249D01*
X823510Y216745D01*
X823014Y217142D01*
X822617Y217241D01*
X822121Y217340D01*
X821823D01*
X821228Y217241D01*
X820335Y216844D01*
X819938Y216646D01*
X819641Y216249D01*
Y216150D01*
X819541Y216050D01*
X819343Y215653D01*
X819045Y215157D01*
X818748Y214364D01*
X818351Y213372D01*
X817855Y212181D01*
X817359Y210594D01*
X815474Y205038D01*
X800096D01*
X801286Y208609D01*
Y208709D01*
X801385Y208907D01*
X801485Y209205D01*
X801683Y209601D01*
X802080Y210792D01*
X802675Y212181D01*
X803370Y213669D01*
X804163Y215356D01*
X805056Y216844D01*
X805949Y218233D01*
X806048Y218431D01*
X806445Y218828D01*
X807040Y219424D01*
X807933Y220217D01*
X809025Y221209D01*
X810414Y222201D01*
X812001Y223194D01*
X813787Y224186D01*
X813886D01*
X813985Y224285D01*
X814283Y224483D01*
X814680Y224583D01*
X815176Y224781D01*
X815870Y225079D01*
X817259Y225575D01*
X819144Y225972D01*
X821228Y226468D01*
X823510Y226765D01*
X826089Y226864D01*
X827478D01*
X828074Y226765D01*
D02*
G37*
G36*
X783230Y172000D02*
X766760D01*
X778666Y207220D01*
Y207320D01*
X778765Y207518D01*
X778963Y207915D01*
X779063Y208411D01*
X779559Y209701D01*
X780055Y211288D01*
X780551Y212875D01*
X780948Y214364D01*
X781146Y215058D01*
X781345Y215554D01*
X781444Y216050D01*
Y216447D01*
Y216546D01*
Y216745D01*
X781345Y217340D01*
X781245Y217737D01*
X781047Y218134D01*
X780749Y218531D01*
X780253Y218828D01*
X780154D01*
X779956Y218927D01*
X779559Y219126D01*
X778864Y219225D01*
X777971Y219424D01*
X776682Y219523D01*
X775094Y219622D01*
X771622D01*
X774201Y227162D01*
X774300D01*
X774797Y227261D01*
X775392Y227460D01*
X776285Y227658D01*
X777376Y228055D01*
X778666Y228452D01*
X780154Y228849D01*
X781642Y229444D01*
X783329Y230138D01*
X785115Y230932D01*
X786900Y231726D01*
X788686Y232718D01*
X790472Y233809D01*
X792357Y235000D01*
X794143Y236290D01*
X795829Y237778D01*
X805552D01*
X783230Y172000D01*
D02*
G37*
G36*
X710805D02*
X693343D01*
X696419Y183806D01*
X690168D01*
X685208Y172000D01*
X667548D01*
X698601Y237778D01*
X723305D01*
X710805Y172000D01*
D02*
G37*
G36*
X661298Y185195D02*
X671814D01*
X667349Y172000D01*
X639768D01*
X662091Y237778D01*
X679156D01*
X661298Y185195D01*
D02*
G37*
G36*
X639967Y237679D02*
X641455D01*
X643142Y237480D01*
X644828Y237282D01*
X646515Y236984D01*
X647904Y236587D01*
X648102D01*
X648499Y236389D01*
X649094Y236091D01*
X649789Y235794D01*
X651376Y234802D01*
X652071Y234107D01*
X652567Y233412D01*
X652666Y233313D01*
X652765Y233016D01*
X652964Y232619D01*
X653162Y232024D01*
X653261Y231329D01*
X653361Y230535D01*
X653460Y229543D01*
X653361Y228452D01*
Y228353D01*
X653261Y227857D01*
X653162Y227162D01*
X652964Y226170D01*
X652666Y224880D01*
X652269Y223392D01*
X651674Y221507D01*
X650979Y219324D01*
X648995Y213570D01*
Y213471D01*
X648896Y213272D01*
X648797Y212975D01*
X648598Y212578D01*
X648202Y211486D01*
X647705Y210098D01*
X647011Y208609D01*
X646217Y207121D01*
X645424Y205633D01*
X644531Y204443D01*
X644431Y204343D01*
X644134Y203946D01*
X643638Y203450D01*
X642943Y202855D01*
X642050Y202061D01*
X640959Y201367D01*
X639669Y200672D01*
X638280Y199978D01*
X638082Y199879D01*
X637586Y199779D01*
X636693Y199482D01*
X635602Y199283D01*
X634212Y198986D01*
X632526Y198688D01*
X630740Y198589D01*
X628657Y198490D01*
X623994D01*
X615065Y172000D01*
X598000D01*
X620323Y237778D01*
X639272D01*
X639967Y237679D01*
D02*
G37*
%LPC*%
G36*
X818152Y197597D02*
X818053D01*
X817954Y197498D01*
X817359Y197101D01*
X816565Y196605D01*
X815474Y195910D01*
X814482Y195117D01*
X813390Y194323D01*
X812497Y193529D01*
X811902Y192735D01*
X811803Y192636D01*
X811703Y192339D01*
X811406Y191942D01*
X811108Y191247D01*
X810711Y190453D01*
X810314Y189561D01*
X809818Y188370D01*
X809322Y187080D01*
X809223Y186882D01*
X809124Y186386D01*
X808926Y185691D01*
X808628Y184898D01*
X808429Y183906D01*
X808231Y183112D01*
X808033Y182318D01*
Y181723D01*
X808132Y181524D01*
X808330Y181128D01*
X808529Y180929D01*
X808826Y180731D01*
X809322Y180632D01*
X809818Y180532D01*
X810116D01*
X810711Y180632D01*
X811505Y180929D01*
X812200Y181425D01*
Y181524D01*
X812398Y181624D01*
X812497Y181921D01*
X812795Y182417D01*
X813092Y183112D01*
X813489Y184005D01*
X813886Y185096D01*
X814382Y186485D01*
X818152Y197597D01*
D02*
G37*
G36*
X706638Y223094D02*
X706601Y222959D01*
X706538Y222896D01*
X706439Y222598D01*
X706241Y222301D01*
X705745Y221309D01*
X705149Y220019D01*
X704455Y218431D01*
X703661Y216646D01*
X702669Y214661D01*
X701677Y212578D01*
X700685Y210296D01*
X699594Y208014D01*
X697510Y203450D01*
X696518Y201268D01*
X695625Y199184D01*
X694831Y197200D01*
X694038Y195513D01*
X699891D01*
Y195613D01*
X699990Y196009D01*
X700189Y196605D01*
X700387Y197498D01*
X700586Y198589D01*
X700883Y199879D01*
X701280Y201367D01*
X701677Y203153D01*
X702173Y205038D01*
X702669Y207121D01*
X703165Y209403D01*
X703760Y211883D01*
X704455Y214463D01*
X705149Y217142D01*
X705844Y220118D01*
X706601Y222959D01*
X706638Y222995D01*
Y223094D01*
D02*
G37*
G36*
X634709Y226567D02*
X633518D01*
X627863Y209701D01*
X629549D01*
X629946Y209800D01*
X630542D01*
X631732Y210197D01*
X632327Y210395D01*
X632824Y210792D01*
X632923Y210891D01*
X633022Y210991D01*
X633320Y211387D01*
X633717Y211883D01*
X634113Y212479D01*
X634510Y213372D01*
X634907Y214364D01*
X635403Y215653D01*
X637288Y221110D01*
Y221309D01*
X637486Y221705D01*
X637586Y222201D01*
X637784Y222896D01*
X637883Y223690D01*
Y224384D01*
Y224979D01*
X637685Y225476D01*
Y225575D01*
X637486Y225674D01*
X637288Y225872D01*
X636891Y226071D01*
X636395Y226269D01*
X635602Y226368D01*
X634709Y226567D01*
D02*
G37*
%LPD*%
D45*
X1240790Y485540D02*
X1251820D01*
X1201820Y485140D02*
X1212180D01*
X1249680Y535540D02*
X1251820D01*
X1201820D02*
X1203960D01*
X1251820Y485540D02*
Y535540D01*
X1201820Y485140D02*
Y535540D01*
X293120Y-9960D02*
Y40D01*
Y22040D02*
Y28040D01*
Y50040D02*
Y65040D01*
Y87040D02*
Y97040D01*
X185121Y-9960D02*
Y40D01*
Y22040D02*
Y28040D01*
Y50040D02*
Y65040D01*
Y87040D02*
Y97040D01*
Y-9960D02*
X293120D01*
X185121Y97040D02*
X293120D01*
X1266198Y381456D02*
Y507160D01*
X1412678D01*
Y477470D02*
Y507160D01*
Y477470D02*
X1447678D01*
Y417470D02*
Y477470D01*
X1412678Y417470D02*
X1447678D01*
X1412678D02*
Y485470D01*
Y381456D02*
Y485470D01*
X1266198Y381456D02*
X1412678D01*
X1266548Y535042D02*
Y660504D01*
X1413028D01*
Y630814D02*
Y660504D01*
Y630814D02*
X1448028D01*
Y570814D02*
Y630814D01*
X1413028Y570814D02*
X1448028D01*
X1413028D02*
Y638814D01*
Y535042D02*
Y638814D01*
X1266548Y535042D02*
X1413028D01*
X662800Y-40940D02*
X1172800D01*
X513850Y130310D02*
Y554228D01*
X-31170D02*
X513850D01*
X143830Y552390D02*
Y590290D01*
X196080D02*
X236580D01*
X289830Y552390D02*
Y590290D01*
X-31170Y130290D02*
Y554228D01*
Y130310D02*
X513850D01*
X143830Y590290D02*
X196080D01*
X236580D02*
X289830D01*
X1358679Y731358D02*
X1360856Y727730D01*
X1358679Y724828D01*
X1360130Y721926D01*
X1358679Y783428D02*
X1360856Y779800D01*
X1358679Y776898D01*
X1360130Y773996D01*
X478080Y509270D02*
Y519427D01*
X483158Y524505D01*
X488237Y519427D01*
Y509270D01*
Y516888D01*
X478080D01*
X371400Y524505D02*
Y509270D01*
Y514348D01*
X381557Y524505D01*
X373939Y516888D01*
X381557Y509270D01*
X386635D02*
X391713D01*
X389174D01*
Y524505D01*
X386635Y521966D01*
X88190Y524505D02*
Y509270D01*
Y514348D01*
X98347Y524505D01*
X90729Y516888D01*
X98347Y509270D01*
X113582D02*
X103425D01*
X113582Y519427D01*
Y521966D01*
X111043Y524505D01*
X105964D01*
X103425Y521966D01*
X-10870Y524505D02*
Y509270D01*
Y514348D01*
X-713Y524505D01*
X-8331Y516888D01*
X-713Y509270D01*
X4365Y521966D02*
X6904Y524505D01*
X11983D01*
X14522Y521966D01*
Y519427D01*
X11983Y516888D01*
X9443D01*
X11983D01*
X14522Y514348D01*
Y511809D01*
X11983Y509270D01*
X6904D01*
X4365Y511809D01*
D46*
X1224406Y595024D02*
G03*
X1230406Y595024I3000J0D01*
G01*
X1301720Y85060D02*
Y113060D01*
X1301720Y85060D02*
X1329720D01*
Y113060D01*
X1301720Y113060D02*
X1329720D01*
X1357600Y852140D02*
Y880140D01*
X1357600Y852140D02*
X1385600D01*
Y880140D01*
X1357600Y880140D02*
X1385600D01*
X382240Y918180D02*
Y946180D01*
X382240Y918180D02*
X410240D01*
Y946180D01*
X382240Y946180D02*
X410240D01*
X41880Y915640D02*
Y943640D01*
X41880Y915640D02*
X69880D01*
Y943640D01*
X41880Y943640D02*
X69880D01*
X538940Y294960D02*
X659940D01*
X538940Y461960D02*
X659940D01*
X538940Y294960D02*
Y461960D01*
X659940Y294960D02*
Y461960D01*
X804400Y534480D02*
Y542480D01*
X658800Y11080D02*
Y19080D01*
X687720Y135540D02*
Y143540D01*
Y102520D02*
Y110520D01*
X1268660Y726180D02*
X1269160D01*
X1234160D02*
X1234660D01*
X1234160Y749680D02*
X1269160D01*
X1268660Y789180D02*
X1269160D01*
X1234160D02*
X1234660D01*
X1234160Y726180D02*
Y789180D01*
X1269160Y726180D02*
Y789180D01*
X803720Y564660D02*
X811720D01*
X742800Y806500D02*
X755800D01*
X646320Y574880D02*
X771320D01*
X646320Y699880D02*
X771320D01*
Y574880D02*
Y699880D01*
X646320Y574880D02*
Y699880D01*
X1127978Y636134D02*
X1173978D01*
X1173478Y659134D02*
X1173978D01*
X1127978D02*
X1128478D01*
X1173978Y583134D02*
Y659134D01*
X1127978Y583134D02*
Y659134D01*
Y583134D02*
X1128478D01*
X1173478D02*
X1173978D01*
X1074638Y636134D02*
X1120638D01*
X1120138Y659134D02*
X1120638D01*
X1074638D02*
X1075138D01*
X1120638Y583134D02*
Y659134D01*
X1074638Y583134D02*
Y659134D01*
Y583134D02*
X1075138D01*
X1120138D02*
X1120638D01*
X689580Y776300D02*
X697580D01*
X979020Y354940D02*
Y357940D01*
X1041020Y354940D02*
Y357940D01*
X979020Y319940D02*
Y322940D01*
X1041020Y319940D02*
Y322940D01*
X979020Y357940D02*
X1041020D01*
X979020Y319940D02*
X1041020D01*
X999700Y70060D02*
X1184700D01*
X999700Y255060D02*
X1184700D01*
Y70060D02*
Y255060D01*
X999700Y70060D02*
Y255060D01*
X585440Y734680D02*
X593440D01*
X1277340Y281460D02*
X1302740D01*
Y205260D02*
Y281460D01*
X1277340Y205260D02*
X1302740D01*
X1277340D02*
Y281460D01*
X1397268Y37324D02*
Y323074D01*
Y342124D01*
X1371868D02*
X1397268D01*
X1371868Y37324D02*
Y342124D01*
Y37324D02*
X1397268D01*
X-20160Y102710D02*
X52230D01*
X-20160Y32860D02*
X52230D01*
X-20160Y58260D02*
Y78580D01*
X52230Y58260D02*
Y78580D01*
X1331575Y-30074D02*
X1338324D01*
Y-18824D01*
Y4676D02*
Y15926D01*
X1331575D02*
X1338324D01*
X1261325D02*
X1268074D01*
X1261325Y4676D02*
Y15926D01*
Y-30074D02*
Y-18824D01*
Y-30074D02*
X1268074D01*
X1207298Y626534D02*
Y676534D01*
X1227298Y626534D02*
Y676534D01*
X1207298D02*
X1227298D01*
X1207298Y626534D02*
X1227298D01*
X1240490Y567211D02*
Y595202D01*
X1212499Y567211D02*
Y595202D01*
Y567211D02*
X1240490D01*
X1230406Y595202D02*
X1240490D01*
X1212499D02*
X1224310D01*
X868220Y294960D02*
Y461959D01*
X747220Y294960D02*
Y461959D01*
X868220D01*
X747220Y294960D02*
X868220D01*
X1307820Y205260D02*
Y281460D01*
Y205260D02*
X1333220D01*
Y281460D01*
X1307820D02*
X1333220D01*
X963201Y908900D02*
Y920900D01*
X947200Y908900D02*
Y920900D01*
Y908900D02*
X963201D01*
X951200Y942900D02*
X959200D01*
X963201Y927900D02*
Y937900D01*
X947200D02*
X951200Y942900D01*
X959200D02*
X963201Y937900D01*
X947200Y927900D02*
Y937900D01*
X1155240Y411100D02*
X1161240D01*
X1155240Y427100D02*
X1161240D01*
X1233980Y380620D02*
X1239980D01*
X1233980Y396620D02*
X1239980D01*
X1145920Y469440D02*
Y475440D01*
X1129920Y469440D02*
Y475440D01*
X1178940Y469440D02*
Y475440D01*
X1162940Y469440D02*
Y475440D01*
X1226560Y448420D02*
X1227060D01*
X1226560Y430420D02*
X1227060D01*
X1257060Y448420D02*
X1257560D01*
X1257060Y430420D02*
X1257560D01*
Y448420D01*
X1226560Y430420D02*
Y448420D01*
X1206880Y433880D02*
Y439880D01*
X1190880Y433880D02*
Y439880D01*
X1084218Y551814D02*
X1097718D01*
X1121218D02*
Y552314D01*
X1084218Y522814D02*
X1097718D01*
X1121218Y522314D02*
Y522814D01*
X1084218Y552314D02*
X1121218D01*
X1084218Y522314D02*
X1121218D01*
X592900Y549420D02*
X600900D01*
X542840Y529800D02*
X566840D01*
X542840Y579800D02*
X566840D01*
Y529800D02*
Y579800D01*
X542840Y529800D02*
Y579800D01*
X741779Y927160D02*
Y937160D01*
X753780Y942160D02*
X757780Y937160D01*
X741779D02*
X745780Y942160D01*
X757780Y927160D02*
Y937160D01*
X745780Y942160D02*
X753780D01*
X741779Y908160D02*
X757780D01*
X741779D02*
Y920160D01*
X757780Y908160D02*
Y920160D01*
X714980Y773760D02*
X722980D01*
X585440Y620380D02*
X593440D01*
X585440Y676260D02*
X593440D01*
X651480Y773760D02*
X659480D01*
X808960Y615300D02*
X816960D01*
X750200Y738260D02*
Y751760D01*
X749700Y775260D02*
X750200D01*
X779200Y738260D02*
Y751760D01*
Y775260D02*
X779700D01*
X749700Y738260D02*
Y775260D01*
X779700Y738260D02*
Y775260D01*
X570760Y749220D02*
Y762720D01*
Y725720D02*
X571260D01*
X541760Y749220D02*
Y762720D01*
X541260Y725720D02*
X541760D01*
X571260D02*
Y762720D01*
X541260Y725720D02*
Y762720D01*
X832540Y703340D02*
Y716840D01*
Y679840D02*
X833040D01*
X803540Y703340D02*
Y716840D01*
X803040Y679840D02*
X803540D01*
X833040D02*
Y716840D01*
X803040Y679840D02*
Y716840D01*
X789640Y756020D02*
X795640D01*
X375620Y70581D02*
X381620D01*
X375620Y86580D02*
X381620D01*
X144480Y29940D02*
X150480D01*
X144480Y45940D02*
X150480D01*
X93680Y29940D02*
X99680D01*
X93680Y45940D02*
X99680D01*
X324820Y86580D02*
X330820D01*
X324820Y70580D02*
X330820D01*
X144480Y70581D02*
X150480D01*
X144480Y86580D02*
X150480D01*
X375620Y29941D02*
X381620D01*
X375620Y45940D02*
X381620D01*
X93680Y86580D02*
X99680D01*
X93680Y70580D02*
X99680D01*
X375620Y-13240D02*
X381620D01*
X375620Y2761D02*
X381620D01*
X324820Y29941D02*
X330820D01*
X324820Y45940D02*
X330820D01*
X969200Y803680D02*
X989200D01*
X969200Y853680D02*
X989200D01*
Y803680D02*
Y853680D01*
X969200Y803680D02*
Y853680D01*
X895660Y744960D02*
X1009660D01*
X895660D02*
Y752460D01*
X1009660Y786460D02*
Y793960D01*
X895660D02*
X1009660D01*
X895660Y786460D02*
Y793960D01*
X1009660Y744960D02*
Y752460D01*
X897220Y642900D02*
Y697900D01*
X952220Y642900D02*
Y697900D01*
X897220D02*
X952220D01*
X897220Y642900D02*
X952220D01*
X1013540Y691460D02*
X1027040D01*
X990040Y690960D02*
Y691460D01*
X1013540Y720460D02*
X1027040D01*
X990040D02*
Y720960D01*
Y690960D02*
X1027040D01*
X990040Y720960D02*
X1027040D01*
X1043640Y662040D02*
X1049640D01*
X1020780D02*
X1026780D01*
X1071140Y739060D02*
Y752560D01*
Y715560D02*
X1071640D01*
X1042140Y739060D02*
Y752560D01*
X1041640Y715560D02*
X1042140D01*
X1071640D02*
Y752560D01*
X1041640Y715560D02*
Y752560D01*
X1226140Y726020D02*
Y789020D01*
X1191140Y726020D02*
Y789020D01*
X1191640D01*
X1225640D02*
X1226140D01*
X1191140Y749520D02*
X1226140D01*
X1191140Y726020D02*
X1191640D01*
X1225640D02*
X1226140D01*
X990760Y878680D02*
X1016160D01*
X990760D02*
Y954880D01*
X1016160D01*
Y878680D02*
Y954880D01*
X1246399Y-5160D02*
Y8340D01*
Y-28660D02*
X1246900D01*
X1217400Y-5160D02*
Y8340D01*
X1216899Y-28660D02*
X1217400D01*
X1246900D02*
Y8340D01*
X1216899Y-28660D02*
Y8340D01*
X496730Y58260D02*
Y78580D01*
X424340Y58260D02*
Y78580D01*
Y32860D02*
X496730D01*
X424340Y102710D02*
X496730D01*
X540380Y627320D02*
X543380D01*
X540380Y689320D02*
X543380D01*
X575380Y627320D02*
X578380D01*
X575380Y689320D02*
X578380D01*
X540380Y627320D02*
Y689320D01*
X578380Y627320D02*
Y689320D01*
X591980Y144620D02*
Y166210D01*
X815500Y-5240D02*
X1018700D01*
X815500Y-30640D02*
Y-5240D01*
Y-30640D02*
X1018700D01*
Y-5240D01*
X1086640Y750310D02*
X1153640D01*
X1086640Y717810D02*
X1153640D01*
X1086640D02*
Y750310D01*
X1153640Y717810D02*
Y750310D01*
X1055180Y798340D02*
X1063180D01*
X1128840D02*
X1136840D01*
X562262Y885760D02*
Y980788D01*
Y796892D02*
Y851280D01*
Y796892D02*
X720758D01*
Y851280D01*
Y885760D02*
Y980788D01*
X562262D02*
X720758D01*
X795780Y816640D02*
Y854840D01*
Y816640D02*
X916180D01*
Y854840D01*
Y900840D02*
Y980640D01*
X795780D02*
X916180D01*
X795780Y900840D02*
Y980640D01*
X124240Y940600D02*
Y950600D01*
X136240Y955600D02*
X140240Y950600D01*
X124240D02*
X128240Y955600D01*
X140240Y940600D02*
Y950600D01*
X128240Y955600D02*
X136240D01*
X124240Y921600D02*
X140240D01*
X124240D02*
Y933600D01*
X140240Y921600D02*
Y933600D01*
X353600Y921600D02*
Y933600D01*
X337600Y921600D02*
Y933600D01*
Y921600D02*
X353600D01*
X341600Y955600D02*
X349600D01*
X353600Y940600D02*
Y950600D01*
X337600D02*
X341600Y955600D01*
X349600D02*
X353600Y950600D01*
X337600Y940600D02*
Y950600D01*
X279940Y921600D02*
Y933600D01*
X263940Y921600D02*
Y933600D01*
Y921600D02*
X279940D01*
X267940Y955600D02*
X275940D01*
X279940Y940600D02*
Y950600D01*
X263940D02*
X267940Y955600D01*
X275940D02*
X279940Y950600D01*
X263940Y940600D02*
Y950600D01*
X211360Y921600D02*
Y933600D01*
X195360Y921600D02*
Y933600D01*
Y921600D02*
X211360D01*
X199360Y955600D02*
X207360D01*
X211360Y940600D02*
Y950600D01*
X195360D02*
X199360Y955600D01*
X207360D02*
X211360Y950600D01*
X195360Y940600D02*
Y950600D01*
X1133130Y854450D02*
Y961450D01*
X1194830Y854450D02*
Y961450D01*
X1108470Y854450D02*
Y961450D01*
X1046770Y854450D02*
Y961450D01*
X1299780Y834280D02*
X1322780D01*
Y980281D01*
X1232780D02*
X1322780D01*
X1232780Y834280D02*
X1255780D01*
X1232780D02*
Y853280D01*
Y897280D02*
Y980281D01*
X1018700Y-30640D02*
Y-5240D01*
X815500Y-30640D02*
X1018700D01*
X815500D02*
Y-5240D01*
X1018700D01*
X1161860Y768840D02*
X1169860D01*
X105380Y8920D02*
X133380D01*
X133380Y-19080D02*
Y8920D01*
X105380Y-19080D02*
X133380D01*
X105380Y-19080D02*
Y8920D01*
D47*
X1257810Y452420D02*
G03*
X1257810Y452420I-500J0D01*
G01*
X76900Y106520D02*
X80900D01*
X78900Y104520D02*
Y108520D01*
X953200Y924400D02*
X957200D01*
X955200Y922400D02*
Y926400D01*
X749780Y921660D02*
Y925660D01*
X747780Y923660D02*
X751780D01*
X132240Y935100D02*
Y939100D01*
X130240Y937100D02*
X134240D01*
X343600D02*
X347600D01*
X345600Y935100D02*
Y939100D01*
X269940Y937100D02*
X273940D01*
X271940Y935100D02*
Y939100D01*
X201360Y937100D02*
X205360D01*
X203360Y935100D02*
Y939100D01*
D48*
X1265280Y843280D02*
X1290280D01*
X1227780Y865281D02*
Y885280D01*
X1267780Y905280D02*
X1287780D01*
D108*
X1316970Y119560D02*
G03*
X1316970Y119560I-1250J0D01*
G01*
X1372850Y886640D02*
G03*
X1372850Y886640I-1250J0D01*
G01*
X397490Y952680D02*
G03*
X397490Y952680I-1250J0D01*
G01*
X57130Y950140D02*
G03*
X57130Y950140I-1250J0D01*
G01*
X536190Y282460D02*
G03*
X536190Y282460I-1250J0D01*
G01*
X1235410Y719680D02*
G03*
X1235410Y719680I-1250J0D01*
G01*
X634570Y704380D02*
G03*
X634570Y704380I-1250J0D01*
G01*
X1175228Y665634D02*
G03*
X1175228Y665634I-1250J0D01*
G01*
X1121888D02*
G03*
X1121888Y665634I-1250J0D01*
G01*
X987950Y257060D02*
G03*
X987950Y257060I-1250J0D01*
G01*
X1276074Y-37574D02*
G03*
X1276074Y-37574I-1250J0D01*
G01*
X1195048Y679084D02*
G03*
X1195048Y679084I-1250J0D01*
G01*
X1207831Y598689D02*
G03*
X1207831Y598689I-1250J0D01*
G01*
X744470Y282460D02*
G03*
X744470Y282460I-1250J0D01*
G01*
X1076968Y552314D02*
G03*
X1076968Y552314I-1250J0D01*
G01*
X531590Y582350D02*
G03*
X531590Y582350I-1250J0D01*
G01*
X750950Y729760D02*
G03*
X750950Y729760I-1250J0D01*
G01*
X572510Y771220D02*
G03*
X572510Y771220I-1250J0D01*
G01*
X834290Y725340D02*
G03*
X834290Y725340I-1250J0D01*
G01*
X954950Y856730D02*
G03*
X954950Y856730I-1250J0D01*
G01*
X1001410Y785460D02*
G03*
X1001410Y785460I-1250J0D01*
G01*
X885470Y704900D02*
G03*
X885470Y704900I-1250J0D01*
G01*
X1036790Y690960D02*
G03*
X1036790Y690960I-1250J0D01*
G01*
X1072890Y761060D02*
G03*
X1072890Y761060I-1250J0D01*
G01*
X1192390Y719520D02*
G03*
X1192390Y719520I-1250J0D01*
G01*
X1248150Y16840D02*
G03*
X1248150Y16840I-1250J0D01*
G01*
X1098390Y686810D02*
G03*
X1098390Y686810I-1250J0D01*
G01*
X844730Y810140D02*
G03*
X844730Y810140I-1250J0D01*
G01*
X1142380Y879950D02*
G03*
X1142380Y879950I-1250J0D01*
G01*
X1056020D02*
G03*
X1056020Y879950I-1250J0D01*
G01*
X120630Y15420D02*
G03*
X120630Y15420I-1250J0D01*
G01*
D109*
X551940Y304960D02*
G03*
X551940Y304960I-3000J0D01*
G01*
X659320Y689880D02*
G03*
X659320Y689880I-3000J0D01*
G01*
X1012700Y245060D02*
G03*
X1012700Y245060I-3000J0D01*
G01*
X760220Y304960D02*
G03*
X760220Y304960I-3000J0D01*
G01*
X910220Y687900D02*
G03*
X910220Y687900I-3000J0D01*
G01*
D110*
X1292460Y788000D02*
Y790540D01*
X1381360D01*
Y788000D02*
Y790540D01*
Y713070D02*
Y715610D01*
X1292206Y713070D02*
X1381360D01*
X1292206D02*
Y715610D01*
X113103Y-28780D02*
X111410Y-27087D01*
X108025D01*
X106332Y-28780D01*
Y-35551D01*
X108025Y-37244D01*
X111410D01*
X113103Y-35551D01*
Y-32166D01*
X109718D01*
X116489Y-37244D02*
Y-27087D01*
X123260Y-37244D01*
Y-27087D01*
X126645D02*
Y-37244D01*
X131724D01*
X133417Y-35551D01*
Y-28780D01*
X131724Y-27087D01*
X126645D01*
X76000Y-7460D02*
Y2697D01*
X81078D01*
X82771Y1004D01*
Y-2382D01*
X81078Y-4074D01*
X76000D01*
X86157Y-5767D02*
X87850Y-7460D01*
X91235D01*
X92928Y-5767D01*
Y1004D01*
X91235Y2697D01*
X87850D01*
X86157Y1004D01*
Y-689D01*
X87850Y-2382D01*
X92928D01*
X42832Y905940D02*
X44525Y907633D01*
X47910D01*
X49603Y905940D01*
Y904247D01*
X47910Y902554D01*
X46218D01*
X47910D01*
X49603Y900862D01*
Y899169D01*
X47910Y897476D01*
X44525D01*
X42832Y899169D01*
X52989Y897476D02*
Y899169D01*
X54682D01*
Y897476D01*
X52989D01*
X61453Y905940D02*
X63145Y907633D01*
X66531D01*
X68224Y905940D01*
Y904247D01*
X66531Y902554D01*
X64838D01*
X66531D01*
X68224Y900862D01*
Y899169D01*
X66531Y897476D01*
X63145D01*
X61453Y899169D01*
X71609Y907633D02*
Y900862D01*
X74995Y897476D01*
X78380Y900862D01*
Y907633D01*
X42832Y959706D02*
Y969863D01*
X47910D01*
X49603Y968170D01*
Y964784D01*
X47910Y963092D01*
X42832D01*
X52989Y959706D02*
X56374D01*
X54682D01*
Y969863D01*
X52989Y968170D01*
X1309443Y75360D02*
X1307750Y77053D01*
X1304365D01*
X1302672Y75360D01*
Y68589D01*
X1304365Y66896D01*
X1307750D01*
X1309443Y68589D01*
Y71974D01*
X1306058D01*
X1312829Y66896D02*
Y77053D01*
X1319600Y66896D01*
Y77053D01*
X1322985D02*
Y66896D01*
X1328064D01*
X1329757Y68589D01*
Y75360D01*
X1328064Y77053D01*
X1322985D01*
X1280000Y94000D02*
Y104157D01*
X1285078D01*
X1286771Y102464D01*
Y99078D01*
X1285078Y97386D01*
X1280000D01*
X1290157Y104157D02*
X1296928D01*
Y102464D01*
X1290157Y95693D01*
Y94000D01*
X1358552Y842440D02*
X1360245Y844133D01*
X1363630D01*
X1365323Y842440D01*
Y840747D01*
X1363630Y839054D01*
X1361938D01*
X1363630D01*
X1365323Y837362D01*
Y835669D01*
X1363630Y833976D01*
X1360245D01*
X1358552Y835669D01*
X1368709Y833976D02*
Y835669D01*
X1370401D01*
Y833976D01*
X1368709D01*
X1377173Y842440D02*
X1378865Y844133D01*
X1382251D01*
X1383944Y842440D01*
Y840747D01*
X1382251Y839054D01*
X1380558D01*
X1382251D01*
X1383944Y837362D01*
Y835669D01*
X1382251Y833976D01*
X1378865D01*
X1377173Y835669D01*
X1387329Y844133D02*
Y837362D01*
X1390715Y833976D01*
X1394100Y837362D01*
Y844133D01*
X1358552Y896206D02*
Y906363D01*
X1363630D01*
X1365323Y904670D01*
Y901284D01*
X1363630Y899592D01*
X1358552D01*
X1373787Y896206D02*
Y906363D01*
X1368709Y901284D01*
X1375480D01*
X389963Y908480D02*
X388270Y910173D01*
X384885D01*
X383192Y908480D01*
Y901709D01*
X384885Y900016D01*
X388270D01*
X389963Y901709D01*
Y905094D01*
X386578D01*
X393349Y900016D02*
Y910173D01*
X400120Y900016D01*
Y910173D01*
X403505D02*
Y900016D01*
X408584D01*
X410277Y901709D01*
Y908480D01*
X408584Y910173D01*
X403505D01*
X383192Y962246D02*
Y972403D01*
X388270D01*
X389963Y970710D01*
Y967324D01*
X388270Y965632D01*
X383192D01*
X400120Y962246D02*
X393349D01*
X400120Y969017D01*
Y970710D01*
X398427Y972403D01*
X395042D01*
X393349Y970710D01*
X664537Y128192D02*
X662844Y129885D01*
X659459D01*
X657766Y128192D01*
Y121421D01*
X659459Y119728D01*
X662844D01*
X664537Y121421D01*
X673001Y119728D02*
Y129885D01*
X667923Y124806D01*
X674694D01*
X678079Y119728D02*
X681465D01*
X679772D01*
Y129885D01*
X678079Y128192D01*
X664537Y161212D02*
X662844Y162905D01*
X659459D01*
X657766Y161212D01*
Y154441D01*
X659459Y152748D01*
X662844D01*
X664537Y154441D01*
X673001Y152748D02*
Y162905D01*
X667923Y157826D01*
X674694D01*
X678079Y161212D02*
X679772Y162905D01*
X683158D01*
X684851Y161212D01*
Y154441D01*
X683158Y152748D01*
X679772D01*
X678079Y154441D01*
Y161212D01*
X666569Y36752D02*
X664876Y38445D01*
X661491D01*
X659798Y36752D01*
Y29981D01*
X661491Y28288D01*
X664876D01*
X666569Y29981D01*
X675033Y28288D02*
Y38445D01*
X669955Y33366D01*
X676726D01*
X686883Y28288D02*
X680111D01*
X686883Y35059D01*
Y36752D01*
X685190Y38445D01*
X681804D01*
X680111Y36752D01*
X1240397Y812372D02*
X1238704Y814065D01*
X1235319D01*
X1233626Y812372D01*
Y805601D01*
X1235319Y803908D01*
X1238704D01*
X1240397Y805601D01*
X1243783Y803908D02*
X1247168D01*
X1245475D01*
Y814065D01*
X1243783Y812372D01*
X1252247D02*
X1253940Y814065D01*
X1257325D01*
X1259018Y812372D01*
Y810679D01*
X1257325Y808986D01*
X1259018Y807294D01*
Y805601D01*
X1257325Y803908D01*
X1253940D01*
X1252247Y805601D01*
Y807294D01*
X1253940Y808986D01*
X1252247Y810679D01*
Y812372D01*
X1253940Y808986D02*
X1257325D01*
X848687Y744142D02*
X846994Y745835D01*
X843609D01*
X841916Y744142D01*
Y737371D01*
X843609Y735678D01*
X846994D01*
X848687Y737371D01*
X852073Y735678D02*
X855458D01*
X853765D01*
Y745835D01*
X852073Y744142D01*
X860537Y737371D02*
X862229Y735678D01*
X865615D01*
X867308Y737371D01*
Y744142D01*
X865615Y745835D01*
X862229D01*
X860537Y744142D01*
Y742449D01*
X862229Y740756D01*
X867308D01*
X820747Y799514D02*
X819054Y801207D01*
X815669D01*
X813976Y799514D01*
Y792743D01*
X815669Y791050D01*
X819054D01*
X820747Y792743D01*
X824133Y791050D02*
X827518D01*
X825826D01*
Y801207D01*
X824133Y799514D01*
X832597D02*
X834289Y801207D01*
X837675D01*
X839368Y799514D01*
Y792743D01*
X837675Y791050D01*
X834289D01*
X832597Y792743D01*
Y799514D01*
X848687Y685722D02*
X846994Y687415D01*
X843609D01*
X841916Y685722D01*
Y678951D01*
X843609Y677258D01*
X846994D01*
X848687Y678951D01*
X858844Y677258D02*
X852073D01*
X858844Y684029D01*
Y685722D01*
X857151Y687415D01*
X853765D01*
X852073Y685722D01*
X862229D02*
X863922Y687415D01*
X867308D01*
X869001Y685722D01*
Y684029D01*
X867308Y682336D01*
X865615D01*
X867308D01*
X869001Y680644D01*
Y678951D01*
X867308Y677258D01*
X863922D01*
X862229Y678951D01*
X592147Y782242D02*
X590454Y783935D01*
X587069D01*
X585376Y782242D01*
Y775471D01*
X587069Y773778D01*
X590454D01*
X592147Y775471D01*
X595533Y783935D02*
X602304D01*
Y782242D01*
X595533Y775471D01*
Y773778D01*
X812071Y608624D02*
X810378Y610317D01*
X806993D01*
X805300Y608624D01*
Y601853D01*
X806993Y600160D01*
X810378D01*
X812071Y601853D01*
X815457Y608624D02*
X817150Y610317D01*
X820535D01*
X822228Y608624D01*
Y606931D01*
X820535Y605238D01*
X818842D01*
X820535D01*
X822228Y603546D01*
Y601853D01*
X820535Y600160D01*
X817150D01*
X815457Y601853D01*
X825613Y600160D02*
X828999D01*
X827306D01*
Y610317D01*
X825613Y608624D01*
X753151Y854624D02*
X751458Y856317D01*
X748073D01*
X746380Y854624D01*
Y847853D01*
X748073Y846160D01*
X751458D01*
X753151Y847853D01*
X756537Y846160D02*
X759922D01*
X758230D01*
Y856317D01*
X756537Y854624D01*
X1197377Y812212D02*
X1195684Y813905D01*
X1192299D01*
X1190606Y812212D01*
Y805441D01*
X1192299Y803748D01*
X1195684D01*
X1197377Y805441D01*
X1200763Y803748D02*
X1204148D01*
X1202456D01*
Y813905D01*
X1200763Y812212D01*
X1209227Y813905D02*
X1215998D01*
Y812212D01*
X1209227Y805441D01*
Y803748D01*
X1178707Y842918D02*
X1177014Y844610D01*
X1173629D01*
X1171936Y842918D01*
Y836146D01*
X1173629Y834454D01*
X1177014D01*
X1178707Y836146D01*
X1188864Y844610D02*
X1185478Y842918D01*
X1182093Y839532D01*
Y836146D01*
X1183785Y834454D01*
X1187171D01*
X1188864Y836146D01*
Y837839D01*
X1187171Y839532D01*
X1182093D01*
X1160771Y786464D02*
X1159078Y788157D01*
X1155693D01*
X1154000Y786464D01*
Y779693D01*
X1155693Y778000D01*
X1159078D01*
X1160771Y779693D01*
X1164157Y778000D02*
X1167542D01*
X1165850D01*
Y788157D01*
X1164157Y786464D01*
X1179392Y778000D02*
X1172621D01*
X1179392Y784771D01*
Y786464D01*
X1177699Y788157D01*
X1174314D01*
X1172621Y786464D01*
X1097607Y843036D02*
X1095914Y844728D01*
X1092529D01*
X1090836Y843036D01*
Y836264D01*
X1092529Y834572D01*
X1095914D01*
X1097607Y836264D01*
X1106071Y834572D02*
Y844728D01*
X1100993Y839650D01*
X1107764D01*
X1049347Y779194D02*
X1047654Y780887D01*
X1044269D01*
X1042576Y779194D01*
Y772423D01*
X1044269Y770730D01*
X1047654D01*
X1049347Y772423D01*
X1052733Y770730D02*
X1056118D01*
X1054426D01*
Y780887D01*
X1052733Y779194D01*
X1067968Y780887D02*
X1064582Y779194D01*
X1061197Y775808D01*
Y772423D01*
X1062889Y770730D01*
X1066275D01*
X1067968Y772423D01*
Y774116D01*
X1066275Y775808D01*
X1061197D01*
X969083Y610792D02*
X967390Y612485D01*
X964005D01*
X962312Y610792D01*
Y604021D01*
X964005Y602328D01*
X967390D01*
X969083Y604021D01*
X972469Y610792D02*
X974162Y612485D01*
X977547D01*
X979240Y610792D01*
Y609099D01*
X977547Y607406D01*
X975854D01*
X977547D01*
X979240Y605714D01*
Y604021D01*
X977547Y602328D01*
X974162D01*
X972469Y604021D01*
X982625Y610792D02*
X984318Y612485D01*
X987704D01*
X989397Y610792D01*
Y604021D01*
X987704Y602328D01*
X984318D01*
X982625Y604021D01*
Y610792D01*
X991435Y737538D02*
X989742Y739231D01*
X986357D01*
X984664Y737538D01*
Y730767D01*
X986357Y729074D01*
X989742D01*
X991435Y730767D01*
X1001592Y729074D02*
X994821D01*
X1001592Y735845D01*
Y737538D01*
X999899Y739231D01*
X996514D01*
X994821Y737538D01*
X1004977D02*
X1006670Y739231D01*
X1010056D01*
X1011749Y737538D01*
Y730767D01*
X1010056Y729074D01*
X1006670D01*
X1004977Y730767D01*
Y737538D01*
X993467Y678102D02*
X991774Y679795D01*
X988389D01*
X986696Y678102D01*
Y671331D01*
X988389Y669638D01*
X991774D01*
X993467Y671331D01*
X1003624Y669638D02*
X996853D01*
X1003624Y676409D01*
Y678102D01*
X1001931Y679795D01*
X998546D01*
X996853Y678102D01*
X1012088Y669638D02*
Y679795D01*
X1007009Y674716D01*
X1013781D01*
X923617Y610792D02*
X921924Y612485D01*
X918539D01*
X916846Y610792D01*
Y604021D01*
X918539Y602328D01*
X921924D01*
X923617Y604021D01*
X933774Y602328D02*
X927003D01*
X933774Y609099D01*
Y610792D01*
X932081Y612485D01*
X928696D01*
X927003Y610792D01*
X937159Y604021D02*
X938852Y602328D01*
X942238D01*
X943931Y604021D01*
Y610792D01*
X942238Y612485D01*
X938852D01*
X937159Y610792D01*
Y609099D01*
X938852Y607406D01*
X943931D01*
X923617Y575232D02*
X921924Y576925D01*
X918539D01*
X916846Y575232D01*
Y568461D01*
X918539Y566768D01*
X921924D01*
X923617Y568461D01*
X927003Y575232D02*
X928696Y576925D01*
X932081D01*
X933774Y575232D01*
Y573539D01*
X932081Y571846D01*
X930388D01*
X932081D01*
X933774Y570154D01*
Y568461D01*
X932081Y566768D01*
X928696D01*
X927003Y568461D01*
X943931Y576925D02*
X940545Y575232D01*
X937159Y571846D01*
Y568461D01*
X938852Y566768D01*
X942238D01*
X943931Y568461D01*
Y570154D01*
X942238Y571846D01*
X937159D01*
X877897Y610792D02*
X876204Y612485D01*
X872819D01*
X871126Y610792D01*
Y604021D01*
X872819Y602328D01*
X876204D01*
X877897Y604021D01*
X888054Y602328D02*
X881283D01*
X888054Y609099D01*
Y610792D01*
X886361Y612485D01*
X882975D01*
X881283Y610792D01*
X891439D02*
X893132Y612485D01*
X896518D01*
X898211Y610792D01*
Y609099D01*
X896518Y607406D01*
X898211Y605714D01*
Y604021D01*
X896518Y602328D01*
X893132D01*
X891439Y604021D01*
Y605714D01*
X893132Y607406D01*
X891439Y609099D01*
Y610792D01*
X893132Y607406D02*
X896518D01*
X853767Y799514D02*
X852074Y801207D01*
X848689D01*
X846996Y799514D01*
Y792743D01*
X848689Y791050D01*
X852074D01*
X853767Y792743D01*
X857153Y791050D02*
X860538D01*
X858846D01*
Y801207D01*
X857153Y799514D01*
X865617Y791050D02*
X869002D01*
X867309D01*
Y801207D01*
X865617Y799514D01*
X848687Y634922D02*
X846994Y636615D01*
X843609D01*
X841916Y634922D01*
Y628151D01*
X843609Y626458D01*
X846994D01*
X848687Y628151D01*
X858844Y626458D02*
X852073D01*
X858844Y633229D01*
Y634922D01*
X857151Y636615D01*
X853765D01*
X852073Y634922D01*
X862229Y636615D02*
X869001D01*
Y634922D01*
X862229Y628151D01*
Y626458D01*
X1030167Y846542D02*
X1028474Y848235D01*
X1025089D01*
X1023396Y846542D01*
Y839771D01*
X1025089Y838078D01*
X1028474D01*
X1030167Y839771D01*
X1040324Y838078D02*
X1033553D01*
X1040324Y844849D01*
Y846542D01*
X1038631Y848235D01*
X1035246D01*
X1033553Y846542D01*
X549061Y789260D02*
X547368Y790953D01*
X543983D01*
X542290Y789260D01*
Y782489D01*
X543983Y780796D01*
X547368D01*
X549061Y782489D01*
X552447Y780796D02*
X555832D01*
X554140D01*
Y790953D01*
X552447Y789260D01*
X560911D02*
X562603Y790953D01*
X565989D01*
X567682Y789260D01*
Y787567D01*
X565989Y785874D01*
X564296D01*
X565989D01*
X567682Y784182D01*
Y782489D01*
X565989Y780796D01*
X562603D01*
X560911Y782489D01*
X810841Y743380D02*
X809148Y745073D01*
X805763D01*
X804070Y743380D01*
Y736609D01*
X805763Y734916D01*
X809148D01*
X810841Y736609D01*
X820998Y734916D02*
X814227D01*
X820998Y741687D01*
Y743380D01*
X819305Y745073D01*
X815919D01*
X814227Y743380D01*
X831155Y734916D02*
X824383D01*
X831155Y741687D01*
Y743380D01*
X829462Y745073D01*
X826076D01*
X824383Y743380D01*
X721687Y790370D02*
X719994Y792063D01*
X716609D01*
X714916Y790370D01*
Y783599D01*
X716609Y781906D01*
X719994D01*
X721687Y783599D01*
X725073D02*
X726766Y781906D01*
X730151D01*
X731844Y783599D01*
Y790370D01*
X730151Y792063D01*
X726766D01*
X725073Y790370D01*
Y788677D01*
X726766Y786984D01*
X731844D01*
X687905Y736776D02*
X686212Y738469D01*
X682827D01*
X681134Y736776D01*
Y730005D01*
X682827Y728312D01*
X686212D01*
X687905Y730005D01*
X691291Y728312D02*
X694676D01*
X692983D01*
Y738469D01*
X691291Y736776D01*
X704833Y728312D02*
Y738469D01*
X699755Y733390D01*
X706526D01*
X592147Y667942D02*
X590454Y669635D01*
X587069D01*
X585376Y667942D01*
Y661171D01*
X587069Y659478D01*
X590454D01*
X592147Y661171D01*
X602304Y659478D02*
X595533D01*
X602304Y666249D01*
Y667942D01*
X600611Y669635D01*
X597225D01*
X595533Y667942D01*
X612461Y669635D02*
X605689D01*
Y664556D01*
X609075Y666249D01*
X610768D01*
X612461Y664556D01*
Y661171D01*
X610768Y659478D01*
X607382D01*
X605689Y661171D01*
X592147Y723822D02*
X590454Y725515D01*
X587069D01*
X585376Y723822D01*
Y717051D01*
X587069Y715358D01*
X590454D01*
X592147Y717051D01*
X602304Y715358D02*
X595533D01*
X602304Y722129D01*
Y723822D01*
X600611Y725515D01*
X597225D01*
X595533Y723822D01*
X605689Y715358D02*
X609075D01*
X607382D01*
Y725515D01*
X605689Y723822D01*
X658187Y790370D02*
X656494Y792063D01*
X653109D01*
X651416Y790370D01*
Y783599D01*
X653109Y781906D01*
X656494D01*
X658187Y783599D01*
X661573Y790370D02*
X663266Y792063D01*
X666651D01*
X668344Y790370D01*
Y788677D01*
X666651Y786984D01*
X668344Y785292D01*
Y783599D01*
X666651Y781906D01*
X663266D01*
X661573Y783599D01*
Y785292D01*
X663266Y786984D01*
X661573Y788677D01*
Y790370D01*
X663266Y786984D02*
X666651D01*
X815667Y662862D02*
X813974Y664555D01*
X810589D01*
X808896Y662862D01*
Y656091D01*
X810589Y654398D01*
X813974D01*
X815667Y656091D01*
X825824Y654398D02*
X819053D01*
X825824Y661169D01*
Y662862D01*
X824131Y664555D01*
X820745D01*
X819053Y662862D01*
X835981Y664555D02*
X832595Y662862D01*
X829209Y659476D01*
Y656091D01*
X830902Y654398D01*
X834288D01*
X835981Y656091D01*
Y657784D01*
X834288Y659476D01*
X829209D01*
X780611Y557544D02*
X778918Y559237D01*
X775533D01*
X773840Y557544D01*
Y550773D01*
X775533Y549080D01*
X778918D01*
X780611Y550773D01*
X783997Y557544D02*
X785689Y559237D01*
X789075D01*
X790768Y557544D01*
Y555851D01*
X789075Y554158D01*
X787382D01*
X789075D01*
X790768Y552466D01*
Y550773D01*
X789075Y549080D01*
X785689D01*
X783997Y550773D01*
X800925Y559237D02*
X794154D01*
Y554158D01*
X797539Y555851D01*
X799232D01*
X800925Y554158D01*
Y550773D01*
X799232Y549080D01*
X795846D01*
X794154Y550773D01*
X755977Y798244D02*
X754284Y799937D01*
X750899D01*
X749206Y798244D01*
Y791473D01*
X750899Y789780D01*
X754284D01*
X755977Y791473D01*
X759363Y789780D02*
X762748D01*
X761056D01*
Y799937D01*
X759363Y798244D01*
X774598Y799937D02*
X767827D01*
Y794858D01*
X771212Y796551D01*
X772905D01*
X774598Y794858D01*
Y791473D01*
X772905Y789780D01*
X769519D01*
X767827Y791473D01*
X599607Y596982D02*
X597914Y598675D01*
X594529D01*
X592836Y596982D01*
Y590211D01*
X594529Y588518D01*
X597914D01*
X599607Y590211D01*
X602993Y596982D02*
X604686Y598675D01*
X608071D01*
X609764Y596982D01*
Y595289D01*
X608071Y593596D01*
X606378D01*
X608071D01*
X609764Y591904D01*
Y590211D01*
X608071Y588518D01*
X604686D01*
X602993Y590211D01*
X618228Y588518D02*
Y598675D01*
X613149Y593596D01*
X619921D01*
X1082057Y570416D02*
X1080364Y572109D01*
X1076979D01*
X1075286Y570416D01*
Y563645D01*
X1076979Y561952D01*
X1080364D01*
X1082057Y563645D01*
X1085443Y570416D02*
X1087135Y572109D01*
X1090521D01*
X1092214Y570416D01*
Y568723D01*
X1090521Y567030D01*
X1088828D01*
X1090521D01*
X1092214Y565338D01*
Y563645D01*
X1090521Y561952D01*
X1087135D01*
X1085443Y563645D01*
X1095599Y572109D02*
X1102371D01*
Y570416D01*
X1095599Y563645D01*
Y561952D01*
X1146171Y677506D02*
X1144478Y679199D01*
X1141093D01*
X1139400Y677506D01*
Y670735D01*
X1141093Y669042D01*
X1144478D01*
X1146171Y670735D01*
X1149557Y677506D02*
X1151249Y679199D01*
X1154635D01*
X1156328Y677506D01*
Y675813D01*
X1154635Y674120D01*
X1152942D01*
X1154635D01*
X1156328Y672428D01*
Y670735D01*
X1154635Y669042D01*
X1151249D01*
X1149557Y670735D01*
X1159713Y677506D02*
X1161406Y679199D01*
X1164792D01*
X1166485Y677506D01*
Y675813D01*
X1164792Y674120D01*
X1163099D01*
X1164792D01*
X1166485Y672428D01*
Y670735D01*
X1164792Y669042D01*
X1161406D01*
X1159713Y670735D01*
X1140985Y569908D02*
X1139292Y571601D01*
X1135907D01*
X1134214Y569908D01*
Y563137D01*
X1135907Y561444D01*
X1139292D01*
X1140985Y563137D01*
X1144371Y569908D02*
X1146064Y571601D01*
X1149449D01*
X1151142Y569908D01*
Y568215D01*
X1149449Y566522D01*
X1147756D01*
X1149449D01*
X1151142Y564830D01*
Y563137D01*
X1149449Y561444D01*
X1146064D01*
X1144371Y563137D01*
X1154527Y569908D02*
X1156220Y571601D01*
X1159606D01*
X1161299Y569908D01*
Y568215D01*
X1159606Y566522D01*
X1161299Y564830D01*
Y563137D01*
X1159606Y561444D01*
X1156220D01*
X1154527Y563137D01*
Y564830D01*
X1156220Y566522D01*
X1154527Y568215D01*
Y569908D01*
X1156220Y566522D02*
X1159606D01*
X1094171Y677506D02*
X1092478Y679199D01*
X1089093D01*
X1087400Y677506D01*
Y670735D01*
X1089093Y669042D01*
X1092478D01*
X1094171Y670735D01*
X1097557Y677506D02*
X1099249Y679199D01*
X1102635D01*
X1104328Y677506D01*
Y675813D01*
X1102635Y674120D01*
X1100942D01*
X1102635D01*
X1104328Y672428D01*
Y670735D01*
X1102635Y669042D01*
X1099249D01*
X1097557Y670735D01*
X1114485Y669042D02*
X1107713D01*
X1114485Y675813D01*
Y677506D01*
X1112792Y679199D01*
X1109406D01*
X1107713Y677506D01*
X1175051Y569784D02*
X1173358Y571477D01*
X1169973D01*
X1168280Y569784D01*
Y563013D01*
X1169973Y561320D01*
X1173358D01*
X1175051Y563013D01*
X1178437Y569784D02*
X1180129Y571477D01*
X1183515D01*
X1185208Y569784D01*
Y568091D01*
X1183515Y566398D01*
X1181822D01*
X1183515D01*
X1185208Y564706D01*
Y563013D01*
X1183515Y561320D01*
X1180129D01*
X1178437Y563013D01*
X1188594D02*
X1190286Y561320D01*
X1193672D01*
X1195365Y563013D01*
Y569784D01*
X1193672Y571477D01*
X1190286D01*
X1188594Y569784D01*
Y568091D01*
X1190286Y566398D01*
X1195365D01*
X1135707Y845996D02*
X1134014Y847689D01*
X1130629D01*
X1128936Y845996D01*
Y839225D01*
X1130629Y837532D01*
X1134014D01*
X1135707Y839225D01*
X1145864Y847689D02*
X1139093D01*
Y842610D01*
X1142478Y844303D01*
X1144171D01*
X1145864Y842610D01*
Y839225D01*
X1144171Y837532D01*
X1140786D01*
X1139093Y839225D01*
X948342Y961227D02*
Y951070D01*
X953420D01*
X955113Y952763D01*
Y959534D01*
X953420Y961227D01*
X948342D01*
X965270D02*
X961884Y959534D01*
X958499Y956148D01*
Y952763D01*
X960191Y951070D01*
X963577D01*
X965270Y952763D01*
Y954456D01*
X963577Y956148D01*
X958499D01*
X1282554Y808825D02*
Y798668D01*
X1287632D01*
X1289325Y800361D01*
Y807132D01*
X1287632Y808825D01*
X1282554D01*
X1292711D02*
X1299482D01*
Y807132D01*
X1292711Y800361D01*
Y798668D01*
X99220Y943701D02*
Y933544D01*
X104298D01*
X105991Y935237D01*
Y942008D01*
X104298Y943701D01*
X99220D01*
X109377Y933544D02*
X112762D01*
X111069D01*
Y943701D01*
X109377Y942008D01*
X170340Y943701D02*
Y933544D01*
X175418D01*
X177111Y935237D01*
Y942008D01*
X175418Y943701D01*
X170340D01*
X187268Y933544D02*
X180497D01*
X187268Y940315D01*
Y942008D01*
X185575Y943701D01*
X182190D01*
X180497Y942008D01*
X238920Y943701D02*
Y933544D01*
X243998D01*
X245691Y935237D01*
Y942008D01*
X243998Y943701D01*
X238920D01*
X249077Y942008D02*
X250770Y943701D01*
X254155D01*
X255848Y942008D01*
Y940315D01*
X254155Y938622D01*
X252462D01*
X254155D01*
X255848Y936930D01*
Y935237D01*
X254155Y933544D01*
X250770D01*
X249077Y935237D01*
X312580Y943701D02*
Y933544D01*
X317658D01*
X319351Y935237D01*
Y942008D01*
X317658Y943701D01*
X312580D01*
X327815Y933544D02*
Y943701D01*
X322737Y938622D01*
X329508D01*
X742922Y960487D02*
Y950330D01*
X748000D01*
X749693Y952023D01*
Y958794D01*
X748000Y960487D01*
X742922D01*
X759850D02*
X753079D01*
Y955408D01*
X756464Y957101D01*
X758157D01*
X759850Y955408D01*
Y952023D01*
X758157Y950330D01*
X754771D01*
X753079Y952023D01*
X1334771Y970157D02*
X1331386D01*
X1333078D01*
Y961693D01*
X1331386Y960000D01*
X1329693D01*
X1328000Y961693D01*
X1338157Y960000D02*
X1341542D01*
X1339850D01*
Y970157D01*
X1338157Y968464D01*
X780771Y972157D02*
X777386D01*
X779078D01*
Y963693D01*
X777386Y962000D01*
X775693D01*
X774000Y963693D01*
X784157Y970464D02*
X785850Y972157D01*
X789235D01*
X790928Y970464D01*
Y968771D01*
X789235Y967078D01*
X787542D01*
X789235D01*
X790928Y965386D01*
Y963693D01*
X789235Y962000D01*
X785850D01*
X784157Y963693D01*
X544771Y972157D02*
X541386D01*
X543078D01*
Y963693D01*
X541386Y962000D01*
X539693D01*
X538000Y963693D01*
X554928Y962000D02*
X548157D01*
X554928Y968771D01*
Y970464D01*
X553235Y972157D01*
X549850D01*
X548157Y970464D01*
X1274081Y679043D02*
X1270696D01*
X1272388D01*
Y670579D01*
X1270696Y668886D01*
X1269003D01*
X1267310Y670579D01*
X1282545Y668886D02*
Y679043D01*
X1277467Y673964D01*
X1284238D01*
X1273731Y525699D02*
X1270346D01*
X1272038D01*
Y517235D01*
X1270346Y515542D01*
X1268653D01*
X1266960Y517235D01*
X1283888Y525699D02*
X1277117D01*
Y520620D01*
X1280502Y522313D01*
X1282195D01*
X1283888Y520620D01*
Y517235D01*
X1282195Y515542D01*
X1278810D01*
X1277117Y517235D01*
X1020732Y680303D02*
Y670146D01*
X1027503D01*
X1037660D02*
X1030889D01*
X1037660Y676917D01*
Y678610D01*
X1035967Y680303D01*
X1032581D01*
X1030889Y678610D01*
X1043592Y680303D02*
Y670146D01*
X1050363D01*
X1053749Y678610D02*
X1055442Y680303D01*
X1058827D01*
X1060520Y678610D01*
Y676917D01*
X1058827Y675224D01*
X1057134D01*
X1058827D01*
X1060520Y673532D01*
Y671839D01*
X1058827Y670146D01*
X1055442D01*
X1053749Y671839D01*
X789592Y774283D02*
Y764126D01*
X796363D01*
X799749D02*
X803134D01*
X801441D01*
Y774283D01*
X799749Y772590D01*
X1308836Y289588D02*
Y299745D01*
X1313914D01*
X1315607Y298052D01*
Y294666D01*
X1313914Y292974D01*
X1308836D01*
X1325764Y299745D02*
X1322378Y298052D01*
X1318993Y294666D01*
Y291281D01*
X1320685Y289588D01*
X1324071D01*
X1325764Y291281D01*
Y292974D01*
X1324071Y294666D01*
X1318993D01*
X1278356Y289588D02*
Y299745D01*
X1283434D01*
X1285127Y298052D01*
Y294666D01*
X1283434Y292974D01*
X1278356D01*
X1295284Y299745D02*
X1288513D01*
Y294666D01*
X1291898Y296359D01*
X1293591D01*
X1295284Y294666D01*
Y291281D01*
X1293591Y289588D01*
X1290206D01*
X1288513Y291281D01*
X991776Y963008D02*
Y973165D01*
X996854D01*
X998547Y971472D01*
Y968086D01*
X996854Y966394D01*
X991776D01*
X1001933Y971472D02*
X1003625Y973165D01*
X1007011D01*
X1008704Y971472D01*
Y969779D01*
X1007011Y968086D01*
X1005318D01*
X1007011D01*
X1008704Y966394D01*
Y964701D01*
X1007011Y963008D01*
X1003625D01*
X1001933Y964701D01*
X306738Y55085D02*
Y65242D01*
X311816D01*
X313509Y63549D01*
Y60163D01*
X311816Y58471D01*
X306738D01*
X310124D02*
X313509Y55085D01*
X316895D02*
X320280D01*
X318587D01*
Y65242D01*
X316895Y63549D01*
X325359D02*
X327051Y65242D01*
X330437D01*
X332130Y63549D01*
Y61856D01*
X330437Y60163D01*
X328744D01*
X330437D01*
X332130Y58471D01*
Y56778D01*
X330437Y55085D01*
X327051D01*
X325359Y56778D01*
X357538Y55085D02*
Y65242D01*
X362616D01*
X364309Y63549D01*
Y60163D01*
X362616Y58471D01*
X357538D01*
X360924D02*
X364309Y55085D01*
X367695D02*
X371080D01*
X369388D01*
Y65242D01*
X367695Y63549D01*
X381237Y55085D02*
Y65242D01*
X376159Y60163D01*
X382930D01*
X126398Y95598D02*
Y105755D01*
X131476D01*
X133169Y104062D01*
Y100676D01*
X131476Y98984D01*
X126398D01*
X129784D02*
X133169Y95598D01*
X136555Y104062D02*
X138247Y105755D01*
X141633D01*
X143326Y104062D01*
Y102369D01*
X141633Y100676D01*
X143326Y98984D01*
Y97291D01*
X141633Y95598D01*
X138247D01*
X136555Y97291D01*
Y98984D01*
X138247Y100676D01*
X136555Y102369D01*
Y104062D01*
X138247Y100676D02*
X141633D01*
X306738Y95597D02*
Y105754D01*
X311816D01*
X313509Y104061D01*
Y100675D01*
X311816Y98983D01*
X306738D01*
X310124D02*
X313509Y95597D01*
X316895Y97290D02*
X318587Y95597D01*
X321973D01*
X323666Y97290D01*
Y104061D01*
X321973Y105754D01*
X318587D01*
X316895Y104061D01*
Y102368D01*
X318587Y100675D01*
X323666D01*
X75598Y54958D02*
Y65115D01*
X80676D01*
X82369Y63422D01*
Y60036D01*
X80676Y58344D01*
X75598D01*
X78984D02*
X82369Y54958D01*
X85755D02*
X89140D01*
X87448D01*
Y65115D01*
X85755Y63422D01*
X94219Y54958D02*
X97604D01*
X95911D01*
Y65115D01*
X94219Y63422D01*
X126398Y54958D02*
Y65115D01*
X131476D01*
X133169Y63422D01*
Y60036D01*
X131476Y58344D01*
X126398D01*
X129784D02*
X133169Y54958D01*
X136555D02*
X139940D01*
X138247D01*
Y65115D01*
X136555Y63422D01*
X151790Y54958D02*
X145019D01*
X151790Y61729D01*
Y63422D01*
X150097Y65115D01*
X146711D01*
X145019Y63422D01*
X357538Y95598D02*
Y105755D01*
X362616D01*
X364309Y104062D01*
Y100676D01*
X362616Y98984D01*
X357538D01*
X360924D02*
X364309Y95598D01*
X367695D02*
X371080D01*
X369388D01*
Y105755D01*
X367695Y104062D01*
X376159D02*
X377851Y105755D01*
X381237D01*
X382930Y104062D01*
Y97291D01*
X381237Y95598D01*
X377851D01*
X376159Y97291D01*
Y104062D01*
X1191006Y467106D02*
Y477263D01*
X1196084D01*
X1197777Y475570D01*
Y472184D01*
X1196084Y470492D01*
X1191006D01*
X1194392D02*
X1197777Y467106D01*
X1207934Y477263D02*
X1201163D01*
Y472184D01*
X1204548Y473877D01*
X1206241D01*
X1207934Y472184D01*
Y468799D01*
X1206241Y467106D01*
X1202856D01*
X1201163Y468799D01*
X1163066Y502666D02*
Y512823D01*
X1168144D01*
X1169837Y511130D01*
Y507744D01*
X1168144Y506052D01*
X1163066D01*
X1166452D02*
X1169837Y502666D01*
X1173223Y511130D02*
X1174915Y512823D01*
X1178301D01*
X1179994Y511130D01*
Y509437D01*
X1178301Y507744D01*
X1176608D01*
X1178301D01*
X1179994Y506052D01*
Y504359D01*
X1178301Y502666D01*
X1174915D01*
X1173223Y504359D01*
X1130046Y502666D02*
Y512823D01*
X1135124D01*
X1136817Y511130D01*
Y507744D01*
X1135124Y506052D01*
X1130046D01*
X1133432D02*
X1136817Y502666D01*
X1146974D02*
X1140203D01*
X1146974Y509437D01*
Y511130D01*
X1145281Y512823D01*
X1141896D01*
X1140203Y511130D01*
X1216058Y405732D02*
Y415889D01*
X1221136D01*
X1222829Y414196D01*
Y410810D01*
X1221136Y409118D01*
X1216058D01*
X1219444D02*
X1222829Y405732D01*
X1232986Y415889D02*
X1229600Y414196D01*
X1226215Y410810D01*
Y407425D01*
X1227907Y405732D01*
X1231293D01*
X1232986Y407425D01*
Y409118D01*
X1231293Y410810D01*
X1226215D01*
X1202596Y548734D02*
Y558891D01*
X1207674D01*
X1209367Y557198D01*
Y553812D01*
X1207674Y552120D01*
X1202596D01*
X1205982D02*
X1209367Y548734D01*
X1212753D02*
X1216138D01*
X1214445D01*
Y558891D01*
X1212753Y557198D01*
X1137318Y436212D02*
Y446369D01*
X1142396D01*
X1144089Y444676D01*
Y441290D01*
X1142396Y439598D01*
X1137318D01*
X1140704D02*
X1144089Y436212D01*
X1152553D02*
Y446369D01*
X1147475Y441290D01*
X1154246D01*
X75598Y95598D02*
Y105755D01*
X80676D01*
X82369Y104062D01*
Y100676D01*
X80676Y98984D01*
X75598D01*
X78984D02*
X82369Y95598D01*
X85755Y105755D02*
X92526D01*
Y104062D01*
X85755Y97291D01*
Y95598D01*
X357538Y11778D02*
Y21935D01*
X362616D01*
X364309Y20242D01*
Y16856D01*
X362616Y15164D01*
X357538D01*
X360924D02*
X364309Y11778D01*
X367695D02*
X371080D01*
X369388D01*
Y21935D01*
X367695Y20242D01*
X382930Y21935D02*
X376159D01*
Y16856D01*
X379544Y18549D01*
X381237D01*
X382930Y16856D01*
Y13471D01*
X381237Y11778D01*
X377851D01*
X376159Y13471D01*
X188795Y113968D02*
X187102Y115661D01*
X183717D01*
X182024Y113968D01*
Y112275D01*
X183717Y110582D01*
X187102D01*
X188795Y108890D01*
Y107197D01*
X187102Y105504D01*
X183717D01*
X182024Y107197D01*
X192181Y113968D02*
X193874Y115661D01*
X197259D01*
X198952Y113968D01*
Y112275D01*
X197259Y110582D01*
X195566D01*
X197259D01*
X198952Y108890D01*
Y107197D01*
X197259Y105504D01*
X193874D01*
X192181Y107197D01*
X1194162Y297271D02*
Y288807D01*
X1195855Y287114D01*
X1199240D01*
X1200933Y288807D01*
Y297271D01*
X1204319Y287114D02*
X1207704D01*
X1206012D01*
Y297271D01*
X1204319Y295578D01*
X1217861Y287114D02*
Y297271D01*
X1212783Y292192D01*
X1219554D01*
X-32000Y576157D02*
Y567693D01*
X-30307Y566000D01*
X-26922D01*
X-25229Y567693D01*
Y576157D01*
X-21843Y566000D02*
X-18458D01*
X-20150D01*
Y576157D01*
X-21843Y574464D01*
X-13379D02*
X-11687Y576157D01*
X-8301D01*
X-6608Y574464D01*
Y572771D01*
X-8301Y571078D01*
X-9994D01*
X-8301D01*
X-6608Y569386D01*
Y567693D01*
X-8301Y566000D01*
X-11687D01*
X-13379Y567693D01*
X742856Y503265D02*
Y494801D01*
X744549Y493108D01*
X747934D01*
X749627Y494801D01*
Y503265D01*
X753013Y493108D02*
X756398D01*
X754706D01*
Y503265D01*
X753013Y501572D01*
X768248Y493108D02*
X761477D01*
X768248Y499879D01*
Y501572D01*
X766555Y503265D01*
X763169D01*
X761477Y501572D01*
X534000Y498157D02*
Y489693D01*
X535693Y488000D01*
X539078D01*
X540771Y489693D01*
Y498157D01*
X544157Y488000D02*
X547542D01*
X545849D01*
Y498157D01*
X544157Y496464D01*
X552621Y488000D02*
X556006D01*
X554313D01*
Y498157D01*
X552621Y496464D01*
X1016000Y972157D02*
Y963693D01*
X1017693Y962000D01*
X1021078D01*
X1022771Y963693D01*
Y972157D01*
X1026157Y962000D02*
X1029542D01*
X1027850D01*
Y972157D01*
X1026157Y970464D01*
X1200000Y972157D02*
Y963693D01*
X1201693Y962000D01*
X1205078D01*
X1206771Y963693D01*
Y972157D01*
X1216928Y962000D02*
X1210157D01*
X1216928Y968771D01*
Y970464D01*
X1215235Y972157D01*
X1211850D01*
X1210157Y970464D01*
X1127252Y794001D02*
Y785537D01*
X1128945Y783844D01*
X1132330D01*
X1134023Y785537D01*
Y794001D01*
X1142487Y783844D02*
Y794001D01*
X1137409Y788922D01*
X1144180D01*
X874174Y740247D02*
Y731783D01*
X875867Y730090D01*
X879252D01*
X880945Y731783D01*
Y740247D01*
X891102D02*
X884331D01*
Y735168D01*
X887716Y736861D01*
X889409D01*
X891102Y735168D01*
Y731783D01*
X889409Y730090D01*
X886023D01*
X884331Y731783D01*
X938814Y876429D02*
Y867965D01*
X940507Y866272D01*
X943892D01*
X945585Y867965D01*
Y876429D01*
X948971Y874736D02*
X950664Y876429D01*
X954049D01*
X955742Y874736D01*
Y873043D01*
X954049Y871350D01*
X952356D01*
X954049D01*
X955742Y869658D01*
Y867965D01*
X954049Y866272D01*
X950664D01*
X948971Y867965D01*
X622000Y746157D02*
Y737693D01*
X623693Y736000D01*
X627078D01*
X628771Y737693D01*
Y746157D01*
X632157Y744464D02*
X633849Y746157D01*
X637235D01*
X638928Y744464D01*
Y742771D01*
X637235Y741078D01*
X638928Y739386D01*
Y737693D01*
X637235Y736000D01*
X633849D01*
X632157Y737693D01*
Y739386D01*
X633849Y741078D01*
X632157Y742771D01*
Y744464D01*
X633849Y741078D02*
X637235D01*
X522328Y602041D02*
Y593577D01*
X524021Y591884D01*
X527406D01*
X529099Y593577D01*
Y602041D01*
X532485Y593577D02*
X534178Y591884D01*
X537563D01*
X539256Y593577D01*
Y600348D01*
X537563Y602041D01*
X534178D01*
X532485Y600348D01*
Y598655D01*
X534178Y596962D01*
X539256D01*
X1200434Y618389D02*
Y609925D01*
X1202127Y608232D01*
X1205512D01*
X1207205Y609925D01*
Y618389D01*
X1210591D02*
X1217362D01*
Y616696D01*
X1210591Y609925D01*
Y608232D01*
X1184786Y698775D02*
Y690311D01*
X1186479Y688618D01*
X1189864D01*
X1191557Y690311D01*
Y698775D01*
X1201714D02*
X1198328Y697082D01*
X1194943Y693696D01*
Y690311D01*
X1196636Y688618D01*
X1200021D01*
X1201714Y690311D01*
Y692003D01*
X1200021Y693696D01*
X1194943D01*
X1227488Y475579D02*
Y467115D01*
X1229181Y465422D01*
X1232566D01*
X1234259Y467115D01*
Y475579D01*
X1237645Y465422D02*
X1241030D01*
X1239337D01*
Y475579D01*
X1237645Y473886D01*
X1246109D02*
X1247801Y475579D01*
X1251187D01*
X1252880Y473886D01*
Y467115D01*
X1251187Y465422D01*
X1247801D01*
X1246109Y467115D01*
Y473886D01*
X1259898Y36819D02*
Y28355D01*
X1261591Y26662D01*
X1264976D01*
X1266669Y28355D01*
Y36819D01*
X1270055Y26662D02*
X1273440D01*
X1271748D01*
Y36819D01*
X1270055Y35126D01*
X1285290Y36819D02*
X1278519D01*
Y31740D01*
X1281904Y33433D01*
X1283597D01*
X1285290Y31740D01*
Y28355D01*
X1283597Y26662D01*
X1280211D01*
X1278519Y28355D01*
X950438Y344111D02*
Y342418D01*
X953824Y339032D01*
X957209Y342418D01*
Y344111D01*
X953824Y339032D02*
Y333954D01*
X960595Y342418D02*
X962288Y344111D01*
X965673D01*
X967366Y342418D01*
Y340725D01*
X965673Y339032D01*
X963980D01*
X965673D01*
X967366Y337340D01*
Y335647D01*
X965673Y333954D01*
X962288D01*
X960595Y335647D01*
X878746Y812129D02*
Y810436D01*
X882132Y807050D01*
X885517Y810436D01*
Y812129D01*
X882132Y807050D02*
Y801972D01*
X888903D02*
X892288D01*
X890595D01*
Y812129D01*
X888903Y810436D01*
X539314Y714705D02*
Y713012D01*
X542700Y709626D01*
X546085Y713012D01*
Y714705D01*
X542700Y709626D02*
Y704548D01*
X556242D02*
X549471D01*
X556242Y711319D01*
Y713012D01*
X554549Y714705D01*
X551163D01*
X549471Y713012D01*
X1062067Y846020D02*
X1060374Y847713D01*
X1056989D01*
X1055296Y846020D01*
Y839249D01*
X1056989Y837556D01*
X1060374D01*
X1062067Y839249D01*
X1065453Y846020D02*
X1067145Y847713D01*
X1070531D01*
X1072224Y846020D01*
Y844327D01*
X1070531Y842634D01*
X1068838D01*
X1070531D01*
X1072224Y840942D01*
Y839249D01*
X1070531Y837556D01*
X1067145D01*
X1065453Y839249D01*
X1224607Y34974D02*
X1222914Y36667D01*
X1219529D01*
X1217836Y34974D01*
Y28203D01*
X1219529Y26510D01*
X1222914D01*
X1224607Y28203D01*
X1233071Y26510D02*
Y36667D01*
X1227993Y31588D01*
X1234764D01*
X1238149Y34974D02*
X1239842Y36667D01*
X1243228D01*
X1244921Y34974D01*
Y33281D01*
X1243228Y31588D01*
X1241535D01*
X1243228D01*
X1244921Y29896D01*
Y28203D01*
X1243228Y26510D01*
X1239842D01*
X1238149Y28203D01*
X-23295Y119302D02*
X-24988Y120995D01*
X-28373D01*
X-30066Y119302D01*
Y117609D01*
X-28373Y115916D01*
X-24988D01*
X-23295Y114224D01*
Y112531D01*
X-24988Y110838D01*
X-28373D01*
X-30066Y112531D01*
X-19909Y110838D02*
X-16524D01*
X-18217D01*
Y120995D01*
X-19909Y119302D01*
X421205D02*
X419512Y120995D01*
X416127D01*
X414434Y119302D01*
Y117609D01*
X416127Y115916D01*
X419512D01*
X421205Y114224D01*
Y112531D01*
X419512Y110838D01*
X416127D01*
X414434Y112531D01*
X431362Y110838D02*
X424591D01*
X431362Y117609D01*
Y119302D01*
X429669Y120995D01*
X426283D01*
X424591Y119302D01*
X1372884Y350252D02*
Y360409D01*
X1377962D01*
X1379655Y358716D01*
Y355330D01*
X1377962Y353638D01*
X1372884D01*
X1383041Y358716D02*
X1384733Y360409D01*
X1388119D01*
X1389812Y358716D01*
Y357023D01*
X1388119Y355330D01*
X1389812Y353638D01*
Y351945D01*
X1388119Y350252D01*
X1384733D01*
X1383041Y351945D01*
Y353638D01*
X1384733Y355330D01*
X1383041Y357023D01*
Y358716D01*
X1384733Y355330D02*
X1388119D01*
X1032000Y-22000D02*
Y-11843D01*
X1037078D01*
X1038771Y-13536D01*
Y-16922D01*
X1037078Y-18614D01*
X1032000D01*
X1042157Y-22000D02*
X1045542D01*
X1043849D01*
Y-11843D01*
X1042157Y-13536D01*
X1050621D02*
X1052313Y-11843D01*
X1055699D01*
X1057392Y-13536D01*
Y-20307D01*
X1055699Y-22000D01*
X1052313D01*
X1050621Y-20307D01*
Y-13536D01*
D111*
X756000Y159392D02*
Y142464D01*
X764464Y134000D01*
X772928Y142464D01*
Y159392D01*
X781392Y138232D02*
X785624Y134000D01*
X794088D01*
X798320Y138232D01*
Y155160D01*
X794088Y159392D01*
X785624D01*
X781392Y155160D01*
Y150928D01*
X785624Y146696D01*
X798320D01*
X806784Y134000D02*
Y138232D01*
X811016D01*
Y134000D01*
X806784D01*
X844871Y159392D02*
X827943D01*
Y146696D01*
X836407Y150928D01*
X840639D01*
X844871Y146696D01*
Y138232D01*
X840639Y134000D01*
X832175D01*
X827943Y138232D01*
M02*
