G04 Layer_Color=128*
%FSLAX44Y44*%
%MOMM*%
G71*
G01*
G75*
%ADD47C,0.1000*%
%ADD48C,1.0000*%
%ADD184C,0.0508*%
D47*
X76900Y106520D02*
X80900D01*
X78900Y104520D02*
Y108520D01*
X953200Y924400D02*
X957200D01*
X955200Y922400D02*
Y926400D01*
X749780Y921660D02*
Y925660D01*
X747780Y923660D02*
X751780D01*
X132240Y935100D02*
Y939100D01*
X130240Y937100D02*
X134240D01*
X343600D02*
X347600D01*
X345600Y935100D02*
Y939100D01*
X269940Y937100D02*
X273940D01*
X271940Y935100D02*
Y939100D01*
X201360Y937100D02*
X205360D01*
X203360Y935100D02*
Y939100D01*
D48*
X1265280Y843280D02*
X1290280D01*
X1227780Y865281D02*
Y885280D01*
X1267780Y905280D02*
X1287780D01*
D184*
X1311220Y99060D02*
X1320220D01*
X1315720Y94560D02*
Y103560D01*
X1367100Y866140D02*
X1376100D01*
X1371600Y861640D02*
Y870640D01*
X391740Y932180D02*
X400740D01*
X396240Y927680D02*
Y936680D01*
X51380Y929640D02*
X60380D01*
X55880Y925140D02*
Y934140D01*
X1285540Y217960D02*
X1294540D01*
X1290040Y213460D02*
Y222460D01*
X1285540Y243360D02*
X1294540D01*
X1290040Y238860D02*
Y247860D01*
X1285540Y268760D02*
X1294540D01*
X1290040Y264260D02*
Y273260D01*
X309200Y10910D02*
X325200D01*
X317200Y2910D02*
Y18910D01*
X559200Y10910D02*
X571200D01*
X565200Y4910D02*
Y16910D01*
X1380068Y50024D02*
X1389068D01*
X1384568Y45524D02*
Y54524D01*
X1380068Y75424D02*
X1389068D01*
X1384568Y70924D02*
Y79924D01*
X1380068Y100824D02*
X1389068D01*
X1384568Y96324D02*
Y105324D01*
X1380068Y126224D02*
X1389068D01*
X1384568Y121724D02*
Y130724D01*
X1380068Y151624D02*
X1389068D01*
X1384568Y147124D02*
Y156124D01*
X1380068Y177024D02*
X1389068D01*
X1384568Y172524D02*
Y181524D01*
X1380068Y202424D02*
X1389068D01*
X1384568Y197924D02*
Y206924D01*
X1380068Y227824D02*
X1389068D01*
X1384568Y223324D02*
Y232324D01*
X1380068Y253224D02*
X1389068D01*
X1384568Y248724D02*
Y257724D01*
X1380068Y278624D02*
X1389068D01*
X1384568Y274124D02*
Y283124D01*
X1380068Y304024D02*
X1389068D01*
X1384568Y299524D02*
Y308524D01*
X1380068Y329424D02*
X1389068D01*
X1384568Y324924D02*
Y333924D01*
X1316020Y268760D02*
X1325020D01*
X1320520Y264260D02*
Y273260D01*
X1316020Y243360D02*
X1325020D01*
X1320520Y238860D02*
Y247860D01*
X1316020Y217960D02*
X1325020D01*
X1320520Y213460D02*
Y222460D01*
X998960Y942179D02*
X1007960D01*
X1003460Y937680D02*
Y946680D01*
X998960Y916779D02*
X1007960D01*
X1003460Y912280D02*
Y921280D01*
X998960Y891379D02*
X1007960D01*
X1003460Y886880D02*
Y895880D01*
X1306928Y396970D02*
X1319928D01*
X1313428Y390470D02*
Y403470D01*
X1353178Y493220D02*
X1366178D01*
X1359678Y486720D02*
Y499720D01*
X1385428Y447470D02*
X1398428D01*
X1391928Y440970D02*
Y453970D01*
X1320928Y420970D02*
X1333928D01*
X1327428Y414470D02*
Y427470D01*
X1274928Y487470D02*
X1287928D01*
X1281428Y480970D02*
Y493970D01*
X1307278Y550314D02*
X1320278D01*
X1313778Y543814D02*
Y556814D01*
X1353528Y646564D02*
X1366528D01*
X1360028Y640064D02*
Y653064D01*
X1385778Y600814D02*
X1398778D01*
X1392278Y594314D02*
Y607314D01*
X1321278Y574314D02*
X1334278D01*
X1327778Y567814D02*
Y580814D01*
X1275278Y640814D02*
X1288278D01*
X1281778Y634314D02*
Y647314D01*
X1355000Y0D02*
X1385000D01*
X1370000Y-15000D02*
Y15000D01*
X-15000Y0D02*
X15000D01*
X0Y-15000D02*
Y15000D01*
X-15000Y940000D02*
X15000D01*
X0Y925000D02*
Y955000D01*
X1355000Y940000D02*
X1385000D01*
X1370000Y925000D02*
Y955000D01*
X568110Y899000D02*
X600610D01*
X584360Y882750D02*
Y915250D01*
X556040Y868520D02*
X572040D01*
X564040Y860520D02*
Y876520D01*
X682410Y899000D02*
X714910D01*
X698660Y882750D02*
Y915250D01*
X656060Y835500D02*
X665060D01*
X660560Y831000D02*
Y840000D01*
X630660Y835500D02*
X639660D01*
X635160Y831000D02*
Y840000D01*
X643360Y810100D02*
X652360D01*
X647860Y805600D02*
Y814600D01*
X617960Y810100D02*
X626960D01*
X622460Y805600D02*
Y814600D01*
X605260Y835500D02*
X614260D01*
X609760Y831000D02*
Y840000D01*
X681460Y835500D02*
X690460D01*
X685960Y831000D02*
Y840000D01*
X668760Y810100D02*
X677760D01*
X673260Y805600D02*
Y814600D01*
X710980Y868520D02*
X726980D01*
X718980Y860520D02*
Y876520D01*
X592560Y810100D02*
X601560D01*
X597060Y805600D02*
Y814600D01*
X694160Y810100D02*
X703160D01*
X698660Y805600D02*
Y814600D01*
X579860Y835500D02*
X588860D01*
X584360Y831000D02*
Y840000D01*
X704248Y924400D02*
X714408D01*
X709328Y919320D02*
Y929480D01*
X704248Y944720D02*
X714408D01*
X709328Y939640D02*
Y949800D01*
X568612Y944720D02*
X578772D01*
X573692Y939640D02*
Y949800D01*
X568612Y924400D02*
X578772D01*
X573692Y919320D02*
Y929480D01*
X904680Y877840D02*
X927680D01*
X916180Y866340D02*
Y889340D01*
X863880Y850740D02*
X873080D01*
X868480Y846140D02*
Y855340D01*
X838880Y850740D02*
X848080D01*
X843480Y846140D02*
Y855340D01*
X863880Y830740D02*
X873080D01*
X868480Y826140D02*
Y835340D01*
X838880Y830740D02*
X848080D01*
X843480Y826140D02*
Y835340D01*
X784280Y877840D02*
X807280D01*
X795780Y866340D02*
Y889340D01*
X1260280Y843280D02*
X1270280D01*
X1265280Y838280D02*
Y848280D01*
X1222780Y885280D02*
X1232780D01*
X1227780Y880281D02*
Y890280D01*
X1222780Y865281D02*
X1232780D01*
X1227780Y860281D02*
Y870281D01*
X1282780Y905280D02*
X1292780D01*
X1287780Y900280D02*
Y910280D01*
X1262780Y905280D02*
X1272780D01*
X1267780Y900280D02*
Y910280D01*
X1285280Y843280D02*
X1295280D01*
X1290280Y838280D02*
Y848280D01*
X823700Y-17940D02*
X832700D01*
X828200Y-22440D02*
Y-13440D01*
X849100Y-17940D02*
X858100D01*
X853600Y-22440D02*
Y-13440D01*
X874500Y-17940D02*
X883500D01*
X879000Y-22440D02*
Y-13440D01*
X899900Y-17940D02*
X908900D01*
X904400Y-22440D02*
Y-13440D01*
X925300Y-17940D02*
X934300D01*
X929800Y-22440D02*
Y-13440D01*
X950700Y-17940D02*
X959700D01*
X955200Y-22440D02*
Y-13440D01*
X976100Y-17940D02*
X985100D01*
X980600Y-22440D02*
Y-13440D01*
X1001500Y-17940D02*
X1010500D01*
X1006000Y-22440D02*
Y-13440D01*
X-1980Y542290D02*
X5640D01*
X1830Y538480D02*
Y546100D01*
X478020Y542290D02*
X485640D01*
X481830Y538480D02*
Y546100D01*
X378020Y542290D02*
X385640D01*
X381830Y538480D02*
Y546100D01*
X98020Y542290D02*
X105640D01*
X101830Y538480D02*
Y546100D01*
X114880Y-5080D02*
X123880D01*
X119380Y-9580D02*
Y-580D01*
X1310500Y-6000D02*
X1313500D01*
X1312000Y-7500D02*
Y-4500D01*
X1292500Y-14000D02*
X1295500D01*
X1294000Y-15500D02*
Y-12500D01*
X1176500Y162000D02*
X1179500D01*
X1178000Y160500D02*
Y163500D01*
X1158500Y160000D02*
X1161500D01*
X1160000Y158500D02*
Y161500D01*
X1168500Y152000D02*
X1171500D01*
X1170000Y150500D02*
Y153500D01*
X1228500Y310000D02*
X1231500D01*
X1230000Y308500D02*
Y311500D01*
X1216500Y420000D02*
X1219500D01*
X1218000Y418500D02*
Y421500D01*
X1216500Y406000D02*
X1219500D01*
X1218000Y404500D02*
Y407500D01*
X1182500Y402000D02*
X1185500D01*
X1184000Y400500D02*
Y403500D01*
X1188500Y388000D02*
X1191500D01*
X1190000Y386500D02*
Y389500D01*
X966500Y174000D02*
X969500D01*
X968000Y172500D02*
Y175500D01*
X1102500Y18000D02*
X1105500D01*
X1104000Y16500D02*
Y19500D01*
X1088500Y24000D02*
X1091500D01*
X1090000Y22500D02*
Y25500D01*
X1131635Y325391D02*
X1134635D01*
X1133135Y323891D02*
Y326891D01*
X270500Y396000D02*
X273500D01*
X272000Y394500D02*
Y397500D01*
X228500Y334000D02*
X231500D01*
X230000Y332500D02*
Y335500D01*
X192500Y318000D02*
X195500D01*
X194000Y316500D02*
Y319500D01*
X222500Y280000D02*
X225500D01*
X224000Y278500D02*
Y281500D01*
X184500Y280000D02*
X187500D01*
X186000Y278500D02*
Y281500D01*
X963635Y867390D02*
X966636D01*
X965135Y865890D02*
Y868890D01*
X978500Y876000D02*
X981500D01*
X980000Y874500D02*
Y877500D01*
X944500Y612000D02*
X947500D01*
X946000Y610500D02*
Y613500D01*
X952500Y584000D02*
X955500D01*
X954000Y582500D02*
Y585500D01*
X932500Y540000D02*
X935500D01*
X934000Y538500D02*
Y541500D01*
X924500Y224000D02*
X927500D01*
X926000Y222500D02*
Y225500D01*
X928500Y94000D02*
X931500D01*
X930000Y92500D02*
Y95500D01*
X931636Y105391D02*
X934635D01*
X933136Y103891D02*
Y106891D01*
X929635Y129391D02*
X932635D01*
X931135Y127891D02*
Y130891D01*
X929635Y141391D02*
X932635D01*
X931135Y139891D02*
Y142891D01*
X933635Y153391D02*
X936636D01*
X935135Y151891D02*
Y154891D01*
X933635Y53391D02*
X936636D01*
X935135Y51891D02*
Y54891D01*
X943635Y59391D02*
X946636D01*
X945135Y57891D02*
Y60891D01*
X915529Y78783D02*
X918530D01*
X917029Y77283D02*
Y80283D01*
X896498Y104000D02*
X899498D01*
X897998Y102500D02*
Y105500D01*
X898498Y92000D02*
X901498D01*
X899998Y90500D02*
Y93500D01*
X590500Y302000D02*
X593500D01*
X592000Y300500D02*
Y303500D01*
X376500Y56000D02*
X379500D01*
X378000Y54500D02*
Y57500D01*
X1016498Y106000D02*
X1019498D01*
X1017998Y104500D02*
Y107500D01*
X984500Y52000D02*
X987500D01*
X986000Y50500D02*
Y53500D01*
X974500Y42000D02*
X977500D01*
X976000Y40500D02*
Y43500D01*
X998500Y42000D02*
X1001500D01*
X1000000Y40500D02*
Y43500D01*
X780500Y88000D02*
X783500D01*
X782000Y86500D02*
Y89500D01*
X762498Y102000D02*
X765499D01*
X763998Y100500D02*
Y103500D01*
X778500Y100000D02*
X781500D01*
X780000Y98500D02*
Y101500D01*
X926500Y688000D02*
X929500D01*
X928000Y686500D02*
Y689500D01*
X934500Y694000D02*
X937500D01*
X936000Y692500D02*
Y695500D01*
X884500Y730000D02*
X887500D01*
X886000Y728500D02*
Y731500D01*
X908500Y674000D02*
X911500D01*
X910000Y672500D02*
Y675500D01*
X911636Y689390D02*
X914636D01*
X913136Y687890D02*
Y690890D01*
X906500Y664000D02*
X909500D01*
X908000Y662500D02*
Y665500D01*
X948500Y694000D02*
X951500D01*
X950000Y692500D02*
Y695500D01*
X1060500Y702000D02*
X1063500D01*
X1062000Y700500D02*
Y703500D01*
X950500Y598000D02*
X953500D01*
X952000Y596500D02*
Y599500D01*
X764500Y628000D02*
X767500D01*
X766000Y626500D02*
Y629500D01*
X754500Y618000D02*
X757500D01*
X756000Y616500D02*
Y619500D01*
X742500Y614000D02*
X745500D01*
X744000Y612500D02*
Y615500D01*
X718500Y598000D02*
X721500D01*
X720000Y596500D02*
Y599500D01*
X751636Y589390D02*
X754636D01*
X753136Y587890D02*
Y590890D01*
X767636Y613390D02*
X770636D01*
X769136Y611890D02*
Y614890D01*
X721636Y577390D02*
X724636D01*
X723136Y575890D02*
Y578890D01*
X698500Y608000D02*
X701500D01*
X700000Y606500D02*
Y609500D01*
X693636Y625390D02*
X696636D01*
X695136Y623890D02*
Y626890D01*
X722500Y616000D02*
X725500D01*
X724000Y614500D02*
Y617500D01*
X668500Y608000D02*
X671500D01*
X670000Y606500D02*
Y609500D01*
X669636Y621390D02*
X672636D01*
X671136Y619890D02*
Y622890D01*
X686500Y644000D02*
X689500D01*
X688000Y642500D02*
Y645500D01*
X666500Y637390D02*
X669500D01*
X668000Y635890D02*
Y638890D01*
X650500Y642000D02*
X653500D01*
X652000Y640500D02*
Y643500D01*
X662500Y660000D02*
X665500D01*
X664000Y658500D02*
Y661500D01*
X650500Y676000D02*
X653500D01*
X652000Y674500D02*
Y677500D01*
X668500Y682000D02*
X671500D01*
X670000Y680500D02*
Y683500D01*
X552500Y712000D02*
X555500D01*
X554000Y710500D02*
Y713500D01*
X574500Y714000D02*
X577500D01*
X576000Y712500D02*
Y715500D01*
X778500Y726000D02*
X781500D01*
X780000Y724500D02*
Y727500D01*
X732500Y664000D02*
X735500D01*
X734000Y662500D02*
Y665500D01*
X847636Y689390D02*
X850636D01*
X849136Y687890D02*
Y690890D01*
X794500Y496000D02*
X797500D01*
X796000Y494500D02*
Y497500D01*
X784500Y490000D02*
X787500D01*
X786000Y488500D02*
Y491500D01*
X810500Y492000D02*
X813500D01*
X812000Y490500D02*
Y493500D01*
X1186500Y56000D02*
X1189500D01*
X1188000Y54500D02*
Y57500D01*
X1193635Y67391D02*
X1196635D01*
X1195135Y65891D02*
Y68891D01*
X1199635Y57391D02*
X1202635D01*
X1201135Y55891D02*
Y58891D01*
X1215635Y73391D02*
X1218635D01*
X1217135Y71891D02*
Y74891D01*
X1225635Y73391D02*
X1228635D01*
X1227135Y71891D02*
Y74891D01*
X1171635Y27391D02*
X1174635D01*
X1173135Y25891D02*
Y28891D01*
X17637Y329391D02*
X20637D01*
X19137Y327891D02*
Y330891D01*
X51637Y145391D02*
X54637D01*
X53137Y143891D02*
Y146891D01*
X9637Y189391D02*
X12637D01*
X11137Y187891D02*
Y190891D01*
X109637Y325391D02*
X112637D01*
X111137Y323891D02*
Y326891D01*
X647636Y657390D02*
X650636D01*
X649136Y655890D02*
Y658890D01*
X1237635Y179391D02*
X1240635D01*
X1239135Y177891D02*
Y180891D01*
X953635Y241391D02*
X956636D01*
X955135Y239891D02*
Y242891D01*
X813636Y459390D02*
X816636D01*
X815136Y457891D02*
Y460891D01*
X819636Y423391D02*
X822636D01*
X821136Y421891D02*
Y424891D01*
X605636Y459390D02*
X608636D01*
X607136Y457891D02*
Y460891D01*
X905636Y539390D02*
X908636D01*
X907136Y537890D02*
Y540890D01*
X1197635Y407391D02*
X1200635D01*
X1199135Y405891D02*
Y408891D01*
X1225635Y209391D02*
X1228635D01*
X1227135Y207891D02*
Y210891D01*
X1293635Y27391D02*
X1296635D01*
X1295135Y25891D02*
Y28891D01*
X11637Y423391D02*
X14637D01*
X13137Y421891D02*
Y424891D01*
X1319635Y361391D02*
X1322635D01*
X1321135Y359891D02*
Y362891D01*
X273637Y11391D02*
X276637D01*
X275137Y9891D02*
Y12891D01*
X657636Y541390D02*
X660636D01*
X659136Y539890D02*
Y542890D01*
X791636Y707390D02*
X794636D01*
X793136Y705890D02*
Y708890D01*
X621636Y437391D02*
X624636D01*
X623136Y435891D02*
Y438891D01*
X131637Y919390D02*
X134637D01*
X133137Y917890D02*
Y920890D01*
X1127635Y251391D02*
X1130635D01*
X1129135Y249891D02*
Y252891D01*
X1103635Y33391D02*
X1106635D01*
X1105135Y31891D02*
Y34891D01*
X1099635Y881390D02*
X1102635D01*
X1101135Y879890D02*
Y882890D01*
X455636Y851390D02*
X458637D01*
X457136Y849890D02*
Y852890D01*
X37637Y185391D02*
X40637D01*
X39137Y183891D02*
Y186891D01*
X9637Y129391D02*
X12637D01*
X11137Y127891D02*
Y130891D01*
X271637Y919390D02*
X274637D01*
X273137Y917890D02*
Y920890D01*
X1289635Y361391D02*
X1292635D01*
X1291135Y359891D02*
Y362891D01*
X1223635Y671390D02*
X1226635D01*
X1225135Y669890D02*
Y672890D01*
X799636Y795390D02*
X802636D01*
X801136Y793890D02*
Y796890D01*
X1135635Y87391D02*
X1138635D01*
X1137135Y85891D02*
Y88891D01*
X55637Y419391D02*
X58637D01*
X57137Y417891D02*
Y420891D01*
X91637Y315391D02*
X94637D01*
X93137Y313891D02*
Y316891D01*
X71637Y321391D02*
X74637D01*
X73137Y319891D02*
Y322891D01*
X901636Y613390D02*
X904636D01*
X903136Y611890D02*
Y614890D01*
X581636Y525390D02*
X584636D01*
X583136Y523890D02*
Y526890D01*
X647636Y691390D02*
X650636D01*
X649136Y689890D02*
Y692890D01*
X345637Y919390D02*
X348637D01*
X347137Y917890D02*
Y920890D01*
X571636Y459390D02*
X574636D01*
X573136Y457891D02*
Y460891D01*
X591636Y267391D02*
X594636D01*
X593136Y265891D02*
Y268891D01*
X203637Y919390D02*
X206637D01*
X205137Y917890D02*
Y920890D01*
X873636Y539390D02*
X876636D01*
X875136Y537890D02*
Y540890D01*
X589636Y713390D02*
X592636D01*
X591136Y711890D02*
Y714890D01*
X751636Y867390D02*
X754636D01*
X753136Y865890D02*
Y868890D01*
X693636Y577390D02*
X696636D01*
X695136Y575890D02*
Y578890D01*
X291637Y363391D02*
X294637D01*
X293137Y361891D02*
Y364891D01*
X1081635Y371391D02*
X1084635D01*
X1083135Y369891D02*
Y372891D01*
X647636Y143391D02*
X650636D01*
X649136Y141891D02*
Y144891D01*
X1087635Y519390D02*
X1090635D01*
X1089135Y517890D02*
Y520890D01*
X1071635Y73391D02*
X1074635D01*
X1073135Y71891D02*
Y74891D01*
X1211635Y93391D02*
X1214635D01*
X1213135Y91891D02*
Y94891D01*
X843636Y539390D02*
X846636D01*
X845136Y537890D02*
Y540890D01*
X1289635Y399391D02*
X1292635D01*
X1291135Y397891D02*
Y400891D01*
X213637Y335391D02*
X216637D01*
X215137Y333891D02*
Y336891D01*
X647636Y109391D02*
X650636D01*
X649136Y107891D02*
Y110891D01*
X1015635Y41391D02*
X1018635D01*
X1017135Y39891D02*
Y42891D01*
X1197635Y563390D02*
X1200635D01*
X1199135Y561890D02*
Y564890D01*
X585636Y587390D02*
X588636D01*
X587136Y585890D02*
Y588890D01*
X1179635Y227391D02*
X1182635D01*
X1181135Y225891D02*
Y228891D01*
X1089635Y833390D02*
X1092635D01*
X1091135Y831890D02*
Y834890D01*
X87637Y409391D02*
X90637D01*
X89137Y407891D02*
Y410891D01*
X679636Y155391D02*
X682636D01*
X681136Y153891D02*
Y156891D01*
X1227635Y21391D02*
X1230635D01*
X1229135Y19891D02*
Y22891D01*
X1153635Y527390D02*
X1156635D01*
X1155135Y525890D02*
Y528890D01*
X593636Y545390D02*
X596636D01*
X595136Y543890D02*
Y546890D01*
X445636Y-24609D02*
X448637D01*
X447136Y-26109D02*
Y-23108D01*
X1249635Y613390D02*
X1252635D01*
X1251135Y611890D02*
Y614890D01*
X807636Y655390D02*
X810636D01*
X809136Y653890D02*
Y656890D01*
X775636Y455391D02*
X778636D01*
X777136Y453890D02*
Y456890D01*
X1213635Y179391D02*
X1216635D01*
X1215135Y177891D02*
Y180891D01*
X573636Y347391D02*
X576636D01*
X575136Y345891D02*
Y348891D01*
X563636Y649390D02*
X566636D01*
X565136Y647890D02*
Y650890D01*
X1001635Y105391D02*
X1004635D01*
X1003135Y103891D02*
Y106891D01*
X1085635Y99391D02*
X1088635D01*
X1087135Y97891D02*
Y100891D01*
X803636Y311391D02*
X806636D01*
X805136Y309891D02*
Y312891D01*
X1107635Y325391D02*
X1110635D01*
X1109135Y323891D02*
Y326891D01*
X69637Y185391D02*
X72637D01*
X71137Y183891D02*
Y186891D01*
X941636Y79391D02*
X944635D01*
X943136Y77891D02*
Y80891D01*
X803636Y261391D02*
X806636D01*
X805136Y259891D02*
Y262891D01*
X641636Y739390D02*
X644636D01*
X643136Y737890D02*
Y740890D01*
X703636Y681390D02*
X706636D01*
X705136Y679890D02*
Y682890D01*
X257637Y249391D02*
X260637D01*
X259137Y247891D02*
Y250891D01*
X1197635Y529390D02*
X1200635D01*
X1199135Y527890D02*
Y530890D01*
X167637Y317391D02*
X170637D01*
X169137Y315891D02*
Y318891D01*
X1171635Y325391D02*
X1174635D01*
X1173135Y323891D02*
Y326891D01*
X863636Y601390D02*
X866636D01*
X865136Y599890D02*
Y602890D01*
X819636Y569390D02*
X822636D01*
X821136Y567890D02*
Y570890D01*
X145637Y233391D02*
X148637D01*
X147137Y231891D02*
Y234891D01*
X287637Y57391D02*
X290637D01*
X289137Y55891D02*
Y58891D01*
X1011635Y179391D02*
X1014635D01*
X1013135Y177891D02*
Y180891D01*
X615636Y-609D02*
X618636D01*
X617136Y-2109D02*
Y891D01*
X97637Y63391D02*
X100637D01*
X99137Y61891D02*
Y64891D01*
X193637Y233391D02*
X196637D01*
X195137Y231891D02*
Y234891D01*
X351637Y11391D02*
X354637D01*
X353137Y9891D02*
Y12891D01*
X255637Y139391D02*
X258637D01*
X257137Y137891D02*
Y140891D01*
X729636Y21391D02*
X732636D01*
X731136Y19891D02*
Y22891D01*
X673636Y95391D02*
X676636D01*
X675136Y93891D02*
Y96891D01*
X705636Y503390D02*
X708636D01*
X707136Y501890D02*
Y504890D01*
X1173635Y283391D02*
X1176635D01*
X1175135Y281891D02*
Y284891D01*
X1083635Y687390D02*
X1086635D01*
X1085135Y685890D02*
Y688890D01*
X1113635Y175391D02*
X1116635D01*
X1115135Y173891D02*
Y176891D01*
X1157635Y175391D02*
X1160635D01*
X1159135Y173891D02*
Y176891D01*
X1005635Y73391D02*
X1008635D01*
X1007135Y71891D02*
Y74891D01*
X1017635Y251391D02*
X1020635D01*
X1019135Y249891D02*
Y252891D01*
X929635Y855390D02*
X932635D01*
X931135Y853890D02*
Y856890D01*
X947635Y679390D02*
X950636D01*
X949136Y677890D02*
Y680890D01*
X1035635Y41391D02*
X1038635D01*
X1037135Y39891D02*
Y42891D01*
X1333635Y619390D02*
X1336635D01*
X1335135Y617890D02*
Y620890D01*
X1353635Y523390D02*
X1356635D01*
X1355135Y521890D02*
Y524890D01*
X447636Y605390D02*
X450636D01*
X449137Y603890D02*
Y606890D01*
X883636Y607390D02*
X886636D01*
X885136Y605890D02*
Y608890D01*
X735636Y793390D02*
X738636D01*
X737136Y791890D02*
Y794890D01*
X745636Y739390D02*
X748636D01*
X747136Y737890D02*
Y740890D01*
X929635Y601390D02*
X932635D01*
X931135Y599890D02*
Y602890D01*
X947635Y277391D02*
X950636D01*
X949136Y275891D02*
Y278891D01*
X761636Y697390D02*
X764636D01*
X763136Y695890D02*
Y698890D01*
X641636Y753390D02*
X644636D01*
X643136Y751890D02*
Y754890D01*
X951636Y503390D02*
X954635D01*
X953136Y501890D02*
Y504890D01*
X1029635Y503390D02*
X1032635D01*
X1031135Y501890D02*
Y504890D01*
X1029635Y609390D02*
X1032635D01*
X1031135Y607890D02*
Y610890D01*
X953635Y295391D02*
X956636D01*
X955135Y293891D02*
Y296891D01*
X991635Y615390D02*
X994635D01*
X993135Y613890D02*
Y616890D01*
X997635Y387391D02*
X1000635D01*
X999135Y385891D02*
Y388891D01*
X1047635Y21391D02*
X1050635D01*
X1049135Y19891D02*
Y22891D01*
X1119635Y37391D02*
X1122635D01*
X1121135Y35891D02*
Y38891D01*
X1119635Y159391D02*
X1122635D01*
X1121135Y157891D02*
Y160891D01*
X1119635Y237391D02*
X1122635D01*
X1121135Y235891D02*
Y238891D01*
X547636Y-22608D02*
X550636D01*
X549136Y-24109D02*
Y-21109D01*
X1323635Y613390D02*
X1326635D01*
X1325135Y611890D02*
Y614890D01*
X1287635Y613390D02*
X1290635D01*
X1289135Y611890D02*
Y614890D01*
X1213635Y21391D02*
X1216635D01*
X1215135Y19891D02*
Y22891D01*
X1061635Y843390D02*
X1064635D01*
X1063135Y841890D02*
Y844890D01*
X1323635Y751390D02*
X1326635D01*
X1325135Y749890D02*
Y752890D01*
X87637Y399391D02*
X90637D01*
X89137Y397891D02*
Y400891D01*
X1141635Y35391D02*
X1144635D01*
X1143135Y33891D02*
Y36891D01*
X1203635Y35391D02*
X1206635D01*
X1205135Y33891D02*
Y36891D01*
X1077635Y41391D02*
X1080635D01*
X1079135Y39891D02*
Y42891D01*
X75637Y415391D02*
X78637D01*
X77137Y413891D02*
Y416891D01*
X1319635Y599390D02*
X1322635D01*
X1321135Y597890D02*
Y600890D01*
X1281635Y555390D02*
X1284635D01*
X1283135Y553890D02*
Y556890D01*
X1217635Y299391D02*
X1220635D01*
X1219135Y297891D02*
Y300891D01*
X481636Y-6608D02*
X484636D01*
X483136Y-8109D02*
Y-5109D01*
X1171635Y73391D02*
X1174635D01*
X1173135Y71891D02*
Y74891D01*
X1377635Y557390D02*
X1380635D01*
X1379135Y555890D02*
Y558890D01*
X1061635Y779390D02*
X1064635D01*
X1063135Y777890D02*
Y780890D01*
X923635Y789390D02*
X926636D01*
X925135Y787890D02*
Y790890D01*
X929635Y747390D02*
X932635D01*
X931135Y745890D02*
Y748890D01*
X1115635Y73391D02*
X1118635D01*
X1117135Y71891D02*
Y74891D01*
X1115635Y109391D02*
X1118635D01*
X1117135Y107891D02*
Y110891D01*
X1069635Y109391D02*
X1072635D01*
X1071135Y107891D02*
Y110891D01*
X1003635Y551390D02*
X1006635D01*
X1005135Y549890D02*
Y552890D01*
X1065635Y551390D02*
X1068635D01*
X1067135Y549890D02*
Y552890D01*
X1003635Y359391D02*
X1006635D01*
X1005135Y357891D02*
Y360891D01*
X459636Y359391D02*
X462636D01*
X461137Y357891D02*
Y360891D01*
X1279635Y125391D02*
X1282635D01*
X1281135Y123891D02*
Y126891D01*
X1179635Y105391D02*
X1182635D01*
X1181135Y103891D02*
Y106891D01*
X943635Y645390D02*
X946636D01*
X945135Y643890D02*
Y646890D01*
X1081635Y173391D02*
X1084635D01*
X1083135Y171891D02*
Y174891D01*
X1097635Y613390D02*
X1100635D01*
X1099135Y611890D02*
Y614890D01*
X1097635Y509390D02*
X1100635D01*
X1099135Y507890D02*
Y510890D01*
X1097635Y497390D02*
X1100635D01*
X1099135Y495890D02*
Y498890D01*
X1207635Y299391D02*
X1210635D01*
X1209135Y297891D02*
Y300891D01*
X1207635Y265391D02*
X1210635D01*
X1209135Y263891D02*
Y266891D01*
X1179635Y213391D02*
X1182635D01*
X1181135Y211891D02*
Y214891D01*
X721636Y799390D02*
X724636D01*
X723136Y797890D02*
Y800890D01*
X675636Y239391D02*
X678636D01*
X677136Y237891D02*
Y240891D01*
X825636Y235391D02*
X828636D01*
X827136Y233891D02*
Y236891D01*
X675636Y307391D02*
X678636D01*
X677136Y305891D02*
Y308891D01*
X479636Y195391D02*
X482636D01*
X481136Y193891D02*
Y196891D01*
X835636Y297391D02*
X838636D01*
X837136Y295891D02*
Y298891D01*
X871636Y121391D02*
X874636D01*
X873136Y119891D02*
Y122891D01*
X915636Y107391D02*
X918636D01*
X917136Y105891D02*
Y108891D01*
X923635Y613390D02*
X926636D01*
X925135Y611890D02*
Y614890D01*
X1029635Y201391D02*
X1032635D01*
X1031135Y199891D02*
Y202891D01*
X1019635Y357391D02*
X1022635D01*
X1021135Y355891D02*
Y358891D01*
X693636Y365391D02*
X696636D01*
X695136Y363891D02*
Y366891D01*
X105637Y357391D02*
X108637D01*
X107137Y355891D02*
Y358891D01*
X1063635Y311391D02*
X1066635D01*
X1065135Y309891D02*
Y312891D01*
X1027635Y311391D02*
X1030635D01*
X1029135Y309891D02*
Y312891D01*
X905636Y795390D02*
X908636D01*
X907136Y793890D02*
Y796890D01*
X945636Y795390D02*
X948635D01*
X947135Y793890D02*
Y796890D01*
X65637Y357391D02*
X68637D01*
X67137Y355891D02*
Y358891D01*
X375637Y367391D02*
X378637D01*
X377137Y365891D02*
Y368891D01*
X375637Y415391D02*
X378637D01*
X377137Y413891D02*
Y416891D01*
X905636Y645390D02*
X908636D01*
X907136Y643890D02*
Y646890D01*
X683636Y731390D02*
X686636D01*
X685136Y729890D02*
Y732890D01*
X167637Y427391D02*
X170637D01*
X169137Y425891D02*
Y428891D01*
X751636Y199391D02*
X754636D01*
X753136Y197891D02*
Y200891D01*
X401637Y427391D02*
X404637D01*
X403137Y425891D02*
Y428891D01*
X751636Y411391D02*
X754636D01*
X753136Y409891D02*
Y412891D01*
X751636Y95391D02*
X754636D01*
X753136Y93891D02*
Y96891D01*
X727636Y95391D02*
X730636D01*
X729136Y93891D02*
Y96891D01*
X1093635Y435391D02*
X1096635D01*
X1095135Y433891D02*
Y436891D01*
X1131635Y401391D02*
X1134635D01*
X1133135Y399891D02*
Y402891D01*
X1201635Y377391D02*
X1204635D01*
X1203135Y375891D02*
Y378891D01*
X1335635Y383391D02*
X1338635D01*
X1337135Y381891D02*
Y384891D01*
X1335635Y229391D02*
X1338635D01*
X1337135Y227891D02*
Y230891D01*
X401637Y593390D02*
X404637D01*
X403137Y591890D02*
Y594890D01*
X401637Y863390D02*
X404637D01*
X403137Y861890D02*
Y864890D01*
X641636Y787390D02*
X644636D01*
X643136Y785890D02*
Y788890D01*
X401637Y189391D02*
X404637D01*
X403137Y187891D02*
Y190891D01*
X761636Y443391D02*
X764636D01*
X763136Y441891D02*
Y444891D01*
X573636Y737390D02*
X576636D01*
X575136Y735890D02*
Y738890D01*
X689636Y675390D02*
X692636D01*
X691136Y673890D02*
Y676890D01*
X885636Y745390D02*
X888636D01*
X887136Y743890D02*
Y746890D01*
X911636Y843390D02*
X914636D01*
X913136Y841890D02*
Y844890D01*
X781636Y715390D02*
X784636D01*
X783136Y713890D02*
Y716890D01*
X767636Y685390D02*
X770636D01*
X769136Y683890D02*
Y686890D01*
X765636Y673390D02*
X768636D01*
X767136Y671890D02*
Y674890D01*
X1261635Y557390D02*
X1264635D01*
X1263135Y555890D02*
Y558890D01*
X1261635Y605390D02*
X1264635D01*
X1263135Y603890D02*
Y606890D01*
X1177635Y607390D02*
X1180635D01*
X1179135Y605890D02*
Y608890D01*
X1173635Y657390D02*
X1176635D01*
X1175135Y655890D02*
Y658890D01*
X1127635Y663390D02*
X1130635D01*
X1129135Y661890D02*
Y664890D01*
X499636Y673390D02*
X502636D01*
X501136Y671890D02*
Y674890D01*
X703636Y693390D02*
X706636D01*
X705136Y691890D02*
Y694890D01*
X543636Y539390D02*
X546636D01*
X545136Y537890D02*
Y540890D01*
X493636Y743390D02*
X496636D01*
X495136Y741890D02*
Y744890D01*
X693636Y655390D02*
X696636D01*
X695136Y653890D02*
Y656890D01*
X965636Y795390D02*
X968635D01*
X967135Y793890D02*
Y796890D01*
X917636Y821390D02*
X920636D01*
X919136Y819890D02*
Y822890D01*
X899636Y695390D02*
X902636D01*
X901136Y693890D02*
Y696890D01*
X975635Y827390D02*
X978635D01*
X977135Y825890D02*
Y828890D01*
X947635Y659390D02*
X950636D01*
X949136Y657890D02*
Y660890D01*
X983635Y573390D02*
X986635D01*
X985135Y571890D02*
Y574890D01*
X1055635Y573390D02*
X1058635D01*
X1057135Y571890D02*
Y574890D01*
X1049635Y889390D02*
X1052635D01*
X1051135Y887890D02*
Y890890D01*
X1031635Y905390D02*
X1034635D01*
X1033135Y903890D02*
Y906890D01*
X943635Y907390D02*
X946636D01*
X945135Y905890D02*
Y908890D01*
X827636Y907390D02*
X830636D01*
X829136Y905890D02*
Y908890D01*
X795636Y843390D02*
X798636D01*
X797136Y841890D02*
Y844890D01*
X795636Y813390D02*
X798636D01*
X797136Y811890D02*
Y814890D01*
X831636Y729390D02*
X834636D01*
X833136Y727890D02*
Y730890D01*
X829636Y59391D02*
X832636D01*
X831136Y57891D02*
Y60891D01*
X871636Y59391D02*
X874636D01*
X873136Y57891D02*
Y60891D01*
X1019635Y-8608D02*
X1022635D01*
X1021135Y-10108D02*
Y-7109D01*
X809636Y-4609D02*
X812636D01*
X811136Y-6108D02*
Y-3109D01*
X797636Y-10609D02*
X800636D01*
X799136Y-12109D02*
Y-9108D01*
X1287635Y191391D02*
X1290635D01*
X1289135Y189891D02*
Y192891D01*
X1285635Y285391D02*
X1288635D01*
X1287135Y283891D02*
Y286891D01*
X1315635Y285391D02*
X1318635D01*
X1317135Y283891D02*
Y286891D01*
X111637Y393391D02*
X114637D01*
X113137Y391891D02*
Y394891D01*
X57637Y365391D02*
X60637D01*
X59137Y363891D02*
Y366891D01*
X73637Y377391D02*
X76637D01*
X75137Y375891D02*
Y378891D01*
X73637Y365391D02*
X76637D01*
X75137Y363891D02*
Y366891D01*
X555636Y821390D02*
X558636D01*
X557136Y819890D02*
Y822890D01*
X619636Y825390D02*
X622636D01*
X621136Y823890D02*
Y826890D01*
X759636Y925390D02*
X762636D01*
X761136Y923890D02*
Y926890D01*
X315637Y953390D02*
X318637D01*
X317137Y951889D02*
Y954890D01*
X243637Y953390D02*
X246637D01*
X245137Y951889D02*
Y954890D01*
X175637Y953390D02*
X178637D01*
X177137Y951889D02*
Y954890D01*
X105637Y957390D02*
X108637D01*
X107137Y955890D02*
Y958889D01*
X965636Y935390D02*
X968635D01*
X967135Y933890D02*
Y936890D01*
X1251635Y475391D02*
X1254635D01*
X1253135Y473890D02*
Y476890D01*
X1287635Y457391D02*
X1290635D01*
X1289135Y455891D02*
Y458890D01*
X1297635Y377391D02*
X1300635D01*
X1299135Y375891D02*
Y378891D01*
X1359635Y377391D02*
X1362635D01*
X1361135Y375891D02*
Y378891D01*
X1307635Y661390D02*
X1310635D01*
X1309135Y659890D02*
Y662890D01*
X1119635Y601390D02*
X1122635D01*
X1121135Y599890D02*
Y602890D01*
X1277635Y613390D02*
X1280635D01*
X1279135Y611890D02*
Y614890D01*
X1141635Y513390D02*
X1144635D01*
X1143135Y511890D02*
Y514890D01*
X1215635Y625390D02*
X1218635D01*
X1217135Y623890D02*
Y626890D01*
X1141635Y633390D02*
X1144635D01*
X1143135Y631890D02*
Y634890D01*
X1183635Y593390D02*
X1186635D01*
X1185135Y591890D02*
Y594890D01*
X525636Y623390D02*
X528636D01*
X527136Y621890D02*
Y624890D01*
X515636Y695390D02*
X518636D01*
X517136Y693890D02*
Y696890D01*
X473636Y831390D02*
X476636D01*
X475136Y829890D02*
Y832890D01*
X473636Y657390D02*
X476636D01*
X475136Y655890D02*
Y658890D01*
X739636Y729390D02*
X742636D01*
X741136Y727890D02*
Y730890D01*
X773636Y819390D02*
X776636D01*
X775136Y817890D02*
Y820890D01*
X729636Y729390D02*
X732636D01*
X731136Y727890D02*
Y730890D01*
X675636Y759390D02*
X678636D01*
X677136Y757890D02*
Y760890D01*
X733636Y697390D02*
X736636D01*
X735136Y695890D02*
Y698890D01*
X703636Y843390D02*
X706636D01*
X705136Y841890D02*
Y844890D01*
X799636Y647390D02*
X802636D01*
X801136Y645890D02*
Y648890D01*
X615636Y687390D02*
X618636D01*
X617136Y685890D02*
Y688890D01*
X821636Y729390D02*
X824636D01*
X823136Y727890D02*
Y730890D01*
X955636Y769390D02*
X958635D01*
X957135Y767890D02*
Y770890D01*
X915636Y745390D02*
X918636D01*
X917136Y743890D02*
Y746890D01*
X883636Y619390D02*
X886636D01*
X885136Y617890D02*
Y620890D01*
X823636Y803390D02*
X826636D01*
X825136Y801890D02*
Y804890D01*
X853636Y811390D02*
X856636D01*
X855136Y809890D02*
Y812890D01*
X899636Y807390D02*
X902636D01*
X901136Y805890D02*
Y808890D01*
X885636Y807390D02*
X888636D01*
X887136Y805890D02*
Y808890D01*
X959635Y559390D02*
X962635D01*
X961135Y557890D02*
Y560890D01*
X1013635Y665390D02*
X1016635D01*
X1015135Y663890D02*
Y666890D01*
X1033635Y627390D02*
X1036635D01*
X1035135Y625890D02*
Y628890D01*
X1017635Y723390D02*
X1020635D01*
X1019135Y721890D02*
Y724890D01*
X1027635Y847390D02*
X1030635D01*
X1029135Y845890D02*
Y848890D01*
X1033635Y723390D02*
X1036635D01*
X1035135Y721890D02*
Y724890D01*
X811636Y809390D02*
X814636D01*
X813136Y807890D02*
Y810890D01*
X1117635Y797390D02*
X1120635D01*
X1119135Y795890D02*
Y798890D01*
X1069635Y787390D02*
X1072635D01*
X1071135Y785890D02*
Y788890D01*
X273637Y333391D02*
X276637D01*
X275137Y331891D02*
Y334891D01*
X349637Y333391D02*
X352637D01*
X351137Y331891D02*
Y334891D01*
X273637Y277391D02*
X276637D01*
X275137Y275891D02*
Y278891D01*
X311637Y319391D02*
X314637D01*
X313137Y317891D02*
Y320891D01*
X311637Y369391D02*
X314637D01*
X313137Y367891D02*
Y370891D01*
X247637Y375391D02*
X250637D01*
X249137Y373891D02*
Y376891D01*
X219637Y241391D02*
X222637D01*
X221137Y239891D02*
Y242891D01*
X261637Y313391D02*
X264637D01*
X263137Y311891D02*
Y314891D01*
X295637Y287391D02*
X298637D01*
X297137Y285891D02*
Y288891D01*
X295637Y313391D02*
X298637D01*
X297137Y311891D02*
Y314891D01*
X321637Y287391D02*
X324637D01*
X323137Y285891D02*
Y288891D01*
X235637Y249391D02*
X238637D01*
X237137Y247891D02*
Y250891D01*
X241637Y313391D02*
X244637D01*
X243137Y311891D02*
Y314891D01*
X131637Y299391D02*
X134637D01*
X133137Y297891D02*
Y300891D01*
X257637Y397391D02*
X260637D01*
X259137Y395891D02*
Y398891D01*
X167637Y249391D02*
X170637D01*
X169137Y247891D02*
Y250891D01*
X381637Y397391D02*
X384637D01*
X383137Y395891D02*
Y398891D01*
X1033635Y357391D02*
X1036635D01*
X1035135Y355891D02*
Y358891D01*
X1003635Y345391D02*
X1006635D01*
X1005135Y343891D02*
Y346891D01*
X1005635Y289391D02*
X1008635D01*
X1007135Y287891D02*
Y290891D01*
X1001635Y335391D02*
X1004635D01*
X1003135Y333891D02*
Y336891D01*
X995635Y283391D02*
X998635D01*
X997135Y281891D02*
Y284891D01*
X23637Y239391D02*
X26637D01*
X25137Y237891D02*
Y240891D01*
X103637Y339391D02*
X106637D01*
X105137Y337891D02*
Y340891D01*
X859636Y149391D02*
X862636D01*
X861136Y147891D02*
Y150891D01*
X865636Y441391D02*
X868636D01*
X867136Y439891D02*
Y442891D01*
X899636Y441391D02*
X902636D01*
X901136Y439891D02*
Y442891D01*
X899636Y465391D02*
X902636D01*
X901136Y463890D02*
Y466890D01*
X1035635Y469390D02*
X1038635D01*
X1037135Y467891D02*
Y470891D01*
X817636Y793390D02*
X820636D01*
X819136Y791890D02*
Y794890D01*
X677636Y661390D02*
X680636D01*
X679136Y659890D02*
Y662890D01*
X775636Y253391D02*
X778636D01*
X777136Y251891D02*
Y254891D01*
X775636Y229391D02*
X778636D01*
X777136Y227891D02*
Y230891D01*
X1249635Y135391D02*
X1252635D01*
X1251135Y133891D02*
Y136891D01*
X853636Y101391D02*
X856636D01*
X855136Y99891D02*
Y102891D01*
X831636Y133391D02*
X834636D01*
X833136Y131891D02*
Y134891D01*
X805636Y383391D02*
X808636D01*
X807136Y381891D02*
Y384891D01*
X775636Y383391D02*
X778636D01*
X777136Y381891D02*
Y384891D01*
X775636Y445391D02*
X778636D01*
X777136Y443891D02*
Y446890D01*
X967635Y123391D02*
X970635D01*
X969136Y121891D02*
Y124891D01*
X915636Y129391D02*
X918636D01*
X917136Y127891D02*
Y130891D01*
X885636Y165391D02*
X888636D01*
X887136Y163891D02*
Y166891D01*
X883636Y419391D02*
X886636D01*
X885136Y417891D02*
Y420891D01*
X797636Y419391D02*
X800636D01*
X799136Y417891D02*
Y420891D01*
X739636Y479390D02*
X742636D01*
X741136Y477891D02*
Y480891D01*
X1195635Y357391D02*
X1198635D01*
X1197135Y355891D02*
Y358891D01*
X1331635Y605390D02*
X1334635D01*
X1333135Y603890D02*
Y606890D01*
X441637Y551390D02*
X444636D01*
X443136Y549890D02*
Y552890D01*
X441637Y433391D02*
X444636D01*
X443136Y431891D02*
Y434891D01*
X1241635Y351391D02*
X1244635D01*
X1243135Y349891D02*
Y352891D01*
X1217635Y351391D02*
X1220635D01*
X1219135Y349891D02*
Y352891D01*
X1129635Y355391D02*
X1132635D01*
X1131135Y353891D02*
Y356891D01*
X1067635Y329391D02*
X1070635D01*
X1069135Y327891D02*
Y330891D01*
X1169635Y179391D02*
X1172635D01*
X1171135Y177891D02*
Y180891D01*
X1103635Y179391D02*
X1106635D01*
X1105135Y177891D02*
Y180891D01*
X1113635Y247391D02*
X1116635D01*
X1115135Y245891D02*
Y248891D01*
X1155635Y-8608D02*
X1158635D01*
X1157135Y-10108D02*
Y-7109D01*
X773636Y-26609D02*
X776636D01*
X775136Y-28108D02*
Y-25108D01*
X397637Y-30608D02*
X400637D01*
X399137Y-32109D02*
Y-29109D01*
X1335635Y203391D02*
X1338635D01*
X1337135Y201891D02*
Y204891D01*
X1309635Y203391D02*
X1312635D01*
X1311135Y201891D02*
Y204891D01*
X1267635Y203391D02*
X1270635D01*
X1269135Y201891D02*
Y204891D01*
X1267635Y277391D02*
X1270635D01*
X1269135Y275891D02*
Y278891D01*
X1177635Y243391D02*
X1180635D01*
X1179135Y241891D02*
Y244891D01*
X1111635Y211391D02*
X1114635D01*
X1113135Y209891D02*
Y212891D01*
X1111635Y229391D02*
X1114635D01*
X1113135Y227891D02*
Y230891D01*
X1061635Y-8608D02*
X1064635D01*
X1063135Y-10108D02*
Y-7109D01*
X1039635Y-8608D02*
X1042635D01*
X1041135Y-10108D02*
Y-7109D01*
X521636Y-16609D02*
X524636D01*
X523136Y-18109D02*
Y-15108D01*
X435636Y593390D02*
X438637D01*
X437136Y591890D02*
Y594890D01*
X435636Y175391D02*
X438637D01*
X437136Y173891D02*
Y176891D01*
X873636Y163391D02*
X876636D01*
X875136Y161891D02*
Y164891D01*
X909636Y147391D02*
X912636D01*
X911136Y145891D02*
Y148891D01*
X317637Y875390D02*
X320637D01*
X319137Y873890D02*
Y876890D01*
X1045635Y541390D02*
X1048635D01*
X1047135Y539890D02*
Y542890D01*
X961636Y541390D02*
X964635D01*
X963136Y539890D02*
Y542890D01*
X1001635Y223391D02*
X1004635D01*
X1003135Y221891D02*
Y224891D01*
X1039635Y565390D02*
X1042635D01*
X1041135Y563890D02*
Y566890D01*
X1009635Y565390D02*
X1012635D01*
X1011135Y563890D02*
Y566890D01*
X1011635Y323391D02*
X1014635D01*
X1013135Y321891D02*
Y324891D01*
X969635Y323391D02*
X972635D01*
X971135Y321891D02*
Y324891D01*
X965636Y221391D02*
X968635D01*
X967135Y219891D02*
Y222891D01*
X1089635Y229391D02*
X1092635D01*
X1091135Y227891D02*
Y230891D01*
X1211635Y117391D02*
X1214635D01*
X1213135Y115891D02*
Y118891D01*
X923635Y25391D02*
X926636D01*
X925135Y23891D02*
Y26891D01*
X961636Y25391D02*
X964635D01*
X963136Y23891D02*
Y26891D01*
X1225635Y135391D02*
X1228635D01*
X1227135Y133891D02*
Y136891D01*
X1095635Y103391D02*
X1098635D01*
X1097135Y101891D02*
Y104891D01*
X881636Y79391D02*
X884636D01*
X883136Y77891D02*
Y80891D01*
X1035635Y111391D02*
X1038635D01*
X1037135Y109891D02*
Y112891D01*
X769636Y199391D02*
X772636D01*
X771136Y197891D02*
Y200891D01*
X775636Y177391D02*
X778636D01*
X777136Y175891D02*
Y178891D01*
X821636Y81391D02*
X824636D01*
X823136Y79891D02*
Y82891D01*
X859636Y133391D02*
X862636D01*
X861136Y131891D02*
Y134891D01*
X893636Y133391D02*
X896636D01*
X895136Y131891D02*
Y134891D01*
X875636Y89391D02*
X878636D01*
X877136Y87891D02*
Y90891D01*
X933635Y31391D02*
X936636D01*
X935135Y29891D02*
Y32891D01*
X611636Y605390D02*
X614636D01*
X613136Y603890D02*
Y606890D01*
X703636Y649390D02*
X706636D01*
X705136Y647890D02*
Y650890D01*
X799636Y297391D02*
X802636D01*
X801136Y295891D02*
Y298891D01*
X989635Y627390D02*
X992635D01*
X991135Y625890D02*
Y628890D01*
X589636Y499390D02*
X592636D01*
X591136Y497890D02*
Y500890D01*
X615636Y697390D02*
X618636D01*
X617136Y695890D02*
Y698890D01*
X953635Y943390D02*
X956636D01*
X955135Y941890D02*
Y944890D01*
X943635Y767390D02*
X946636D01*
X945135Y765890D02*
Y768890D01*
X217637Y375391D02*
X220637D01*
X219137Y373891D02*
Y376891D01*
X277637Y375391D02*
X280637D01*
X279137Y373891D02*
Y376891D01*
X1191635Y581390D02*
X1194635D01*
X1193135Y579890D02*
Y582890D01*
X1149635Y569390D02*
X1152635D01*
X1151135Y567890D02*
Y570890D01*
X1263635Y457391D02*
X1266635D01*
X1265135Y455891D02*
Y458890D01*
X653636Y17391D02*
X656636D01*
X655136Y15891D02*
Y18891D01*
X1131635Y793390D02*
X1134635D01*
X1133135Y791890D02*
Y794890D01*
X39637Y251391D02*
X42637D01*
X41137Y249891D02*
Y252891D01*
X39637Y317391D02*
X42637D01*
X41137Y315891D02*
Y318891D01*
X1235635Y287391D02*
X1238635D01*
X1237135Y285891D02*
Y288891D01*
X1323635Y27391D02*
X1326635D01*
X1325135Y25891D02*
Y28891D01*
X1273635Y27391D02*
X1276635D01*
X1275135Y25891D02*
Y28891D01*
X11637Y359391D02*
X14637D01*
X13137Y357891D02*
Y360891D01*
X1225635Y117391D02*
X1228635D01*
X1227135Y115891D02*
Y118891D01*
X667636Y697390D02*
X670636D01*
X669136Y695890D02*
Y698890D01*
X989635Y725390D02*
X992635D01*
X991135Y723890D02*
Y726890D01*
X1233635Y619390D02*
X1236635D01*
X1235135Y617890D02*
Y620890D01*
X1093635Y791390D02*
X1096635D01*
X1095135Y789890D02*
Y792890D01*
X1319635Y125391D02*
X1322635D01*
X1321135Y123891D02*
Y126891D01*
X717636Y729390D02*
X720636D01*
X719136Y727890D02*
Y730890D01*
X1179635Y175391D02*
X1182635D01*
X1181135Y173891D02*
Y176891D01*
X1213635Y245391D02*
X1216635D01*
X1215135Y243891D02*
Y246891D01*
X1213635Y225391D02*
X1216635D01*
X1215135Y223891D02*
Y226891D01*
X97637Y165391D02*
X100637D01*
X99137Y163891D02*
Y166891D01*
X577636Y437391D02*
X580636D01*
X579136Y435891D02*
Y438891D01*
X1275635Y-12608D02*
X1278635D01*
X1277135Y-14109D02*
Y-11108D01*
X1249635Y-2609D02*
X1252635D01*
X1251135Y-4109D02*
Y-1109D01*
X1185635Y569390D02*
X1188635D01*
X1187135Y567890D02*
Y570890D01*
X1291635Y791390D02*
X1294635D01*
X1293135Y789890D02*
Y792890D01*
X97637Y223391D02*
X100637D01*
X99137Y221891D02*
Y224891D01*
X499636Y61391D02*
X502636D01*
X501136Y59891D02*
Y62891D01*
X1247635Y-24609D02*
X1250635D01*
X1249135Y-26109D02*
Y-23108D01*
X841636Y79391D02*
X844636D01*
X843136Y77891D02*
Y80891D01*
X1207635Y803390D02*
X1210635D01*
X1209135Y801890D02*
Y804890D01*
X689636Y107391D02*
X692636D01*
X691136Y105891D02*
Y108891D01*
X9637Y139391D02*
X12637D01*
X11137Y137891D02*
Y140891D01*
X455636Y647390D02*
X458637D01*
X457136Y645890D02*
Y648890D01*
X829636Y97391D02*
X832636D01*
X831136Y95891D02*
Y98891D01*
X405637Y79391D02*
X408637D01*
X407137Y77891D02*
Y80891D01*
X37637Y139391D02*
X40637D01*
X39137Y137891D02*
Y140891D01*
X1173635Y561390D02*
X1176635D01*
X1175135Y559890D02*
Y562890D01*
X1185635Y509390D02*
X1188635D01*
X1187135Y507890D02*
Y510890D01*
X1121635Y87391D02*
X1124635D01*
X1123135Y85891D02*
Y88891D01*
X1289635Y125391D02*
X1292635D01*
X1291135Y123891D02*
Y126891D01*
X1177635Y87391D02*
X1180635D01*
X1179135Y85891D02*
Y88891D01*
X1211635Y313391D02*
X1214635D01*
X1213135Y311891D02*
Y314891D01*
X55637Y377391D02*
X58637D01*
X57137Y375891D02*
Y378891D01*
X1175635Y791390D02*
X1178635D01*
X1177135Y789890D02*
Y792890D01*
X747636Y667390D02*
X750636D01*
X749136Y665890D02*
Y668890D01*
X845636Y625390D02*
X848636D01*
X847136Y623890D02*
Y626890D01*
X629636Y889390D02*
X632636D01*
X631136Y887890D02*
Y890890D01*
X767636Y593390D02*
X770636D01*
X769136Y591890D02*
Y594890D01*
X59637Y321391D02*
X62637D01*
X61137Y319891D02*
Y322891D01*
X1239635Y467391D02*
X1242635D01*
X1241135Y465891D02*
Y468890D01*
X1165635Y773390D02*
X1168635D01*
X1167135Y771890D02*
Y774890D01*
X1173635Y633390D02*
X1176635D01*
X1175135Y631890D02*
Y634890D01*
X1195635Y465391D02*
X1198635D01*
X1197135Y463890D02*
Y466890D01*
X55637Y61391D02*
X58637D01*
X57137Y59891D02*
Y62891D01*
X1001635Y149391D02*
X1004635D01*
X1003135Y147891D02*
Y150891D01*
X589636Y731390D02*
X592636D01*
X591136Y729890D02*
Y732890D01*
X1027635Y795390D02*
X1030635D01*
X1029135Y793890D02*
Y796890D01*
X405637Y39391D02*
X408637D01*
X407137Y37891D02*
Y40891D01*
X1001635Y241391D02*
X1004635D01*
X1003135Y239891D02*
Y242891D01*
X1267635Y387391D02*
X1270635D01*
X1269135Y385891D02*
Y388891D01*
X1089635Y41391D02*
X1092635D01*
X1091135Y39891D02*
Y42891D01*
X975635Y707390D02*
X978635D01*
X977135Y705890D02*
Y708890D01*
X1169635Y251391D02*
X1172635D01*
X1171135Y249891D02*
Y252891D01*
X1029635Y251391D02*
X1032635D01*
X1031135Y249891D02*
Y252891D01*
X1031635Y283391D02*
X1034635D01*
X1033135Y281891D02*
Y284891D01*
X419636Y-24609D02*
X422636D01*
X421137Y-26109D02*
Y-23108D01*
X1151635Y73391D02*
X1154635D01*
X1153135Y71891D02*
Y74891D01*
X1211635Y103391D02*
X1214635D01*
X1213135Y101891D02*
Y104891D01*
X1059635Y793390D02*
X1062635D01*
X1061135Y791890D02*
Y794890D01*
X1245635Y687390D02*
X1248635D01*
X1247135Y685890D02*
Y688890D01*
X321637Y647390D02*
X324637D01*
X323137Y645890D02*
Y648890D01*
X1001635Y123391D02*
X1004635D01*
X1003135Y121891D02*
Y124891D01*
X411637Y851390D02*
X414637D01*
X413137Y849890D02*
Y852890D01*
X513636Y719390D02*
X516636D01*
X515136Y717890D02*
Y720890D01*
X1251635Y803390D02*
X1254635D01*
X1253135Y801890D02*
Y804890D01*
X1215635Y555390D02*
X1218635D01*
X1217135Y553890D02*
Y556890D01*
X1097635Y721390D02*
X1100635D01*
X1099135Y719890D02*
Y722890D01*
X1057635Y335391D02*
X1060635D01*
X1059135Y333891D02*
Y336891D01*
X715636Y787390D02*
X718636D01*
X717136Y785890D02*
Y788890D01*
X765636Y789390D02*
X768636D01*
X767136Y787890D02*
Y790890D01*
X543636Y665390D02*
X546636D01*
X545136Y663890D02*
Y666890D01*
X1163635Y969389D02*
X1166635D01*
X1165135Y967889D02*
Y970890D01*
X1001635Y207391D02*
X1004635D01*
X1003135Y205891D02*
Y208891D01*
X761636Y841390D02*
X764636D01*
X763136Y839890D02*
Y842890D01*
X977635Y811390D02*
X980635D01*
X979135Y809890D02*
Y812890D01*
X881636Y23391D02*
X884636D01*
X883136Y21891D02*
Y24891D01*
X629636Y7391D02*
X632636D01*
X631136Y5891D02*
Y8891D01*
X699636Y137391D02*
X702636D01*
X701136Y135891D02*
Y138891D01*
X1205635Y625390D02*
X1208635D01*
X1207135Y623890D02*
Y626890D01*
X495636Y-16609D02*
X498636D01*
X497136Y-18109D02*
Y-15108D01*
X1033635Y413391D02*
X1036635D01*
X1035135Y411891D02*
Y414891D01*
X1079635Y251391D02*
X1082635D01*
X1081135Y249891D02*
Y252891D01*
X689636Y533390D02*
X692636D01*
X691136Y531890D02*
Y534890D01*
X941636Y99391D02*
X944635D01*
X943136Y97891D02*
Y100891D01*
X729636Y9391D02*
X732636D01*
X731136Y7891D02*
Y10891D01*
X855636Y737390D02*
X858636D01*
X857136Y735890D02*
Y738890D01*
X913636Y601390D02*
X916636D01*
X915136Y599890D02*
Y602890D01*
X279637Y313391D02*
X282637D01*
X281137Y311891D02*
Y314891D01*
X607636Y551390D02*
X610636D01*
X609136Y549890D02*
Y552890D01*
X807636Y423391D02*
X810636D01*
X809136Y421891D02*
Y424891D01*
X941636Y219391D02*
X944635D01*
X943136Y217891D02*
Y220891D01*
X1237635Y163391D02*
X1240635D01*
X1239135Y161891D02*
Y164891D01*
X581636Y615390D02*
X584636D01*
X583136Y613890D02*
Y616890D01*
X783636Y67391D02*
X786636D01*
X785136Y65891D02*
Y68891D01*
X1263635Y11391D02*
X1266635D01*
X1265135Y9891D02*
Y12891D01*
X1237635Y249391D02*
X1240635D01*
X1239135Y247891D02*
Y250891D01*
X641636Y775390D02*
X644636D01*
X643136Y773890D02*
Y776890D01*
X837636Y689390D02*
X840636D01*
X839136Y687890D02*
Y690890D01*
X65637Y415391D02*
X68637D01*
X67137Y413891D02*
Y416891D01*
X537636Y719390D02*
X540636D01*
X539136Y717890D02*
Y720890D01*
X675636Y777390D02*
X678636D01*
X677136Y775890D02*
Y778890D01*
X569636Y603390D02*
X572636D01*
X571136Y601890D02*
Y604890D01*
X987635Y429391D02*
X990635D01*
X989135Y427891D02*
Y430891D01*
X887636Y711390D02*
X890636D01*
X889136Y709890D02*
Y712890D01*
X601636Y353391D02*
X604636D01*
X603136Y351891D02*
Y354891D01*
X1085635Y893390D02*
X1088635D01*
X1087135Y891890D02*
Y894890D01*
X869636Y629390D02*
X872636D01*
X871136Y627890D02*
Y630890D01*
X995635Y63391D02*
X998635D01*
X997135Y61891D02*
Y64891D01*
X1159635Y517390D02*
X1162635D01*
X1161135Y515890D02*
Y518890D01*
X1129635Y579390D02*
X1132635D01*
X1131135Y577890D02*
Y580890D01*
X1049635Y689390D02*
X1052635D01*
X1051135Y687890D02*
Y690890D01*
X1165635Y137391D02*
X1168635D01*
X1167135Y135891D02*
Y138891D01*
X785636Y459390D02*
X788636D01*
X787136Y457891D02*
Y460891D01*
X731636Y463391D02*
X734636D01*
X733136Y461890D02*
Y464891D01*
X819636Y157391D02*
X822636D01*
X821136Y155891D02*
Y158891D01*
X879636Y153391D02*
X882636D01*
X881136Y151891D02*
Y154891D01*
X881636Y475391D02*
X884636D01*
X883136Y473890D02*
Y476890D01*
X881636Y503390D02*
X884636D01*
X883136Y501890D02*
Y504890D01*
X683636Y609390D02*
X686636D01*
X685136Y607890D02*
Y610890D01*
X865636Y171391D02*
X868636D01*
X867136Y169891D02*
Y172891D01*
X905636Y163391D02*
X908636D01*
X907136Y161891D02*
Y164891D01*
X743636Y495390D02*
X746636D01*
X745136Y493890D02*
Y496890D01*
X803720Y455391D02*
X806720D01*
X805220Y453890D02*
Y456890D01*
X835636Y447391D02*
X838636D01*
X837136Y445891D02*
Y448890D01*
X835636Y395391D02*
X838636D01*
X837136Y393891D02*
Y396891D01*
X889636Y395391D02*
X892636D01*
X891136Y393891D02*
Y396891D01*
X897636Y171391D02*
X900636D01*
X899136Y169891D02*
Y172891D01*
X849636Y515390D02*
X852636D01*
X851136Y513890D02*
Y516890D01*
X635636Y567390D02*
X638636D01*
X637136Y565890D02*
Y568890D01*
X1019635Y191391D02*
X1022635D01*
X1021135Y189891D02*
Y192891D01*
X1297635Y197391D02*
X1300635D01*
X1299135Y195891D02*
Y198891D01*
X1179635Y191391D02*
X1182635D01*
X1181135Y189891D02*
Y192891D01*
X1089635Y187391D02*
X1092635D01*
X1091135Y185891D02*
Y188891D01*
X1089635Y209391D02*
X1092635D01*
X1091135Y207891D02*
Y210891D01*
X905636Y495390D02*
X908636D01*
X907136Y493890D02*
Y496890D01*
X917636Y487391D02*
X920636D01*
X919136Y485891D02*
Y488890D01*
X825636Y497390D02*
X828636D01*
X827136Y495890D02*
Y498890D01*
X995635Y487391D02*
X998635D01*
X997135Y485891D02*
Y488890D01*
X995635Y559390D02*
X998635D01*
X997135Y557890D02*
Y560890D01*
X1073635Y589390D02*
X1076635D01*
X1075135Y587890D02*
Y590890D01*
X1137635Y621390D02*
X1140635D01*
X1139135Y619890D02*
Y622890D01*
X1189635Y621390D02*
X1192635D01*
X1191135Y619890D02*
Y622890D01*
X1345635Y633390D02*
X1348635D01*
X1347135Y631890D02*
Y634890D01*
X1359635Y619390D02*
X1362635D01*
X1361135Y617890D02*
Y620890D01*
X1363635Y537390D02*
X1366635D01*
X1365135Y535890D02*
Y538890D01*
X1347635Y397391D02*
X1350635D01*
X1349135Y395891D02*
Y398891D01*
X1329635Y397391D02*
X1332635D01*
X1331135Y395891D02*
Y398891D01*
X945636Y191391D02*
X948635D01*
X947135Y189891D02*
Y192891D01*
X767636Y507390D02*
X770636D01*
X769136Y505890D02*
Y508890D01*
X829636Y459390D02*
X832636D01*
X831136Y457891D02*
Y460891D01*
X829636Y423391D02*
X832636D01*
X831136Y421891D02*
Y424891D01*
X855636Y423391D02*
X858636D01*
X857136Y421891D02*
Y424891D01*
X855636Y199391D02*
X858636D01*
X857136Y197891D02*
Y200891D01*
X837636Y501390D02*
X840636D01*
X839136Y499890D02*
Y502890D01*
X635636Y547390D02*
X638636D01*
X637136Y545890D02*
Y548890D01*
X625636Y563390D02*
X628636D01*
X627136Y561890D02*
Y564890D01*
X895636Y477391D02*
X898636D01*
X897136Y475891D02*
Y478890D01*
X901636Y205391D02*
X904636D01*
X903136Y203891D02*
Y206891D01*
X873636Y307391D02*
X876636D01*
X875136Y305891D02*
Y308891D01*
X873636Y323391D02*
X876636D01*
X875136Y321891D02*
Y324891D01*
X745636Y323391D02*
X748636D01*
X747136Y321891D02*
Y324891D01*
X675636Y505390D02*
X678636D01*
X677136Y503890D02*
Y506890D01*
X881636Y209391D02*
X884636D01*
X883136Y207891D02*
Y210891D01*
X935636Y341391D02*
X938635D01*
X937135Y339891D02*
Y342891D01*
X831636Y341391D02*
X834636D01*
X833136Y339891D02*
Y342891D01*
X821636Y307391D02*
X824636D01*
X823136Y305891D02*
Y308891D01*
X929635Y251391D02*
X932635D01*
X931135Y249891D02*
Y252891D01*
X813636Y267391D02*
X816636D01*
X815136Y265891D02*
Y268891D01*
X719636Y483391D02*
X722636D01*
X721136Y481890D02*
Y484891D01*
X695636Y545390D02*
X698636D01*
X697136Y543890D02*
Y546890D01*
X929635Y313391D02*
X932635D01*
X931135Y311891D02*
Y314891D01*
X781636Y335391D02*
X784636D01*
X783136Y333891D02*
Y336891D01*
X793636Y311391D02*
X796636D01*
X795136Y309891D02*
Y312891D01*
X1015635Y311391D02*
X1018635D01*
X1017135Y309891D02*
Y312891D01*
X1055635Y251391D02*
X1058635D01*
X1057135Y249891D02*
Y252891D01*
X909636Y285391D02*
X912636D01*
X911136Y283891D02*
Y286891D01*
X909636Y255391D02*
X912636D01*
X911136Y253891D02*
Y256891D01*
X1033635Y295391D02*
X1036635D01*
X1035135Y293891D02*
Y296891D01*
X1055635Y287391D02*
X1058635D01*
X1057135Y285891D02*
Y288891D01*
X709636Y539390D02*
X712636D01*
X711136Y537890D02*
Y540890D01*
X763636Y347391D02*
X766636D01*
X765136Y345891D02*
Y348891D01*
X587636Y353391D02*
X590636D01*
X589136Y351891D02*
Y354891D01*
X369637Y377391D02*
X372637D01*
X371137Y375891D02*
Y378891D01*
X369637Y347391D02*
X372637D01*
X371137Y345891D02*
Y348891D01*
X153637Y329391D02*
X156637D01*
X155137Y327891D02*
Y330891D01*
X763636Y311391D02*
X766636D01*
X765136Y309891D02*
Y312891D01*
X709636Y577390D02*
X712636D01*
X711136Y575890D02*
Y578890D01*
X679636Y205391D02*
X682636D01*
X681136Y203891D02*
Y206891D01*
X71637Y303391D02*
X74637D01*
X73137Y301891D02*
Y304891D01*
X1045635Y245391D02*
X1048635D01*
X1047135Y243891D02*
Y246891D01*
X781636Y267391D02*
X784636D01*
X783136Y265891D02*
Y268891D01*
X797636Y207391D02*
X800636D01*
X799136Y205891D02*
Y208891D01*
X719636Y543390D02*
X722636D01*
X721136Y541890D02*
Y544890D01*
X957635Y271391D02*
X960636D01*
X959136Y269891D02*
Y272891D01*
X989635Y271391D02*
X992635D01*
X991135Y269891D02*
Y272891D01*
X459636Y339391D02*
X462636D01*
X461137Y337891D02*
Y340891D01*
X557636Y393391D02*
X560636D01*
X559136Y391891D02*
Y394891D01*
X715636Y395391D02*
X718636D01*
X717136Y393891D02*
Y396891D01*
X815636Y395391D02*
X818636D01*
X817136Y393891D02*
Y396891D01*
X815636Y383391D02*
X818636D01*
X817136Y381891D02*
Y384891D01*
X557636Y339391D02*
X560636D01*
X559136Y337891D02*
Y340891D01*
X531636Y123391D02*
X534636D01*
X533136Y121891D02*
Y124891D01*
X591636Y123391D02*
X594636D01*
X593136Y121891D02*
Y124891D01*
X709636Y489390D02*
X712636D01*
X711136Y487891D02*
Y490891D01*
X143637Y319391D02*
X146637D01*
X145137Y317891D02*
Y320891D01*
X723636Y387391D02*
X726636D01*
X725136Y385891D02*
Y388891D01*
X573636Y389391D02*
X576636D01*
X575136Y387891D02*
Y390891D01*
X511636Y201391D02*
X514636D01*
X513136Y199891D02*
Y202891D01*
X39637Y299391D02*
X42637D01*
X41137Y297891D02*
Y300891D01*
X581636Y405391D02*
X584636D01*
X583136Y403891D02*
Y406891D01*
X605636Y231391D02*
X608636D01*
X607136Y229891D02*
Y232891D01*
X623636Y409391D02*
X626636D01*
X625136Y407891D02*
Y410891D01*
X707636Y417391D02*
X710636D01*
X709136Y415891D02*
Y418891D01*
X707636Y477391D02*
X710636D01*
X709136Y475891D02*
Y478890D01*
X1041635Y517390D02*
X1044635D01*
X1043135Y515890D02*
Y518890D01*
X1065635Y375391D02*
X1068635D01*
X1067135Y373891D02*
Y376891D01*
X99637Y295391D02*
X102637D01*
X101137Y293891D02*
Y296891D01*
X591636Y417391D02*
X594636D01*
X593136Y415891D02*
Y418891D01*
X473636Y213391D02*
X476636D01*
X475136Y211891D02*
Y214891D01*
X735636Y405391D02*
X738636D01*
X737136Y403891D02*
Y406891D01*
X737636Y449390D02*
X740636D01*
X739136Y447891D02*
Y450891D01*
X755636Y501390D02*
X758636D01*
X757136Y499890D02*
Y502890D01*
X755636Y523390D02*
X758636D01*
X757136Y521890D02*
Y524890D01*
X515636Y399391D02*
X518636D01*
X517136Y397891D02*
Y400891D01*
X517636Y213391D02*
X520636D01*
X519136Y211891D02*
Y214891D01*
X71637Y275391D02*
X74637D01*
X73137Y273891D02*
Y276891D01*
X533636Y253391D02*
X536636D01*
X535136Y251891D02*
Y254891D01*
X605636Y489390D02*
X608636D01*
X607136Y487891D02*
Y490891D01*
X287637Y275391D02*
X290637D01*
X289137Y273891D02*
Y276891D01*
X157637Y279391D02*
X160637D01*
X159137Y277891D02*
Y280891D01*
X115637Y279391D02*
X118637D01*
X117137Y277891D02*
Y280891D01*
X545636Y153391D02*
X548636D01*
X547136Y151891D02*
Y154891D01*
X677636Y83391D02*
X680636D01*
X679136Y81891D02*
Y84891D01*
X1087635Y395391D02*
X1090635D01*
X1089135Y393891D02*
Y396891D01*
X1065635Y435391D02*
X1068635D01*
X1067135Y433891D02*
Y436891D01*
X993635Y403391D02*
X996635D01*
X995135Y401891D02*
Y404891D01*
X681636Y401391D02*
X684636D01*
X683136Y399891D02*
Y402891D01*
X687636Y269391D02*
X690636D01*
X689136Y267891D02*
Y270891D01*
X741636Y269391D02*
X744636D01*
X743136Y267891D02*
Y270891D01*
X739636Y161391D02*
X742636D01*
X741136Y159891D02*
Y162891D01*
X39637Y287391D02*
X42637D01*
X41137Y285891D02*
Y288891D01*
X629636Y117391D02*
X632636D01*
X631136Y115891D02*
Y118891D01*
X989635Y529390D02*
X992635D01*
X991135Y527890D02*
Y530890D01*
X535636Y221391D02*
X538636D01*
X537136Y219891D02*
Y222891D01*
X539636Y447391D02*
X542636D01*
X541136Y445891D02*
Y448890D01*
X783636Y569390D02*
X786636D01*
X785136Y567890D02*
Y570890D01*
X535636Y159391D02*
X538636D01*
X537136Y157891D02*
Y160891D01*
X689636Y87391D02*
X692636D01*
X691136Y85891D02*
Y88891D01*
X111637Y221391D02*
X114637D01*
X113137Y219891D02*
Y222891D01*
X131637Y237391D02*
X134637D01*
X133137Y235891D02*
Y238891D01*
X113637Y295391D02*
X116637D01*
X115137Y293891D02*
Y296891D01*
X617636Y493391D02*
X620636D01*
X619136Y491890D02*
Y494891D01*
X683636Y621390D02*
X686636D01*
X685136Y619890D02*
Y622890D01*
X651636Y609390D02*
X654636D01*
X653136Y607890D02*
Y610890D01*
X713636Y57391D02*
X716636D01*
X715136Y55891D02*
Y58891D01*
X395637Y207391D02*
X398637D01*
X397137Y205891D02*
Y208891D01*
X601636Y499390D02*
X604636D01*
X603136Y497890D02*
Y500890D01*
X719636Y111391D02*
X722636D01*
X721136Y109891D02*
Y112891D01*
X757636Y111391D02*
X760636D01*
X759136Y109891D02*
Y112891D01*
X765636Y407391D02*
X768636D01*
X767136Y405891D02*
Y408891D01*
X1107635Y373391D02*
X1110635D01*
X1109135Y371891D02*
Y374891D01*
X1123635Y333391D02*
X1126635D01*
X1125135Y331891D02*
Y334891D01*
X395637Y415391D02*
X398637D01*
X397137Y413891D02*
Y416891D01*
X517636Y415391D02*
X520636D01*
X519136Y413891D02*
Y416891D01*
X65637Y243391D02*
X68637D01*
X67137Y241891D02*
Y244891D01*
X539636Y93391D02*
X542636D01*
X541136Y91891D02*
Y94891D01*
X591636Y237391D02*
X594636D01*
X593136Y235891D02*
Y238891D01*
X943635Y461390D02*
X946636D01*
X945135Y459891D02*
Y462891D01*
X591636Y253391D02*
X594636D01*
X593136Y251891D02*
Y254891D01*
X207637Y317391D02*
X210637D01*
X209137Y315891D02*
Y318891D01*
X935636Y237391D02*
X938635D01*
X937135Y235891D02*
Y238891D01*
X1047635Y463391D02*
X1050635D01*
X1049135Y461890D02*
Y464891D01*
X1141635Y301391D02*
X1144635D01*
X1143135Y299891D02*
Y302891D01*
X103637Y275391D02*
X106637D01*
X105137Y273891D02*
Y276891D01*
X889636Y563390D02*
X892636D01*
X891136Y561890D02*
Y564890D01*
X201637Y409391D02*
X204637D01*
X203137Y407891D02*
Y410891D01*
X965636Y429391D02*
X968635D01*
X967135Y427891D02*
Y430891D01*
X613636Y299391D02*
X616636D01*
X615136Y297891D02*
Y300891D01*
X599636Y209391D02*
X602636D01*
X601136Y207891D02*
Y210891D01*
X563636Y209391D02*
X566636D01*
X565136Y207891D02*
Y210891D01*
X547636Y207391D02*
X550636D01*
X549136Y205891D02*
Y208891D01*
X485636Y207391D02*
X488636D01*
X487136Y205891D02*
Y208891D01*
X485636Y409391D02*
X488636D01*
X487136Y407891D02*
Y410891D01*
X613636Y353391D02*
X616636D01*
X615136Y351891D02*
Y354891D01*
X965636Y353391D02*
X968635D01*
X967135Y351891D02*
Y354891D01*
X143637Y409391D02*
X146637D01*
X145137Y407891D02*
Y410891D01*
X965636Y569390D02*
X968635D01*
X967135Y567890D02*
Y570890D01*
X1075635Y433391D02*
X1078635D01*
X1077135Y431891D02*
Y434891D01*
X1107635Y407391D02*
X1110635D01*
X1109135Y405891D02*
Y408891D01*
X407637Y391391D02*
X410637D01*
X409137Y389891D02*
Y392891D01*
X617636Y93391D02*
X620636D01*
X619136Y91891D02*
Y94891D01*
X615636Y225391D02*
X618636D01*
X617136Y223891D02*
Y226891D01*
X417637Y593390D02*
X420636D01*
X419137Y591890D02*
Y594890D01*
X417637Y869390D02*
X420636D01*
X419137Y867890D02*
Y870890D01*
X805636Y849390D02*
X808636D01*
X807136Y847890D02*
Y850890D01*
X805636Y729390D02*
X808636D01*
X807136Y727890D02*
Y730890D01*
X195637Y391391D02*
X198637D01*
X197137Y389891D02*
Y392891D01*
X407637Y157391D02*
X410637D01*
X409137Y155891D02*
Y158891D01*
X613636Y259391D02*
X616636D01*
X615136Y257891D02*
Y260891D01*
X969635Y231391D02*
X972635D01*
X971135Y229891D02*
Y232891D01*
X1007635Y195391D02*
X1010635D01*
X1009135Y193891D02*
Y196891D01*
X609636Y341391D02*
X612636D01*
X611136Y339891D02*
Y342891D01*
X191637Y375391D02*
X194637D01*
X193137Y373891D02*
Y376891D01*
X977635Y457391D02*
X980635D01*
X979135Y455891D02*
Y458890D01*
X1047635Y441391D02*
X1050635D01*
X1049135Y439891D02*
Y442891D01*
X1139635Y349391D02*
X1142635D01*
X1141135Y347891D02*
Y350891D01*
X579636Y259391D02*
X582636D01*
X581136Y257891D02*
Y260891D01*
X579636Y221391D02*
X582636D01*
X581136Y219891D02*
Y222891D01*
X615636Y215391D02*
X618636D01*
X617136Y213891D02*
Y216891D01*
X143637Y375391D02*
X146637D01*
X145137Y373891D02*
Y376891D01*
X95637Y331391D02*
X98637D01*
X97137Y329891D02*
Y332891D01*
X31637Y267391D02*
X34637D01*
X33137Y265891D02*
Y268891D01*
X977635Y559390D02*
X980635D01*
X979135Y557890D02*
Y560890D01*
X869636Y453391D02*
X872636D01*
X871136Y451890D02*
Y454891D01*
X815636Y341391D02*
X818636D01*
X817136Y339891D02*
Y342891D01*
X603636Y305391D02*
X606636D01*
X605136Y303891D02*
Y306891D01*
X185637Y341391D02*
X188637D01*
X187137Y339891D02*
Y342891D01*
X933635Y417391D02*
X936636D01*
X935135Y415891D02*
Y418891D01*
X429636Y307391D02*
X432636D01*
X431137Y305891D02*
Y308891D01*
X429636Y327391D02*
X432636D01*
X431137Y325891D02*
Y328891D01*
X725636Y325391D02*
X728636D01*
X727136Y323891D02*
Y326891D01*
X725636Y365391D02*
X728636D01*
X727136Y363891D02*
Y366891D01*
X933635Y365391D02*
X936636D01*
X935135Y363891D02*
Y366891D01*
X563636Y57391D02*
X566636D01*
X565136Y55891D02*
Y58891D01*
X685636Y57391D02*
X688636D01*
X687136Y55891D02*
Y58891D01*
X799636Y619390D02*
X802636D01*
X801136Y617890D02*
Y620890D01*
X1111635Y419391D02*
X1114635D01*
X1113135Y417891D02*
Y420891D01*
X1133635Y387391D02*
X1136635D01*
X1135135Y385891D02*
Y388891D01*
X1241635Y265391D02*
X1244635D01*
X1243135Y263891D02*
Y266891D01*
X1213635Y255391D02*
X1216635D01*
X1215135Y253891D02*
Y256891D01*
X135637Y285391D02*
X138637D01*
X137137Y283891D02*
Y286891D01*
X511636Y299391D02*
X514636D01*
X513136Y297891D02*
Y300891D01*
X511636Y427391D02*
X514636D01*
X513136Y425891D02*
Y428891D01*
X505636Y141391D02*
X508636D01*
X507136Y139891D02*
Y142891D01*
X695636Y77391D02*
X698636D01*
X697136Y75891D02*
Y78891D01*
X551636Y427391D02*
X554636D01*
X553136Y425891D02*
Y428891D01*
X571636Y267391D02*
X574636D01*
X573136Y265891D02*
Y268891D01*
X577636Y25391D02*
X580636D01*
X579136Y23891D02*
Y26891D01*
X951636Y19391D02*
X954635D01*
X953136Y17891D02*
Y20891D01*
X1205635Y5391D02*
X1208635D01*
X1207135Y3891D02*
Y6891D01*
X1261635Y27391D02*
X1264635D01*
X1263135Y25891D02*
Y28891D01*
X1261635Y73391D02*
X1264635D01*
X1263135Y71891D02*
Y74891D01*
X1365635Y319391D02*
X1368635D01*
X1367135Y317891D02*
Y320891D01*
X1225635Y343391D02*
X1228635D01*
X1227135Y341891D02*
Y344891D01*
X183637Y403391D02*
X186637D01*
X185137Y401891D02*
Y404891D01*
X59637Y273391D02*
X62637D01*
X61137Y271891D02*
Y274891D01*
X179637Y327391D02*
X182637D01*
X181137Y325891D02*
Y328891D01*
X453637Y421391D02*
X456637D01*
X455136Y419891D02*
Y422891D01*
X453637Y143391D02*
X456637D01*
X455136Y141891D02*
Y144891D01*
X931636Y185391D02*
X934635D01*
X933136Y183891D02*
Y186891D01*
X1051635Y203391D02*
X1054635D01*
X1053135Y201891D02*
Y204891D01*
X453637Y593390D02*
X456637D01*
X455136Y591890D02*
Y594890D01*
X453637Y631390D02*
X456637D01*
X455136Y629890D02*
Y632890D01*
X673636Y643390D02*
X676636D01*
X675136Y641890D02*
Y644890D01*
X527636Y421391D02*
X530636D01*
X529136Y419891D02*
Y422891D01*
X527636Y301391D02*
X530636D01*
X529136Y299891D02*
Y302891D01*
X177637Y421391D02*
X180637D01*
X179137Y419891D02*
Y422891D01*
X125637Y313391D02*
X128637D01*
X127137Y311891D02*
Y314891D01*
X107637Y259391D02*
X110637D01*
X109137Y257891D02*
Y260891D01*
X701636Y93391D02*
X704636D01*
X703136Y91891D02*
Y94891D01*
X171637Y383391D02*
X174637D01*
X173137Y381891D02*
Y384891D01*
X467636Y293391D02*
X470636D01*
X469137Y291891D02*
Y294891D01*
X465636Y383391D02*
X468637D01*
X467136Y381891D02*
Y384891D01*
X721636Y67391D02*
X724636D01*
X723136Y65891D02*
Y68891D01*
X151637Y383391D02*
X154637D01*
X153137Y381891D02*
Y384891D01*
X467636Y129391D02*
X470636D01*
X469137Y127891D02*
Y130891D01*
X1051635Y129391D02*
X1054635D01*
X1053135Y127891D02*
Y130891D01*
X1121635Y729390D02*
X1124635D01*
X1123135Y727890D02*
Y730890D01*
X1297635Y699390D02*
X1300635D01*
X1299135Y697890D02*
Y700890D01*
X1303635Y119391D02*
X1306635D01*
X1305135Y117891D02*
Y120891D01*
X1265635Y119391D02*
X1268635D01*
X1267135Y117891D02*
Y120891D01*
X1139635Y223391D02*
X1142635D01*
X1141135Y221891D02*
Y224891D01*
X117637Y117391D02*
X120637D01*
X119137Y115891D02*
Y118891D01*
X527636Y45391D02*
X530636D01*
X529136Y43891D02*
Y46891D01*
X737636Y45391D02*
X740636D01*
X739136Y43891D02*
Y46891D01*
X737636Y73391D02*
X740636D01*
X739136Y71891D02*
Y74891D01*
X797636Y117391D02*
X800636D01*
X799136Y115891D02*
Y118891D01*
X887636Y119391D02*
X890636D01*
X889136Y117891D02*
Y120891D01*
X255637Y51391D02*
X258637D01*
X257137Y49891D02*
Y52891D01*
X1179635Y443391D02*
X1182635D01*
X1181135Y441891D02*
Y444891D01*
X1185635Y343391D02*
X1188635D01*
X1187135Y341891D02*
Y344891D01*
X1185635Y289391D02*
X1188635D01*
X1187135Y287891D02*
Y290891D01*
X1105635Y161391D02*
X1108635D01*
X1107135Y159891D02*
Y162891D01*
X1023635Y161391D02*
X1026635D01*
X1025135Y159891D02*
Y162891D01*
X733636Y135391D02*
X736636D01*
X735136Y133891D02*
Y136891D01*
X843636Y95391D02*
X846636D01*
X845136Y93891D02*
Y96891D01*
X885636Y95391D02*
X888636D01*
X887136Y93891D02*
Y96891D01*
X915636Y95391D02*
X918636D01*
X917136Y93891D02*
Y96891D01*
X667636Y213391D02*
X670636D01*
X669136Y211891D02*
Y214891D01*
X837636Y223391D02*
X840636D01*
X839136Y221891D02*
Y224891D01*
X833636Y267391D02*
X836636D01*
X835136Y265891D02*
Y268891D01*
X663636Y243391D02*
X666636D01*
X665136Y241891D02*
Y244891D01*
X1025635Y117391D02*
X1028635D01*
X1027135Y115891D02*
Y118891D01*
X803636Y129391D02*
X806636D01*
X805136Y127891D02*
Y130891D01*
X803636Y169391D02*
X806636D01*
X805136Y167891D02*
Y170891D01*
X843636Y169391D02*
X846636D01*
X845136Y167891D02*
Y170891D01*
X843636Y267391D02*
X846636D01*
X845136Y265891D02*
Y268891D01*
X713636Y129391D02*
X716636D01*
X715136Y127891D02*
Y130891D01*
X691636Y249391D02*
X694636D01*
X693136Y247891D02*
Y250891D01*
X953635Y53391D02*
X956636D01*
X955135Y51891D02*
Y54891D01*
X849636Y151391D02*
X852636D01*
X851136Y149891D02*
Y152891D01*
X697636Y295391D02*
X700636D01*
X699136Y293891D02*
Y296891D01*
X1041635Y123391D02*
X1044635D01*
X1043135Y121891D02*
Y124891D01*
X847636Y297391D02*
X850636D01*
X849136Y295891D02*
Y298891D01*
X723636Y143391D02*
X726636D01*
X725136Y141891D02*
Y144891D01*
X717636Y317391D02*
X720636D01*
X719136Y315891D02*
Y318891D01*
X911636Y307391D02*
X914636D01*
X913136Y305891D02*
Y308891D01*
X911636Y319391D02*
X914636D01*
X913136Y317891D02*
Y320891D01*
X701636Y317391D02*
X704636D01*
X703136Y315891D02*
Y318891D01*
X717636Y283391D02*
X720636D01*
X719136Y281891D02*
Y284891D01*
X1089635Y131391D02*
X1092635D01*
X1091135Y129891D02*
Y132891D01*
X783636Y247391D02*
X786636D01*
X785136Y245891D02*
Y248891D01*
X757636Y17391D02*
X760636D01*
X759136Y15891D02*
Y18891D01*
X761636Y89391D02*
X764636D01*
X763136Y87891D02*
Y90891D01*
X669636Y255391D02*
X672636D01*
X671136Y253891D02*
Y256891D01*
X669636Y271391D02*
X672636D01*
X671136Y269891D02*
Y272891D01*
X1057635Y19391D02*
X1060635D01*
X1059135Y17891D02*
Y20891D01*
X1057635Y37391D02*
X1060635D01*
X1059135Y35891D02*
Y38891D01*
X881636Y247391D02*
X884636D01*
X883136Y245891D02*
Y248891D01*
X881636Y285391D02*
X884636D01*
X883136Y283891D02*
Y286891D01*
X619636Y15391D02*
X622636D01*
X621136Y13891D02*
Y16891D01*
X871636Y187391D02*
X874636D01*
X873136Y185891D02*
Y188891D01*
X871636Y269391D02*
X874636D01*
X873136Y267891D02*
Y270891D01*
X1081635Y139391D02*
X1084635D01*
X1083135Y137891D02*
Y140891D01*
X637636Y157391D02*
X640636D01*
X639136Y155891D02*
Y158891D01*
X625636Y301391D02*
X628636D01*
X627136Y299891D02*
Y302891D01*
X631636Y139391D02*
X634636D01*
X633136Y137891D02*
Y140891D01*
X763636Y301391D02*
X766636D01*
X765136Y299891D02*
Y302891D01*
X781636Y301391D02*
X784636D01*
X783136Y299891D02*
Y302891D01*
X871636Y467391D02*
X874636D01*
X873136Y465891D02*
Y468890D01*
X661636Y457391D02*
X664636D01*
X663136Y455891D02*
Y458890D01*
X1035635Y447391D02*
X1038635D01*
X1037135Y445891D02*
Y448890D01*
X1133635Y131391D02*
X1136635D01*
X1135135Y129891D02*
Y132891D01*
X655636Y445391D02*
X658636D01*
X657136Y443891D02*
Y446890D01*
X725636Y449390D02*
X728636D01*
X727136Y447891D02*
Y450891D01*
X725636Y417391D02*
X728636D01*
X727136Y415891D02*
Y418891D01*
X641636Y131391D02*
X644636D01*
X643136Y129891D02*
Y132891D01*
X785636Y107391D02*
X788636D01*
X787136Y105891D02*
Y108891D01*
X853636Y435391D02*
X856636D01*
X855136Y433891D02*
Y436891D01*
X649636Y413391D02*
X652636D01*
X651136Y411891D02*
Y414891D01*
X645636Y439391D02*
X648636D01*
X647136Y437891D02*
Y440891D01*
X875636Y435391D02*
X878636D01*
X877136Y433891D02*
Y436891D01*
X1053635Y453391D02*
X1056635D01*
X1055135Y451890D02*
Y454891D01*
X1145635Y113391D02*
X1148635D01*
X1147135Y111891D02*
Y114891D01*
X645636Y427391D02*
X648636D01*
X647136Y425891D02*
Y428891D01*
X707636Y107391D02*
X710636D01*
X709136Y105891D02*
Y108891D01*
X763636Y79391D02*
X766636D01*
X765136Y77891D02*
Y80891D01*
X767636Y21391D02*
X770636D01*
X769136Y19891D02*
Y22891D01*
X903636Y21391D02*
X906636D01*
X905136Y19891D02*
Y22891D01*
X1133635Y-8608D02*
X1136635D01*
X1135135Y-10108D02*
Y-7109D01*
X841636Y459390D02*
X844636D01*
X843136Y457891D02*
Y460891D01*
X665636Y439391D02*
X668636D01*
X667136Y437891D02*
Y440891D01*
X879636Y459390D02*
X882636D01*
X881136Y457891D02*
Y460891D01*
X1029635Y481390D02*
X1032635D01*
X1031135Y479891D02*
Y482891D01*
X1137635Y73391D02*
X1140635D01*
X1139135Y71891D02*
Y74891D01*
X625636Y459390D02*
X628636D01*
X627136Y457891D02*
Y460891D01*
X633636Y489390D02*
X636636D01*
X635136Y487891D02*
Y490891D01*
X861636Y499390D02*
X864636D01*
X863136Y497890D02*
Y500890D01*
X911636Y509390D02*
X914636D01*
X913136Y507890D02*
Y510890D01*
X1049635Y509390D02*
X1052635D01*
X1051135Y507890D02*
Y510890D01*
X1155635Y105391D02*
X1158635D01*
X1157135Y103891D02*
Y106891D01*
X677636Y423391D02*
X680636D01*
X679136Y421891D02*
Y424891D01*
X665636Y423391D02*
X668636D01*
X667136Y421891D02*
Y424891D01*
X755636Y423391D02*
X758636D01*
X757136Y421891D02*
Y424891D01*
X755636Y453391D02*
X758636D01*
X757136Y451890D02*
Y454891D01*
X667636Y483391D02*
X670636D01*
X669136Y481890D02*
Y484891D01*
X761636Y-2609D02*
X764636D01*
X763136Y-4109D02*
Y-1109D01*
X545636Y387391D02*
X548636D01*
X547136Y385891D02*
Y388891D01*
X545636Y371391D02*
X548636D01*
X547136Y369891D02*
Y372891D01*
X705636Y371391D02*
X708636D01*
X707136Y369891D02*
Y372891D01*
X707636Y149391D02*
X710636D01*
X709136Y147891D02*
Y150891D01*
X973635Y59391D02*
X976635D01*
X975135Y57891D02*
Y60891D01*
X545636Y457391D02*
X548636D01*
X547136Y455891D02*
Y458890D01*
X741636Y383391D02*
X744636D01*
X743136Y381891D02*
Y384891D01*
X749636Y443391D02*
X752636D01*
X751136Y441891D02*
Y444891D01*
X689636Y443391D02*
X692636D01*
X691136Y441891D02*
Y444891D01*
X485636Y501390D02*
X488636D01*
X487136Y499890D02*
Y502890D01*
X493636Y609390D02*
X496636D01*
X495136Y607890D02*
Y610890D01*
X717636Y155391D02*
X720636D01*
X719136Y153891D02*
Y156891D01*
X809636Y157391D02*
X812636D01*
X811136Y155891D02*
Y158891D01*
X809636Y241391D02*
X812636D01*
X811136Y239891D02*
Y242891D01*
X991635Y259391D02*
X994635D01*
X993135Y257891D02*
Y260891D01*
X1107635Y137391D02*
X1110635D01*
X1109135Y135891D02*
Y138891D01*
X1105635Y73391D02*
X1108635D01*
X1107135Y71891D02*
Y74891D01*
X649636Y511390D02*
X652636D01*
X651136Y509890D02*
Y512890D01*
X505636Y321391D02*
X508636D01*
X507136Y319891D02*
Y322891D01*
X505636Y283391D02*
X508636D01*
X507136Y281891D02*
Y284891D01*
X447636Y283391D02*
X450636D01*
X449137Y281891D02*
Y284891D01*
X447636Y561390D02*
X450636D01*
X449137Y559890D02*
Y562890D01*
X1081635Y809390D02*
X1084635D01*
X1083135Y807890D02*
Y810890D01*
X1383635Y569390D02*
X1386635D01*
X1385135Y567890D02*
Y570890D01*
X1371635Y241391D02*
X1374635D01*
X1373135Y239891D02*
Y242891D01*
X1355635Y241391D02*
X1358635D01*
X1357135Y239891D02*
Y242891D01*
X505636Y603390D02*
X508636D01*
X507136Y601890D02*
Y604890D01*
X725636Y275391D02*
X728636D01*
X727136Y273891D02*
Y276891D01*
X723636Y243391D02*
X726636D01*
X725136Y241891D02*
Y244891D01*
X723636Y263391D02*
X726636D01*
X725136Y261891D02*
Y264891D01*
X749636Y5391D02*
X752636D01*
X751136Y3891D02*
Y6891D01*
X1119635Y5391D02*
X1122635D01*
X1121135Y3891D02*
Y6891D01*
X1183635Y5391D02*
X1186635D01*
X1185135Y3891D02*
Y6891D01*
X485636Y711390D02*
X488636D01*
X487136Y709890D02*
Y712890D01*
X387637Y265391D02*
X390637D01*
X389137Y263891D02*
Y266891D01*
X547636Y259391D02*
X550636D01*
X549136Y257891D02*
Y260891D01*
X571636Y249391D02*
X574636D01*
X573136Y247891D02*
Y250891D01*
X499636Y333391D02*
X502636D01*
X501136Y331891D02*
Y334891D01*
X735636Y331391D02*
X738636D01*
X737136Y329891D02*
Y332891D01*
X735636Y257391D02*
X738636D01*
X737136Y255891D02*
Y258891D01*
X911636Y329391D02*
X914636D01*
X913136Y327891D02*
Y330891D01*
X911636Y475391D02*
X914636D01*
X913136Y473890D02*
Y476890D01*
X1059635Y475391D02*
X1062635D01*
X1061135Y473890D02*
Y476890D01*
X1151635Y475391D02*
X1154635D01*
X1153135Y473890D02*
Y476890D01*
X1205635Y475391D02*
X1208635D01*
X1207135Y473890D02*
Y476890D01*
X1243635Y405391D02*
X1246635D01*
X1245135Y403891D02*
Y406891D01*
X499636Y265391D02*
X502636D01*
X501136Y263891D02*
Y266891D01*
X517636Y609390D02*
X520636D01*
X519136Y607890D02*
Y610890D01*
X473636Y319391D02*
X476636D01*
X475136Y317891D02*
Y320891D01*
X749636Y253391D02*
X752636D01*
X751136Y251891D02*
Y254891D01*
X745636Y145391D02*
X748636D01*
X747136Y143891D02*
Y146891D01*
X843636Y139391D02*
X846636D01*
X845136Y137891D02*
Y140891D01*
X1063635Y131391D02*
X1066635D01*
X1065135Y129891D02*
Y132891D01*
X1063635Y119391D02*
X1066635D01*
X1065135Y117891D02*
Y120891D01*
X1111635Y119391D02*
X1114635D01*
X1113135Y117891D02*
Y120891D01*
X441637Y319391D02*
X444636D01*
X443136Y317891D02*
Y320891D01*
X441637Y247391D02*
X444636D01*
X443136Y245891D02*
Y248891D01*
X473636Y521390D02*
X476636D01*
X475136Y519890D02*
Y522890D01*
X741636Y303391D02*
X744636D01*
X743136Y301891D02*
Y304891D01*
X735636Y197391D02*
X738636D01*
X737136Y195891D02*
Y198891D01*
X523636Y241391D02*
X526636D01*
X525136Y239891D02*
Y242891D01*
X523636Y197391D02*
X526636D01*
X525136Y195891D02*
Y198891D01*
X735636Y245391D02*
X738636D01*
X737136Y243891D02*
Y246891D01*
X491636Y513390D02*
X494636D01*
X493136Y511890D02*
Y514890D01*
X387637Y241391D02*
X390637D01*
X389137Y239891D02*
Y242891D01*
X491636Y241391D02*
X494636D01*
X493136Y239891D02*
Y242891D01*
X919635Y193391D02*
X922635D01*
X921135Y191891D02*
Y194891D01*
X1101635Y149391D02*
X1104635D01*
X1103135Y147891D02*
Y150891D01*
X737636Y1391D02*
X740636D01*
X739136Y-109D02*
Y2891D01*
X553636Y19391D02*
X556636D01*
X555136Y17891D02*
Y20891D01*
X423637Y583390D02*
X426637D01*
X425136Y581890D02*
Y584890D01*
X423637Y857390D02*
X426637D01*
X425136Y855890D02*
Y858890D01*
X1235635Y135391D02*
X1238635D01*
X1237135Y133891D02*
Y136891D01*
X141637Y927390D02*
X144637D01*
X143137Y925890D02*
Y928890D01*
X157637Y443391D02*
X160637D01*
X159137Y441891D02*
Y444891D01*
X1387635Y423391D02*
X1390635D01*
X1389135Y421891D02*
Y424891D01*
X1387635Y371391D02*
X1390635D01*
X1389135Y369891D02*
Y372891D01*
X1261635Y371391D02*
X1264635D01*
X1263135Y369891D02*
Y372891D01*
X1261635Y153391D02*
X1264635D01*
X1263135Y151891D02*
Y154891D01*
X1243635Y153391D02*
X1246635D01*
X1245135Y151891D02*
Y154891D01*
X1064500Y98000D02*
X1067500D01*
X1066000Y96500D02*
Y99500D01*
X1263635Y415391D02*
X1266635D01*
X1265135Y413891D02*
Y416891D01*
X1220500Y460000D02*
X1223500D01*
X1222000Y458500D02*
Y461500D01*
X543636Y549390D02*
X546636D01*
X545136Y547890D02*
Y550890D01*
X561636Y551390D02*
X564636D01*
X563136Y549890D02*
Y552890D01*
X608500Y532000D02*
X611500D01*
X610000Y530500D02*
Y533500D01*
X29637Y227391D02*
X32637D01*
X31137Y225891D02*
Y228891D01*
X24500Y212000D02*
X27500D01*
X26000Y210500D02*
Y213500D01*
X59637Y231391D02*
X62637D01*
X61137Y229891D02*
Y232891D01*
X692500Y512000D02*
X695500D01*
X694000Y510500D02*
Y513500D01*
X650500Y524000D02*
X653500D01*
X652000Y522500D02*
Y525500D01*
X662500Y526000D02*
X665500D01*
X664000Y524500D02*
Y527500D01*
X670500Y540000D02*
X673500D01*
X672000Y538500D02*
Y541500D01*
X720500Y498000D02*
X723500D01*
X722000Y496500D02*
Y499500D01*
X650500Y584000D02*
X653500D01*
X652000Y582500D02*
Y585500D01*
X678499Y579999D02*
X681499D01*
X679999Y578499D02*
Y581499D01*
X666499Y579999D02*
X669499D01*
X667999Y578499D02*
Y581499D01*
X453637Y182000D02*
X456637D01*
X455136Y180500D02*
Y183500D01*
X762500Y538000D02*
X765500D01*
X764000Y536500D02*
Y539500D01*
X819636Y531390D02*
X822636D01*
X821136Y529890D02*
Y532890D01*
X479636Y311391D02*
X482636D01*
X481136Y309891D02*
Y312891D01*
M02*
