M48
;Layer_Color=9474304
;FILE_FORMAT=4:4
METRIC,LZ
;TYPE=PLATED
T1F00S00C0.3000
T2F00S00C0.7620
T3F00S00C0.9000
T4F00S00C0.9200
T5F00S00C1.0000
T6F00S00C1.0160
T7F00S00C1.3000
T8F00S00C1.6000
T9F00S00C2.3000
;TYPE=NON_PLATED
T10F00S00C1.2000
T11F00S00C1.3000
T12F00S00C1.6000
T13F00S00C3.0000
T14F00S00C3.2500
%
T01
X00057137Y00061391
X00099137Y00063391
X00257137Y00051391
X00289137Y00057391
X00275137Y00011391
X00353137
X00378Y00056
X00407137Y00039391
Y00079391
X00399137Y-00030608
X00421137Y-00024609
X00447136
X00483136Y-00006608
X00497136Y-00016609
X00523136
X00549136Y-00022608
X00555136Y00019391
X00579136Y00025391
X00565136Y00057391
X00529136Y00045391
X00501136Y00061391
X00541136Y00093391
X00619136
X00649136Y00109391
X00675136Y00095391
X00679136Y00083391
X00691136Y00087391
X00697136Y00077391
X00703136Y00093391
X00709136Y00107391
X00721136Y00111391
X00729136Y00095391
X00753136
X00763136Y00089391
X00765136Y00079391
X00763998Y00102
X00759136Y00111391
X00787136Y00107391
X0078Y001
X00782Y00088
X00785136Y00067391
X00823136Y00081391
X00843136Y00079391
X00845136Y00095391
X00855136Y00101391
X00831136Y00097391
Y00059391
X00873136
X00883136Y00079391
X00877136Y00089391
X00887136Y00095391
X00883136Y00023391
X00811136Y-00004609
X00799136Y-00010609
X00775136Y-00026609
X00763136Y-00002609
X00751136Y00005391
X00739136Y00001391
X00731136Y00009391
Y00021391
X00739136Y00045391
Y00073391
X00723136Y00067391
X00715136Y00057391
X00687136
X00691136Y00107391
X00655136Y00017391
X00631136Y00007391
X00621136Y00015391
X00617136Y-00000609
X00759136Y00017391
X00769136Y00021391
X00905136
X00925135Y00025391
X00935135Y00031391
Y00053391
X00945135Y00059391
X00955135Y00053391
X00975135Y00059391
X00986Y00052
X00976Y00042
X01
X01017135Y00041391
X01037135
X01059135Y00037391
Y00019391
X01049135Y00021391
X01041135Y-00008608
X01021135
X01063135
X0109Y00024
X01091135Y00041391
X01079135
X01105135Y00033391
X01104Y00018
X01121135Y00005391
X01135135Y-00008608
X01157135
X01185135Y00005391
X01207135
X01215135Y00021391
X01229135
X01205135Y00035391
X01201135Y00057391
X01188Y00056
X01195135Y00067391
X01217135Y00073391
X01227135
X01213135Y00093391
Y00103391
X01181135Y00105391
X01179135Y00087391
X01173135Y00073391
X01153135
X01139135
X01137135Y00087391
X01123135
X01117135Y00073391
X01107135
X01073135
X01066Y00098
X01071135Y00109391
X01087135Y00099391
X01097135Y00103391
X01117135Y00109391
X01147135Y00113391
X01157135Y00105391
X01143135Y00035391
X01121135Y00037391
X01173135Y00027391
X01263135
X01275135
X01265135Y00011391
X01251135Y-00002609
X01249135Y-00024609
X01277135Y-00012608
X01263135Y00073391
X01007135
X00997135Y00063391
X01003135Y00105391
X01017998Y00106
X01037135Y00111391
X00943136Y00099391
X00933136Y00105391
X0093Y00094
X00917136Y00095391
Y00107391
X00897998Y00104
X00899998Y00092
X00917029Y00078783
X00943136Y00079391
X00953136Y00019391
X00963136Y00025391
X01295135Y00027391
X01325135
X01312Y-00006
X01294Y-00014
X01291135Y00125391
X01305135Y00119391
X01321135Y00125391
X01311135Y00203391
X01299135Y00197391
X01289135Y00191391
X01337135Y00203391
Y00229391
X01357135Y00241391
X01373135
X01367135Y00319391
X01361135Y00377391
X01337135Y00383391
X01331135Y00397391
X01349135
X01291135Y00399391
X01299135Y00377391
X01291135Y00361391
X01321135
X01389135Y00371391
Y00423391
X01289135Y00457391
X01287135Y00285391
X01317135
X01269135Y00277391
X01243135Y00265391
X01239135Y00249391
X01215135Y00245391
Y00255391
X01209135Y00265391
Y00299391
X01219135
X01213135Y00313391
X0123Y0031
X01237135Y00287391
X01187135Y00289391
X01175135Y00283391
X01171135Y00251391
X01179135Y00243391
X01181135Y00227391
Y00213391
Y00191391
Y00175391
X01171135Y00179391
X01159135Y00175391
X0116Y0016
X0117Y00152
X01167135Y00137391
X01178Y00162
X01215135Y00179391
X01239135
Y00163391
X01245135Y00153391
X01263135
X01251135Y00135391
X01237135
X01227135
Y00117391
X01213135
X01267135Y00119391
X01281135Y00125391
X01269135Y00203391
X01227135Y00209391
X01215135Y00225391
X01141135Y00223391
X01121135Y00237391
X01115135Y00247391
X01129135Y00251391
X01113135Y00229391
Y00211391
X01091135Y00209391
Y00229391
X01081135Y00251391
X01057135
X01047135Y00245391
X01031135Y00251391
X01019135
X01003135Y00241391
Y00223391
Y00207391
X01009135Y00195391
X01021135Y00191391
X01013135Y00179391
X01025135Y00161391
X01003135Y00149391
Y00123391
X01027135Y00117391
X01043135Y00123391
X01053135Y00129391
X01065135Y00131391
Y00119391
X01091135Y00131391
X01083135Y00139391
X01109135Y00137391
X01103135Y00149391
X01107135Y00161391
X01121135Y00159391
X01115135Y00175391
X01105135Y00179391
X01091135Y00187391
X01083135Y00173391
X01053135Y00203391
X01031135Y00201391
X00967135Y00221391
X00971135Y00231391
X00955135Y00241391
X00937135Y00237391
X00931135Y00251391
X00911136Y00255391
Y00285391
X00913136Y00307391
Y00319391
Y00329391
X00931135Y00313391
X00937135Y00341391
X00935135Y00365391
X00967135Y00353391
X00971135Y00323391
X01013135
X01017135Y00311391
X01029135
X01035135Y00295391
X01033135Y00283391
X01057135Y00287391
X01065135Y00311391
X01069135Y00329391
X01059135Y00335391
X01035135Y00357391
X01021135
X01005135Y00359391
Y00345391
X01003135Y00335391
X01007135Y00289391
X00997135Y00283391
X00991135Y00271391
X00993135Y00259391
X00959136Y00271391
X00949136Y00277391
X00955135Y00295391
X00943136Y00219391
X00926Y00224
X00921135Y00193391
X00933136Y00185391
X00947135Y00191391
X00968Y00174
X00969136Y00123391
X00931135Y00129391
Y00141391
X00935135Y00153391
X00911136Y00147391
X00907136Y00163391
X00899136Y00171391
X00903136Y00205391
X00895136Y00133391
X00889136Y00119391
X00917136Y00129391
X01113135Y00119391
X01135135Y00131391
X01143135Y00301391
X01133135Y00325391
X01125135Y00333391
X01109135Y00325391
Y00373391
X01083135Y00371391
X01067135Y00375391
X01089135Y00395391
X01109135Y00407391
X01113135Y00419391
X01095135Y00435391
X01077135Y00433391
X01067135Y00435391
X01049135Y00441391
X01037135Y00447391
Y0046939
X01049135Y00463391
X01055135Y00453391
X01061135Y00475391
X01031135Y0048139
Y0050339
X01051135Y0050939
X01099135
Y0049739
X01153135Y00475391
X01197135Y00465391
X01207135Y00475391
X01222Y0046
X01241135Y00467391
X01253135Y00475391
X01265135Y00457391
Y00415391
X01245135Y00405391
X01218Y00406
Y0042
X01199135Y00407391
X01184Y00402
X0119Y00388
X01203135Y00377391
X01197135Y00357391
X01187135Y00343391
X01173135Y00325391
X01141135Y00349391
X01131135Y00355391
X01135135Y00387391
X01133135Y00401391
X01181135Y00443391
X01187135Y0050939
X01219135Y00351391
X01227135Y00343391
X01243135Y00351391
X01263135Y00371391
X01269135Y00387391
X01035135Y00413391
X00995135Y00403391
X00999135Y00387391
X00989135Y00429391
X00967135
X00979135Y00457391
X00945135Y0046139
X00913136Y00475391
X00919136Y00487391
X00907136Y0049539
X00913136Y0050939
X00953136Y0050339
X00997135Y00487391
X00897136Y00477391
X00901136Y00465391
Y00441391
X00891136Y00395391
X00935135Y00417391
X00885136Y00419391
X00877136Y00435391
X00867136Y00441391
X00871136Y00453391
X00873136Y00467391
X00881136Y0045939
X00883136Y00475391
Y0050339
X00863136Y0049939
X00839136Y0050139
X00827136Y0049739
X00812Y00492
X00796Y00496
X00786Y0049
X00787136Y0045939
X00777136Y00455391
Y00445391
X00763136Y00443391
X00751136
X00757136Y00453391
X00739136Y0044939
X00727136
X00733136Y00463391
X00741136Y0047939
X00745136Y0049539
X00757136Y0050139
X00769136Y0050739
X00722Y00498
X00721136Y00483391
X00711136Y0048939
X00709136Y00477391
X00707136Y0050339
X00677136Y0050539
X00669136Y00483391
X00663136Y00457391
X00657136Y00445391
X00647136Y00439391
Y00427391
X00651136Y00413391
X00667136Y00423391
X00679136
X00683136Y00401391
X00717136Y00395391
X00725136Y00387391
X00743136Y00383391
X00737136Y00405391
X00753136Y00411391
X00757136Y00423391
X00767136Y00407391
X00777136Y00383391
X00807136
X00817136
Y00395391
X00837136
X00831136Y00423391
X00821136
X00809136
X00799136Y00419391
X0080522Y00455391
X00815136Y0045939
X00831136
X00843136
X00837136Y00447391
X00855136Y00435391
X00857136Y00423391
X00833136Y00341391
X00817136
X00823136Y00307391
X00805136Y00311391
X00795136
X00801136Y00297391
X00783136Y00301391
X00765136
Y00311391
X00747136Y00323391
X00737136Y00331391
X00727136Y00325391
X00719136Y00317391
X00703136
X00699136Y00295391
X00719136Y00283391
X00727136Y00275391
X00725136Y00263391
X00737136Y00257391
Y00245391
X00725136Y00243391
X00751136Y00253391
X00743136Y00269391
Y00303391
X00765136Y00347391
X00783136Y00335391
Y00267391
X00777136Y00253391
X00785136Y00247391
X00777136Y00229391
X00771136Y00199391
X00753136
X00737136Y00197391
X00741136Y00161391
X00747136Y00145391
X00735136Y00135391
X00725136Y00143391
X00719136Y00155391
X00709136Y00149391
X00701136Y00137391
X00715136Y00129391
X00681136Y00155391
X00649136Y00143391
X00643136Y00131391
X00633136Y00139391
X00631136Y00117391
X00593136Y00123391
X00533136
X00537136Y00159391
X00547136Y00153391
X00507136Y00141391
X00513136Y00201391
X00525136Y00197391
X00519136Y00213391
X00537136Y00221391
X00549136Y00207391
X00565136Y00209391
X00581136Y00221391
X00593136Y00237391
Y00253391
Y00267391
X00581136Y00259391
X00573136Y00267391
Y00249391
X00549136Y00259391
X00535136Y00253391
X00525136Y00241391
X00493136
X00501136Y00265391
X00507136Y00283391
X00513136Y00299391
X00529136Y00301391
X00507136Y00321391
X00501136Y00333391
X00559136Y00339391
X00575136Y00347391
X00589136Y00353391
X00603136
X00615136
X00611136Y00341391
X00605136Y00305391
X00615136Y00299391
X00627136Y00301391
X00592Y00302
X00615136Y00259391
X00607136Y00231391
X00617136Y00225391
Y00215391
X00601136Y00209391
X00669136Y00213391
X00681136Y00205391
X00677136Y00239391
X00665136Y00243391
X00671136Y00255391
Y00271391
X00689136Y00269391
X00693136Y00249391
X00677136Y00307391
X00695136Y00365391
X00707136Y00371391
X00727136Y00365391
Y00417391
X00709136
X00691136Y00443391
X00667136Y00439391
X00623136Y00437391
X00627136Y0045939
X00607136
Y0048939
X00603136Y0049939
X00591136
X00619136Y00493391
X00635136Y0048939
X00625136Y00409391
X00593136Y00417391
X00583136Y00405391
X00575136Y00389391
X00559136Y00393391
X00547136Y00387391
Y00371391
X00517136Y00399391
X00519136Y00415391
X00529136Y00421391
X00513136Y00427391
X00553136
X00541136Y00447391
X00547136Y00457391
X00573136Y0045939
X00579136Y00437391
X00639136Y00157391
X00777136Y00177391
X00805136Y00169391
X00811136Y00157391
X00821136
X00833136Y00133391
X00845136Y00139391
X00851136Y00151391
X00861136Y00149391
Y00133391
X00873136Y00121391
X00881136Y00153391
X00875136Y00163391
X00887136Y00165391
X00867136Y00171391
X00873136Y00187391
X00857136Y00199391
X00883136Y00209391
Y00247391
X00873136Y00269391
X00883136Y00285391
X00875136Y00307391
Y00323391
X00849136Y00297391
X00837136
X00835136Y00267391
X00845136
X00815136
X00805136Y00261391
X00811136Y00241391
X00827136Y00235391
X00839136Y00223391
X00799136Y00207391
X00805136Y00129391
X00799136Y00117391
X00845136Y00169391
X00481136Y00195391
X00487136Y00207391
X00475136Y00213391
X00455136Y00182
X00437136Y00175391
X00409137Y00157391
X00403137Y00189391
X00397137Y00207391
X00389137Y00241391
Y00265391
X00443136Y00247391
X00449137Y00283391
X00469137Y00293391
X00481136Y00311391
X00475136Y00319391
X00443136
X00431137Y00327391
Y00307391
X00461137Y00339391
Y00359391
X00467136Y00383391
X00487136Y00409391
X00455136Y00421391
X00443136Y00433391
X00403137Y00427391
X00397137Y00415391
X00377137
X00383137Y00397391
X00371137Y00377391
X00377137Y00367391
X00371137Y00347391
X00351137Y00333391
X00313137Y00319391
X00297137Y00313391
X00281137
X00263137
X00243137
X0023Y00334
X00215137Y00335391
X00209137Y00317391
X00194Y00318
X00181137Y00327391
X00187137Y00341391
X00193137Y00375391
X00197137Y00391391
X00203137Y00409391
X00185137Y00403391
X00179137Y00421391
X00169137Y00427391
X00159137Y00443391
X00145137Y00409391
Y00375391
X00153137Y00383391
X00173137
X00219137Y00375391
X00249137
X00279137
X00293137Y00363391
X00313137Y00369391
X00272Y00396
X00259137Y00397391
X00275137Y00333391
Y00277391
X00289137Y00275391
X00297137Y00287391
X00323137
X00259137Y00249391
X00237137
X00221137Y00241391
X00195137Y00233391
X00169137Y00249391
X00147137Y00233391
X00133137Y00237391
X00113137Y00221391
X00099137Y00223391
X00109137Y00259391
X00105137Y00275391
X00117137Y00279391
X00115137Y00295391
X00101137
X00133137Y00299391
X00137137Y00285391
X00159137Y00279391
X00186Y0028
X00224
X00169137Y00317391
X00155137Y00329391
X00145137Y00319391
X00127137Y00313391
X00111137Y00325391
X00105137Y00339391
X00097137Y00331391
X00107137Y00357391
X00113137Y00393391
X00099137Y00165391
X00119137Y00117391
X00257137Y00139391
X00455136Y00143391
X00469137Y00129391
X00409137Y00391391
X00487136Y0050139
X00089137Y00409391
Y00399391
X00077137Y00415391
X00067137
X00057137Y00419391
Y00377391
X00059137Y00365391
X00067137Y00357391
X00075137Y00365391
Y00377391
X00073137Y00321391
X00061137
X00041137Y00317391
Y00299391
Y00287391
X00033137Y00267391
X00041137Y00251391
X00025137Y00239391
X00031137Y00227391
X00026Y00212
X00011137Y00189391
X00039137Y00185391
X00071137
X00061137Y00231391
X00067137Y00243391
X00061137Y00273391
X00073137Y00275391
Y00303391
X00093137Y00315391
X00019137Y00329391
X00013137Y00359391
Y00423391
X00011137Y00139391
Y00129391
X00039137Y00139391
X00053137Y00145391
X00323137Y0064739
X00403137Y0059339
X00419137
X00425136Y0058339
X00437136Y0059339
X00455136
X00449137Y0060539
X00455136Y0063139
X00457136Y0064739
X00475136Y0065739
X00487136Y0071139
X00475136Y0083139
X00457136Y0085139
X00425136Y0085739
X00413137Y0085139
X00403137Y0086339
X00419137Y0086939
X00319137Y0087539
X00449137Y0056139
X00443136Y0055139
X00475136Y0052139
X00493136Y0051339
X00545136Y0053939
Y0054939
X00563136Y0055139
X00595136Y0054539
X00609136Y0055139
X0061Y00532
X00583136Y0052539
X00587136Y0058739
X00583136Y0061539
X00571136Y0060339
X00613136Y0060539
X00653136Y0060939
X0067Y00608
X00671136Y0062139
X00685136
Y0060939
X007Y00608
X00695136Y0062539
X00688Y00644
X00675136Y0064339
X00668Y0063739
X00652Y00642
X00649136Y0065739
X00664Y0066
X00679136Y0066139
X00695136Y0065539
X00705136Y0064939
Y0068139
Y0069339
X00691136Y0067539
X0067Y00682
X00669136Y0069739
X00649136Y0069139
X00652Y00676
X00617136Y0068739
Y0069739
X00591136Y0071339
X00576Y00714
X00554Y00712
X00539136Y0071939
X00515136
X00517136Y0069539
X00501136Y0067339
X00545136Y0066539
X00565136Y0064939
X00527136Y0062339
X00519136Y0060939
X00507136Y0060339
X00495136Y0060939
Y0074339
X00575136Y0073739
X00591136Y0073139
X00643136Y0073939
Y0075339
Y0077539
Y0078739
X00677136Y0077739
Y0075939
X00685136Y0073139
X00719136Y0072939
X00731136
X00741136
X00747136Y0073939
X0078Y00726
X00783136Y0071539
X00793136Y0070739
X00807136Y0072939
X00823136
X00833136
X00857136Y0073739
X00886Y0073
X00887136Y0074539
Y0080739
X00855136Y0081139
X00825136Y0080339
X00819136Y0079339
X00801136Y0079539
X00797136Y0081339
X00813136Y0080939
X00807136Y0084939
X00797136Y0084339
X00763136Y0084139
X00775136Y0081939
X00767136Y0078939
X00737136Y0079339
X00723136Y0079939
X00717136Y0078739
X00705136Y0084339
X00753136Y0086739
X00829136Y0090739
X00631136Y0088939
X00621136Y0082539
X00557136Y0082139
X00735136Y0069739
X00763136
X00769136Y0068539
X00767136Y0067339
X00749136Y0066739
X00734Y00664
X00724Y00616
X0072Y00598
X00723136Y0057739
X00711136
X00695136
X00679999Y00579999
X00667999
X00652Y00584
X00637136Y0056739
X00627136Y0056339
X00637136Y0054739
X00659136Y0054139
X00672Y0054
X00664Y00526
X00652Y00524
X00651136Y0051139
X00694Y00512
X00691136Y0053339
X00697136Y0054539
X00711136Y0053939
X00721136Y0054339
X00764Y00538
X00757136Y0052339
X00753136Y0058939
X00769136Y0059339
Y0061339
X00766Y00628
X00756Y00618
X00744Y00614
X00801136Y0061939
Y0064739
X00809136Y0065539
X00839136Y0068939
X00849136
X00847136Y0062539
X00871136Y0062939
X00885136Y0061939
Y0060739
X00865136Y0060139
X00875136Y0053939
X00845136
X00851136Y0051539
X00821136Y0053139
Y0056939
X00785136
X00891136Y0056339
X00907136Y0053939
X00934Y0054
X00963136Y0054139
X00961135Y0055939
X00967135Y0056939
X00985135Y0057339
X00979135Y0055939
X00997135
X01005135Y0055139
X01011135Y0056539
X01041135
X01057135Y0057339
X01067135Y0055139
X01047135Y0054139
X01043135Y0051739
X01089135Y0051939
X01143135Y0051339
X01161135Y0051739
X01155135Y0052739
X01199135Y0052939
Y0056339
X01187135Y0056939
X01193135Y0058139
X01185135Y0059339
X01179135Y0060739
X01191135Y0062139
X01207135Y0062539
X01217135
X01235135Y0061939
X01251135Y0061339
X01263135Y0060539
X01279135Y0061339
X01283135Y0055539
X01263135Y0055739
X01217135Y0055539
X01175135Y0056139
X01151135Y0056939
X01131135Y0057939
X01121135Y0060139
X01099135Y0061339
X01075135Y0058939
X01031135Y0060939
X01035135Y0062739
X00991135
X00993135Y0061539
X00946Y00612
X00952Y00598
X00954Y00584
X00931135Y0060139
X00915136
X00925135Y0061339
X00903136
X00907136Y0064539
X00908Y00664
X0091Y00674
X00913136Y0068939
X00928Y00688
X00936Y00694
X0095
X00949136Y0067939
Y0065939
X00945135Y0064539
X01015135Y0066539
X01051135Y0068939
X01062Y00702
X01085135Y0068739
X01099135Y0072139
X01123135Y0072939
X01129135Y0066339
X01143135Y0063339
X01139135Y0062139
X01175135Y0063339
Y0065739
X01225135Y0067139
X01247135Y0068739
X01253135Y0080339
X01209135
X01177135Y0079139
X01167135Y0077339
X01133135Y0079339
X01119135Y0079739
X01095135Y0079139
X01071135Y0078739
X01063135Y0077939
X01061135Y0079339
X01029135Y0079539
Y0084739
X01063135Y0084339
X01091135Y0083339
X01083135Y0080939
X01087135Y0089339
X01101135Y0088139
X01051135Y0088939
X01033135Y0090539
X0098Y00876
X00965135Y0086739
X00931135Y0085539
X00913136Y0084339
X00919136Y0082139
X00901136Y0080739
X00907136Y0079539
X00925135Y0078939
X00947135Y0079539
X00967135
X00979135Y0081139
X00977135Y0082739
X00957135Y0076939
X00945135Y0076739
X00931135Y0074739
X00917136Y0074539
X00889136Y0071139
X00901136Y0069539
X00977135Y0070739
X00991135Y0072539
X01019135Y0072339
X01035135
X00991135Y0052939
X00945135Y0090739
X01293135Y0079139
X01325135Y0075139
X01299135Y0069939
X01309135Y0066139
X01325135Y0061339
X01335135Y0061939
X01333135Y0060539
X01321135Y0059939
X01289135Y0061339
X01347135Y0063339
X01361135Y0061939
X01385135Y0056939
X01379135Y0055739
X01365135Y0053739
X01355135Y0052339
X01165135Y00969389
X00967135Y0093539
X00955135Y0094339
X00761136Y0092539
X00347137Y0091939
X00317137Y0095339
X00245137
X00273137Y0091939
X00205137
X00177137Y0095339
X00143137Y0092739
X00133137Y0091939
X00107137Y0095739
T02
X0000183Y0054229
X0010183
X0038183
X0048183
T03
X0011938Y-0000508
X008282Y-0001794
X008536
X00879
X009044
X009298
X009552
X009806
X01006
X0131572Y0009906
X01384568Y00100824
Y00075424
Y00050024
Y00126224
Y00151624
Y00177024
Y00202424
Y00227824
Y00253224
Y00278624
Y00304024
Y00329424
X0132052Y0026876
Y0024336
Y0021796
X0129004
Y0024336
Y0026876
X0069866Y008101
X0067326
X0064786
X0062246
X0059706
X0060976Y008355
X0063516
X0066056
X0068596
X0058436
X0100346Y00891379
X013716Y0086614
X0100346Y00916779
Y00942179
X0039624Y0093218
X0005588Y0092964
T04
X0084348Y0083074
Y0085074
X0086848
Y0083074
T05
X0122778Y00865281
Y0088528
X0126778Y0090528
X0126528Y0084328
X0129028
X0128778Y0090528
T06
X00573692Y009244
Y0094472
X00709328
Y009244
T07
X01313428Y0039697
X01391928Y0044747
X01359678Y0049322
X01313778Y00550314
X01392278Y00600814
X01360028Y00646564
T08
X0056404Y0086852
X0071898
T09
X0079578Y0087784
X0091618
T10
X005652Y0001091
T11
X01327428Y0042097
X01281428Y0048747
X01281778Y00640814
X01327778Y00574314
T12
X003172Y0001091
T13
X0Y0
X0137
Y0094
X0
T14
X0058436Y00899
X0069866
M30
