G04 Layer_Color=255*
%FSLAX44Y44*%
%MOMM*%
G71*
G01*
G75*
%ADD10O,0.3000X1.7000*%
%ADD11R,1.1000X1.0000*%
%ADD13R,1.0000X1.1000*%
%ADD14R,1.5000X1.3000*%
%ADD28R,1.6000X1.8000*%
%ADD29R,1.8000X1.6000*%
%ADD34R,2.2000X2.0000*%
%ADD40R,1.1000X2.1500*%
%ADD41R,1.1000X2.1500*%
%ADD42R,3.5000X2.1500*%
%ADD47C,0.1000*%
%ADD48C,1.0000*%
%ADD49R,1.5000X1.5000*%
%ADD50C,1.5000*%
%ADD51R,1.5000X1.5000*%
%ADD52C,1.3000*%
%ADD53C,0.9000*%
%ADD54O,2.2860X2.0320*%
%ADD55O,2.0320X2.2860*%
%ADD56C,2.5000*%
%ADD57C,2.9500*%
%ADD58C,2.6500*%
%ADD59C,1.5000*%
%ADD60R,1.5000X1.5000*%
%ADD61C,1.5240*%
%ADD62C,3.8000*%
%ADD63C,1.6000*%
%ADD64R,1.6000X1.6000*%
%ADD65O,2.0000X4.0000*%
%ADD66O,4.0000X2.0000*%
%ADD67O,4.5000X2.0000*%
%ADD92O,1.7000X0.3500*%
%ADD93R,1.1000X1.8500*%
%ADD94R,1.1000X0.6500*%
%ADD95R,0.9906X0.3937*%
%ADD96R,1.3000X1.5000*%
%ADD97R,1.0000X1.6000*%
%ADD98R,2.3000X2.3000*%
%ADD99R,1.4000X3.5000*%
%ADD100R,1.1000X3.7900*%
%ADD101R,2.7000X3.0000*%
%ADD102R,1.0000X3.5000*%
%ADD103R,1.0000X2.5000*%
%ADD104R,0.3000X1.3000*%
%ADD105R,1.8000X2.2000*%
%ADD106R,0.7000X0.2500*%
%ADD107R,1.1500X0.4000*%
D10*
X738220Y-14720D02*
D03*
X733220D02*
D03*
X728220D02*
D03*
X723220D02*
D03*
X718220D02*
D03*
X713220D02*
D03*
X708220D02*
D03*
X703220D02*
D03*
X698220D02*
D03*
X693220D02*
D03*
X688220D02*
D03*
X683220D02*
D03*
X678220D02*
D03*
X673220D02*
D03*
X668220D02*
D03*
X663220D02*
D03*
X658220D02*
D03*
X653220D02*
D03*
X648220D02*
D03*
X643220D02*
D03*
X638220D02*
D03*
X633220D02*
D03*
X628220D02*
D03*
X623220D02*
D03*
X738220Y177280D02*
D03*
X733220D02*
D03*
X728220D02*
D03*
X723220D02*
D03*
X718220D02*
D03*
X713220D02*
D03*
X708220D02*
D03*
X703220D02*
D03*
X698220D02*
D03*
X693220D02*
D03*
X688220D02*
D03*
X683220D02*
D03*
X678220D02*
D03*
X673220D02*
D03*
X668220D02*
D03*
X663220D02*
D03*
X658220D02*
D03*
X653220D02*
D03*
X648220D02*
D03*
X643220D02*
D03*
X638220D02*
D03*
X633220D02*
D03*
X628220D02*
D03*
X623220D02*
D03*
D11*
X818040Y96520D02*
D03*
X801040D02*
D03*
X668900Y596900D02*
D03*
X651900D02*
D03*
X1116561Y312580D02*
D03*
X1133560D02*
D03*
X690000Y596900D02*
D03*
X707000D02*
D03*
X752720Y601980D02*
D03*
X735720D02*
D03*
X1283705Y5627D02*
D03*
X1300704D02*
D03*
X1182759Y312421D02*
D03*
X1199759D02*
D03*
X1067680Y228601D02*
D03*
X1050681D02*
D03*
X1010039Y86361D02*
D03*
X1027039D02*
D03*
X1053220Y86360D02*
D03*
X1070219D02*
D03*
X1093860D02*
D03*
X1110859D02*
D03*
X1149740D02*
D03*
X1166739D02*
D03*
X607940Y436880D02*
D03*
X590940D02*
D03*
X818920Y434500D02*
D03*
X801920D02*
D03*
X796840Y322740D02*
D03*
X813840D02*
D03*
X575700Y322580D02*
D03*
X592700D02*
D03*
X288060Y302100D02*
D03*
X271060D02*
D03*
X323620D02*
D03*
X306620D02*
D03*
X285520Y264000D02*
D03*
X268520D02*
D03*
X255040Y302100D02*
D03*
X238040D02*
D03*
X1255640Y391160D02*
D03*
X1238640D02*
D03*
X1225159Y287020D02*
D03*
X1208159D02*
D03*
D13*
X599440Y590940D02*
D03*
Y607940D02*
D03*
X1226820Y85480D02*
D03*
Y102480D02*
D03*
X1226821Y173600D02*
D03*
Y156600D02*
D03*
X1226821Y222640D02*
D03*
Y239640D02*
D03*
X955041Y229480D02*
D03*
Y212481D02*
D03*
Y165980D02*
D03*
Y148980D02*
D03*
X955040Y88020D02*
D03*
Y105020D02*
D03*
X990760Y694920D02*
D03*
Y711920D02*
D03*
X823120Y714460D02*
D03*
Y697460D02*
D03*
X759620Y811760D02*
D03*
Y828760D02*
D03*
X604680Y682220D02*
D03*
Y699220D02*
D03*
X56040Y390120D02*
D03*
Y407120D02*
D03*
X1231900Y425840D02*
D03*
Y442840D02*
D03*
X1264920Y445380D02*
D03*
Y428380D02*
D03*
X1186180Y479180D02*
D03*
Y496180D02*
D03*
X1252220Y509660D02*
D03*
Y526660D02*
D03*
X1150978Y555974D02*
D03*
Y538974D02*
D03*
X1186538Y555974D02*
D03*
Y538974D02*
D03*
D14*
X665640Y878020D02*
D03*
Y859020D02*
D03*
X630080Y875480D02*
D03*
Y856480D02*
D03*
X901860Y753560D02*
D03*
Y734560D02*
D03*
X945040D02*
D03*
Y753560D02*
D03*
X10320Y171900D02*
D03*
Y152900D02*
D03*
X38260Y171900D02*
D03*
Y152900D02*
D03*
X984620Y370080D02*
D03*
Y389080D02*
D03*
X1032880Y370080D02*
D03*
Y389080D02*
D03*
X1196340Y443840D02*
D03*
Y424840D02*
D03*
X1090018Y645874D02*
D03*
Y626874D02*
D03*
D28*
X3940Y568800D02*
D03*
X31940D02*
D03*
X103060D02*
D03*
X75060D02*
D03*
X382460D02*
D03*
X354460D02*
D03*
X568840Y567500D02*
D03*
X540840D02*
D03*
X720060Y683260D02*
D03*
X748060D02*
D03*
X568840Y524320D02*
D03*
X540840D02*
D03*
X748060Y640080D02*
D03*
X720060D02*
D03*
X339220Y218280D02*
D03*
X367220D02*
D03*
X306200Y264000D02*
D03*
X334200D02*
D03*
X285880Y218280D02*
D03*
X313880D02*
D03*
X260540D02*
D03*
X232540D02*
D03*
X156400D02*
D03*
X128400D02*
D03*
X207200D02*
D03*
X179200D02*
D03*
D29*
X1292860Y415260D02*
D03*
Y443260D02*
D03*
X273520Y66620D02*
D03*
Y38620D02*
D03*
Y127520D02*
D03*
Y155520D02*
D03*
X693580Y775840D02*
D03*
Y747840D02*
D03*
X970280Y892780D02*
D03*
Y920780D02*
D03*
X99220Y910400D02*
D03*
Y938400D02*
D03*
X170340Y910400D02*
D03*
Y938400D02*
D03*
X238920Y910400D02*
D03*
Y938400D02*
D03*
X310040Y910400D02*
D03*
Y938400D02*
D03*
X751840Y882620D02*
D03*
Y910620D02*
D03*
X581820Y679320D02*
D03*
Y651320D02*
D03*
X792640Y692020D02*
D03*
Y664020D02*
D03*
X800259Y752920D02*
D03*
Y780920D02*
D03*
X961420Y837600D02*
D03*
Y809600D02*
D03*
X863760Y752920D02*
D03*
Y780920D02*
D03*
X1008540Y608140D02*
D03*
Y636140D02*
D03*
X858680Y643700D02*
D03*
Y671700D02*
D03*
X972980Y608140D02*
D03*
Y636140D02*
D03*
X929800Y643700D02*
D03*
Y671700D02*
D03*
X891700D02*
D03*
Y643700D02*
D03*
X994440Y809600D02*
D03*
Y837600D02*
D03*
X805180Y577880D02*
D03*
Y549880D02*
D03*
X513240Y763140D02*
D03*
Y735140D02*
D03*
X548800Y763140D02*
D03*
Y735140D02*
D03*
X627540Y770760D02*
D03*
Y742760D02*
D03*
X764700Y770760D02*
D03*
Y742760D02*
D03*
X660560D02*
D03*
Y770760D02*
D03*
X825659Y653920D02*
D03*
Y625920D02*
D03*
X1245238Y645154D02*
D03*
Y673154D02*
D03*
X1204598D02*
D03*
Y645154D02*
D03*
X1247678Y569594D02*
D03*
Y597594D02*
D03*
X1214658Y569594D02*
D03*
Y597594D02*
D03*
X1282700Y598200D02*
D03*
Y570200D02*
D03*
X1158598Y619834D02*
D03*
Y647834D02*
D03*
X1123038Y617294D02*
D03*
Y645294D02*
D03*
X1115418Y574174D02*
D03*
Y546174D02*
D03*
X1082398D02*
D03*
Y574174D02*
D03*
X508000Y623540D02*
D03*
Y651540D02*
D03*
X843440Y582800D02*
D03*
Y554800D02*
D03*
X906940Y582800D02*
D03*
Y554800D02*
D03*
X873920Y582800D02*
D03*
Y554800D02*
D03*
X937420D02*
D03*
Y582800D02*
D03*
X1320800Y140940D02*
D03*
Y168940D02*
D03*
X1290320Y140940D02*
D03*
Y168940D02*
D03*
Y346260D02*
D03*
Y318260D02*
D03*
X1320800D02*
D03*
Y346260D02*
D03*
X830740Y778380D02*
D03*
Y750380D02*
D03*
X726600Y745300D02*
D03*
Y773300D02*
D03*
D34*
X12860Y376000D02*
D03*
Y406000D02*
D03*
D40*
X1107420Y352700D02*
D03*
X1061420D02*
D03*
D41*
X1084420D02*
D03*
D42*
X1084419Y414700D02*
D03*
D47*
X76900Y106520D02*
X80900D01*
X78900Y104520D02*
Y108520D01*
X953200Y924400D02*
X957200D01*
X955200Y922400D02*
Y926400D01*
X749780Y921660D02*
Y925660D01*
X747780Y923660D02*
X751780D01*
X132240Y935100D02*
Y939100D01*
X130240Y937100D02*
X134240D01*
X343600D02*
X347600D01*
X345600Y935100D02*
Y939100D01*
X269940Y937100D02*
X273940D01*
X271940Y935100D02*
Y939100D01*
X201360Y937100D02*
X205360D01*
X203360Y935100D02*
Y939100D01*
D48*
X1265280Y843280D02*
X1290280D01*
X1227780Y865281D02*
Y885280D01*
X1267780Y905280D02*
X1287780D01*
D49*
X1315720Y99060D02*
D03*
X1371600Y866140D02*
D03*
X396240Y932180D02*
D03*
X55880Y929640D02*
D03*
X119380Y-5080D02*
D03*
D50*
X1290040Y217960D02*
D03*
Y243360D02*
D03*
X1384568Y50024D02*
D03*
Y75424D02*
D03*
Y100824D02*
D03*
Y126224D02*
D03*
Y151624D02*
D03*
Y177024D02*
D03*
Y202424D02*
D03*
Y227824D02*
D03*
Y253224D02*
D03*
Y278624D02*
D03*
Y304024D02*
D03*
X1320520Y243360D02*
D03*
Y217960D02*
D03*
X1003460Y942179D02*
D03*
Y916779D02*
D03*
X1227780Y885280D02*
D03*
Y865281D02*
D03*
X1287780Y905280D02*
D03*
X1267780D02*
D03*
X853600Y-17940D02*
D03*
X879000D02*
D03*
X904400D02*
D03*
X929800D02*
D03*
X955200D02*
D03*
X980600D02*
D03*
X1006000D02*
D03*
D51*
X1290040Y268760D02*
D03*
X1384568Y329424D02*
D03*
X1320520Y268760D02*
D03*
X1003460Y891379D02*
D03*
D52*
X317200Y10910D02*
D03*
D53*
X565200D02*
D03*
D54*
X1313428Y396970D02*
D03*
X1359678Y493220D02*
D03*
X1327428Y420970D02*
D03*
X1313778Y550314D02*
D03*
X1360028Y646564D02*
D03*
X1327778Y574314D02*
D03*
D55*
X1391928Y447470D02*
D03*
X1281428Y487470D02*
D03*
X1392278Y600814D02*
D03*
X1281778Y640814D02*
D03*
D56*
X1370000Y0D02*
D03*
X0D02*
D03*
Y940000D02*
D03*
X1370000D02*
D03*
D57*
X584360Y899000D02*
D03*
X698660D02*
D03*
D58*
X564040Y868520D02*
D03*
X718980D02*
D03*
D59*
X660560Y835500D02*
D03*
X635160D02*
D03*
X647860Y810100D02*
D03*
X622460D02*
D03*
X609760Y835500D02*
D03*
X685960D02*
D03*
X673260Y810100D02*
D03*
X597060D02*
D03*
X584360Y835500D02*
D03*
X1265280Y843280D02*
D03*
X1290280D02*
D03*
D60*
X698660Y810100D02*
D03*
X828200Y-17940D02*
D03*
D61*
X709328Y924400D02*
D03*
Y944720D02*
D03*
X573692D02*
D03*
Y924400D02*
D03*
X1830Y542290D02*
D03*
X481830D02*
D03*
X381830D02*
D03*
X101830D02*
D03*
D62*
X916180Y877840D02*
D03*
X795780D02*
D03*
D63*
X868480Y850740D02*
D03*
X843480D02*
D03*
X868480Y830740D02*
D03*
D64*
X843480D02*
D03*
D65*
X1227780Y875281D02*
D03*
D66*
X1277780Y905280D02*
D03*
D67*
Y843280D02*
D03*
D92*
X801360Y21550D02*
D03*
Y28050D02*
D03*
Y34550D02*
D03*
Y41050D02*
D03*
Y47550D02*
D03*
Y54050D02*
D03*
Y60550D02*
D03*
Y67050D02*
D03*
Y73550D02*
D03*
Y80050D02*
D03*
X858360Y21550D02*
D03*
Y28050D02*
D03*
Y34550D02*
D03*
Y41050D02*
D03*
Y47550D02*
D03*
Y54050D02*
D03*
Y60550D02*
D03*
Y67050D02*
D03*
Y73550D02*
D03*
Y80050D02*
D03*
D93*
X36420Y835140D02*
D03*
X51420D02*
D03*
X66420D02*
D03*
X81420D02*
D03*
X96420D02*
D03*
X111420D02*
D03*
X126420D02*
D03*
X231420D02*
D03*
X246420D02*
D03*
X261420D02*
D03*
X276420D02*
D03*
X291420D02*
D03*
X366420D02*
D03*
X381420D02*
D03*
X396420D02*
D03*
X411420D02*
D03*
X426420D02*
D03*
X441420D02*
D03*
X456420D02*
D03*
X36420Y663140D02*
D03*
X51420D02*
D03*
X66420D02*
D03*
X81420D02*
D03*
X96420D02*
D03*
X111420D02*
D03*
X126420D02*
D03*
X231420D02*
D03*
X246420D02*
D03*
X261420D02*
D03*
X276420D02*
D03*
X291420D02*
D03*
X306420D02*
D03*
X321420D02*
D03*
X336420D02*
D03*
X351420D02*
D03*
X366420D02*
D03*
X381420D02*
D03*
X396420D02*
D03*
X411420D02*
D03*
X426420D02*
D03*
X441420D02*
D03*
X456420D02*
D03*
D94*
X85820Y174440D02*
D03*
Y164940D02*
D03*
Y155440D02*
D03*
X61820D02*
D03*
Y164940D02*
D03*
Y174440D02*
D03*
D95*
X76294Y405854D02*
D03*
Y399250D02*
D03*
Y392850D02*
D03*
Y386246D02*
D03*
X101898D02*
D03*
Y392850D02*
D03*
Y399250D02*
D03*
Y405854D02*
D03*
D96*
X547980Y680720D02*
D03*
X528980D02*
D03*
X561260Y620220D02*
D03*
X542260D02*
D03*
X212860Y264000D02*
D03*
X193860D02*
D03*
X198940Y302100D02*
D03*
X217940D02*
D03*
X250960Y264000D02*
D03*
X231960D02*
D03*
X177300Y302100D02*
D03*
X158300D02*
D03*
X174760Y264000D02*
D03*
X155760D02*
D03*
X365260Y611980D02*
D03*
X346260D02*
D03*
X428760D02*
D03*
X409760D02*
D03*
D97*
X10320Y72820D02*
D03*
Y114820D02*
D03*
D98*
X56400Y106520D02*
D03*
X101400D02*
D03*
D99*
X575700Y178410D02*
D03*
D100*
X345200Y-13640D02*
D03*
X536450Y9360D02*
D03*
X520200D02*
D03*
X495200D02*
D03*
X470200D02*
D03*
X445200Y1360D02*
D03*
X420200D02*
D03*
X370200Y14360D02*
D03*
X395200Y9360D02*
D03*
D101*
X582700Y-15590D02*
D03*
X301700D02*
D03*
D102*
X561700Y178410D02*
D03*
D103*
X546700Y183410D02*
D03*
D104*
X149040Y360940D02*
D03*
X154040D02*
D03*
X159040D02*
D03*
X164040D02*
D03*
X169040D02*
D03*
X174040D02*
D03*
X179040D02*
D03*
X184040D02*
D03*
X189040D02*
D03*
X194040D02*
D03*
X199040D02*
D03*
X204040D02*
D03*
X209040D02*
D03*
X214040D02*
D03*
X219040D02*
D03*
X224040D02*
D03*
X229040D02*
D03*
X234040D02*
D03*
X239040D02*
D03*
X244040D02*
D03*
X249040D02*
D03*
X254040D02*
D03*
X259040D02*
D03*
X264040D02*
D03*
X269040D02*
D03*
X274040D02*
D03*
X279040D02*
D03*
X284040D02*
D03*
D105*
X130040Y393440D02*
D03*
X303039D02*
D03*
D106*
X51360Y232980D02*
D03*
Y226980D02*
D03*
Y220980D02*
D03*
Y238980D02*
D03*
Y244980D02*
D03*
Y250980D02*
D03*
Y256980D02*
D03*
Y262980D02*
D03*
Y268980D02*
D03*
Y274980D02*
D03*
Y280980D02*
D03*
Y286980D02*
D03*
Y292980D02*
D03*
Y298980D02*
D03*
Y304980D02*
D03*
Y310980D02*
D03*
Y316980D02*
D03*
Y322980D02*
D03*
Y328980D02*
D03*
Y334980D02*
D03*
Y340980D02*
D03*
X83360Y223980D02*
D03*
Y229980D02*
D03*
Y235980D02*
D03*
Y241980D02*
D03*
Y247980D02*
D03*
Y253980D02*
D03*
Y259980D02*
D03*
Y265980D02*
D03*
Y271980D02*
D03*
Y277980D02*
D03*
Y283980D02*
D03*
Y289980D02*
D03*
Y295980D02*
D03*
Y301980D02*
D03*
Y307980D02*
D03*
Y313980D02*
D03*
Y319980D02*
D03*
Y325980D02*
D03*
Y331980D02*
D03*
Y337980D02*
D03*
D107*
X57560Y214230D02*
D03*
Y347730D02*
D03*
M02*
